<?xml version="1.0" encoding="utf-8"?>
<!-- Generator: Adobe Illustrator 22.1.0, SVG Export Plug-In . SVG Version: 6.00 Build 0)  -->
<svg version="1.1" id="Layer_1" xmlns="http://www.w3.org/2000/svg" xmlns:xlink="http://www.w3.org/1999/xlink" x="0px" y="0px"
	 width="12px" height="22px" viewBox="0 0 12 22" enable-background="new 0 0 12 22" xml:space="preserve">
<path id="Shape_6_copy_2" fill="#FFFFFF" d="M11.1,22c-0.2,0-0.4-0.1-0.6-0.2L0.3,11.6c-0.3-0.3-0.3-0.9,0-1.2c0,0,0,0,0,0L10.5,0.2
	c0.3-0.3,0.9-0.3,1.2,0c0.3,0.3,0.3,0.9,0,1.2c0,0,0,0,0,0L2.1,11l9.7,9.6c0.3,0.3,0.3,0.9,0,1.2c0,0,0,0,0,0
	C11.6,21.9,11.4,22,11.1,22z"/>
</svg>
