<?xml version="1.0" encoding="utf-8"?>
<!-- Generator: Adobe Illustrator 22.1.0, SVG Export Plug-In . SVG Version: 6.00 Build 0)  -->
<svg version="1.1" id="Layer_1" xmlns="http://www.w3.org/2000/svg" xmlns:xlink="http://www.w3.org/1999/xlink" x="0px" y="0px"
	 width="300px" height="22px" viewBox="0 0 300 22" enable-background="new 0 0 300 22" xml:space="preserve">
<rect fill="#FFFFFF" width="300" height="22"/>
<g>
	<g>
		<defs>
			<rect id="SVGID_1_" width="300" height="22"/>
		</defs>
		<clipPath id="SVGID_2_">
			<use xlink:href="#SVGID_1_"  overflow="visible"/>
		</clipPath>
		<g clip-path="url(#SVGID_2_)">
			<g transform="translate(-91.5 -918.5)">
				<path id="path" fill="#F3F3F3" d="M762.8,919H386.2c-7.8,0-15.3,3.1-20.8,8.5l0,0c-8.2,8.1-19.3,12.6-30.9,12.6h-186
					c-10.9,0-21.4-4-29.5-11.4l-2.4-2.1c-5.5-4.9-12.6-7.7-19.9-7.7h-376.4c-10.3,0-18.7,8.4-18.7,18.7l0,0v319.1
					c0,9,7.3,16.2,16.2,16.3l0,0h1047c9,0,16.2-7.3,16.3-16.2l0.4-319.1C781.5,927.4,773.1,919,762.8,919L762.8,919z"/>
			</g>
			<g transform="translate(-91.5 -918.5)">
				<path fill="#E9E9EB" d="M673.3,355h-1047c-4.5,0-8.7-1.7-11.9-4.9c-3.2-3.2-4.9-7.4-4.9-11.8V19.2c0-5.1,2-9.9,5.6-13.6
					c3.6-3.6,8.4-5.6,13.6-5.6l0,0H5.1c7.5,0,14.7,2.8,20.3,7.8l2.4,2.1c8,7.2,18.4,11.2,29.2,11.2h186c11.5,0,22.3-4.4,30.5-12.5
					c5.7-5.6,13.2-8.7,21.2-8.7h376.6c10.6,0,19.2,8.6,19.2,19.2L690,338.3C690,347.5,682.5,355,673.3,355z M-371.3,1
					c-4.9,0-9.4,1.9-12.9,5.3c-3.4,3.4-5.3,8-5.3,12.9v319.1c0,8.7,7.1,15.7,15.7,15.8h1047c8.7,0,15.7-7.1,15.8-15.7l0.5-319.1
					c0-10-8.2-18.2-18.2-18.2V0.6V1H294.7c-7.7,0-15,3-20.5,8.4c-8.4,8.2-19.5,12.8-31.2,12.8H57c-11.1,0-21.7-4.1-29.9-11.5
					l-2.4-2.1C19.4,3.7,12.4,1,5.1,1H-371.3L-371.3,1z"/>
			</g>
		</g>
	</g>
</g>
</svg>
