<?xml version="1.0" encoding="utf-8"?>
<!-- Generator: Adobe Illustrator 22.1.0, SVG Export Plug-In . SVG Version: 6.00 Build 0)  -->
<svg version="1.1" id="Layer_1" xmlns="http://www.w3.org/2000/svg" xmlns:xlink="http://www.w3.org/1999/xlink" x="0px" y="0px"
	 width="118px" height="118px" viewBox="0 0 118 118" enable-background="new 0 0 118 118" xml:space="preserve">
<path fill="none" stroke="#00B5AF" stroke-width="2" stroke-linecap="round" stroke-miterlimit="10" d="M7,68.6
	c-0.6-3.1-1-6.3-1-9.6c0-12.3,4.4-23.5,11.8-32.2"/>
<path fill="none" stroke="#00B5AF" stroke-width="2" stroke-linecap="round" stroke-miterlimit="10" d="M52.1,108.8
	c-16.3-1.2-30.3-10.3-38.5-23.4"/>
<path fill="none" stroke="#00B5AF" stroke-width="2" stroke-linecap="round" stroke-miterlimit="10" stroke-dasharray="0,5" d="
	M89.1,102.8c-9.2,7-20.7,11.1-33.2,11.1c-4.3,0-8.4-0.5-12.4-1.4"/>
<path fill="none" stroke="#00B5AF" stroke-width="2" stroke-linecap="round" stroke-miterlimit="10" stroke-dasharray="0,5" d="
	M102.6,29.9c5.3,8.4,8.3,18.4,8.3,29"/>
<path fill="none" stroke="#00B5AF" stroke-width="2" stroke-linecap="round" stroke-miterlimit="10" stroke-dasharray="0,5" d="
	M1,59C1,28.6,25.6,4,55.9,4"/>
<path fill="none" stroke="#00B5AF" stroke-width="2" stroke-linecap="round" stroke-miterlimit="10" d="M109.7,29.4
	c4.7,8.4,7.3,18.1,7.3,28.5c0,1.7-0.1,3.3-0.2,5"/>
</svg>
