<?xml version="1.0" encoding="utf-8"?>
<!-- Generator: Adobe Illustrator 22.1.0, SVG Export Plug-In . SVG Version: 6.00 Build 0)  -->
<svg version="1.1" id="Layer_1" xmlns="http://www.w3.org/2000/svg" xmlns:xlink="http://www.w3.org/1999/xlink" x="0px" y="0px"
	 width="118px" height="118px" viewBox="0 0 118 118" enable-background="new 0 0 118 118" xml:space="preserve">
<path fill="none" stroke="#00B5AF" stroke-width="2" stroke-linecap="round" stroke-miterlimit="10" d="M10,68.5c-0.6-3-1-6.2-1-9.5
	c0-12.3,4.4-23.5,11.8-32.2"/>
<path fill="none" stroke="#00B5AF" stroke-width="2" stroke-linecap="round" stroke-miterlimit="10" d="M55.1,108.7
	c-16.3-1.2-30.3-10.3-38.5-23.4"/>
<path fill="none" stroke="#00B5AF" stroke-width="2" stroke-linecap="round" stroke-miterlimit="10" stroke-dasharray="0,5" d="
	M82.3,108.7c-7.1,3.3-15,5.2-23.3,5.2c-4.3,0-8.4-0.5-12.4-1.4"/>
<path fill="none" stroke="#00B5AF" stroke-width="2" stroke-linecap="round" stroke-miterlimit="10" stroke-dasharray="0,5" d="
	M4,59C4,28.7,28.6,4.1,58.9,4.1"/>
<path fill="none" stroke="#00B5AF" stroke-width="2" stroke-linecap="round" stroke-miterlimit="10" d="M76.2,5.9
	c9,3.4,17.3,9.1,24,16.9c1.1,1.3,2.1,2.6,3.1,3.9"/>
</svg>
