<?xml version="1.0" encoding="utf-8"?>
<!-- Generator: Adobe Illustrator 22.1.0, SVG Export Plug-In . SVG Version: 6.00 Build 0)  -->
<svg version="1.1" id="Layer_1" xmlns="http://www.w3.org/2000/svg" xmlns:xlink="http://www.w3.org/1999/xlink" x="0px" y="0px"
	 width="118px" height="118px" viewBox="0 0 118 118" enable-background="new 0 0 118 118" xml:space="preserve">
<path fill="none" stroke="#00B5AF" stroke-width="2" stroke-linecap="round" stroke-miterlimit="10" d="M6,68.5c-0.6-3-1-6.2-1-9.5
	c0-12.3,4.4-23.5,11.8-32.2"/>
<path fill="none" stroke="#00B5AF" stroke-width="2" stroke-linecap="round" stroke-miterlimit="10" d="M51.1,108.7
	c-16.3-1.2-30.3-10.3-38.5-23.4"/>
<path fill="none" stroke="#00B5AF" stroke-width="2" stroke-linecap="round" stroke-miterlimit="10" stroke-dasharray="0,5" d="
	M88.1,102.8c-9.2,7-20.7,11.1-33.2,11.1c-4.3,0-8.4-0.5-12.4-1.4"/>
<path fill="none" stroke="#00B5AF" stroke-width="2" stroke-linecap="round" stroke-miterlimit="10" stroke-dasharray="0,5" d="
	M78.6,11.6c8.7,4.8,16.2,12,21.4,21.3"/>
<path fill="none" stroke="#00B5AF" stroke-width="2" stroke-linecap="round" stroke-miterlimit="10" stroke-dasharray="0,5" d="
	M0,59C0,28.7,24.6,4.1,54.9,4.1"/>
<path fill="none" stroke="#00B5AF" stroke-width="2" stroke-linecap="round" stroke-miterlimit="10" d="M84.5,7.6
	c8.2,5.1,15.3,12.3,20.3,21.3c0.8,1.5,1.6,2.9,2.2,4.4"/>
</svg>
