<?xml version="1.0" encoding="utf-8"?>
<!-- Generator: Adobe Illustrator 22.1.0, SVG Export Plug-In . SVG Version: 6.00 Build 0)  -->
<svg version="1.1" id="dog-with-ball" xmlns="http://www.w3.org/2000/svg" xmlns:xlink="http://www.w3.org/1999/xlink" x="0px"
	 y="0px" width="49.8px" height="84.5px" viewBox="0 0 49.8 84.5" enable-background="new 0 0 49.8 84.5" xml:space="preserve">
<g id="dog_1_">
	<g>
		<g id="XMLID_14_">
			
				<path fill="#FFFFFF" stroke="#00728C" stroke-width="2" stroke-linecap="round" stroke-linejoin="round" stroke-miterlimit="10" d="
				M12.9,74c1,1.9,2.8,2.7,4.1,3.1c-0.1,0.4-0.3,0.8-0.5,1c-1.3,1.8-0.7,5.1,0.7,5.1c1.3,0,4.2,0.7,4.7-1.1s-0.2-4.7,1.6-4.7
				c1.8,0,11.1-0.7,11.4,0.7c0.2,1.3-1.6,5.1,0.2,5.2s6.2-0.3,5.8-1.7c-0.4-1.3-0.9-2.7,1.6-2.9c2.5-0.2,8.2-6,5.8-10.2
				c-2.5-4.2-5.3-5.1-6-14.7S41,33.3,36.1,27.3c-2.5-3.1-3.1-5.6-2.7-10.2c0.4-4.7,2.7-9.8,2.7-9.8c2.5-0.6,6.5,2.3,6.5,0.7
				c0,0-2-4.6-4.5-5.9S34.5,1.6,33,1.9c-1.4,0.3-2.7-1.8-9.1-0.4c-1.8,0.4-4-1.3-6.5,1.3c-2.5,2.7-3.1,6-1.8,5.3
				c1.3-0.6,0.9-2,3.3-1.5c2.5,0.4,2.5,5.1,3.1,8.2c0.7,3.1,0.4,9.8-0.9,12s-5.8,11-4.7,18.5s1.3,20.3,1.3,21.8c0,1,0.1,4.3-0.2,7.1
				c-0.9-0.3-2.1-0.8-2.7-1.9c-1-1.9,0-4.6-1-4.6C12.8,67.8,11.1,70.7,12.9,74z M21.8,71.5c0,0,3.8,3.6,3.3,3.7
				c-0.4,0.1-1.9,0.5-3,0.5 M22.2,80.3l-0.7-13.7l0.4-17.4c0,0,2.3,9,4.1,10.2l-4.1,3.3"/>
		</g>
		
			<path fill="#FFFFFF" stroke="#00728C" stroke-width="2" stroke-linecap="round" stroke-linejoin="round" stroke-miterlimit="10" d="
			M34.8,79c0,0,0.2-6,0.2-10s-2-20-2-20"/>
		
			<path fill="#FFFFFF" stroke="#00728C" stroke-width="2" stroke-linecap="round" stroke-linejoin="round" stroke-miterlimit="10" d="
			M40,81l-1-7c0,0-2-19-1-26"/>
	</g>
	<path fill="none" stroke="#00B5AF" stroke-linecap="round" stroke-linejoin="round" stroke-miterlimit="10" d="M26.9,13.5h1.3
		c0.6,0,0.9,0.6,0.6,1.1l-0.6,1c-0.3,0.4-0.9,0.4-1.2,0l-0.6-1C25.9,14.1,26.3,13.5,26.9,13.5z"/>
	<path fill="none" stroke="#00B5AF" stroke-linecap="round" stroke-linejoin="round" stroke-miterlimit="10" d="M34.5,30.5
		c0,0,2,3,3,8"/>
</g>
<g id="ball">
	
		<circle fill="#FFFFFF" stroke="#00B5AF" stroke-linecap="round" stroke-linejoin="round" stroke-miterlimit="10" cx="5.3" cy="79.3" r="4.8"/>
	<path fill="none" stroke="#00B5AF" stroke-linecap="round" stroke-linejoin="round" stroke-miterlimit="10" d="M7.3,75.9
		c0,0-2.7,2.7-0.7,6.8"/>
</g>
</svg>
