<?xml version="1.0" encoding="utf-8"?>
<!-- Generator: Adobe Illustrator 22.1.0, SVG Export Plug-In . SVG Version: 6.00 Build 0)  -->
<svg version="1.1" id="Layer_1" xmlns="http://www.w3.org/2000/svg" xmlns:xlink="http://www.w3.org/1999/xlink" x="0px" y="0px"
	 width="148.2px" height="49.8px" viewBox="0 0 148.2 49.8" enable-background="new 0 0 148.2 49.8" xml:space="preserve">
<g>
	<g>
		<path fill="#E34094" d="M142.7,0H5.5C2.5,0,0,2.5,0,5.5v19.4c0,13.8,11.2,25,25,25h117.7c3,0,5.5-2.5,5.5-5.5V5.5
			C148.2,2.5,145.7,0,142.7,0z"/>
	</g>
	<g>
		<g>
			<circle fill="#FFFFFF" cx="24.6" cy="25" r="16.9"/>
		</g>
		<g>
			<g>
				<path fill="#00728C" d="M24.6,9.3C16,9.3,9,16.3,9,25s7,15.7,15.7,15.7s15.7-7,15.7-15.7C40.3,16.3,33.3,9.3,24.6,9.3z"/>
			</g>
		</g>
	</g>
	<g>
		<g>
			<path fill="#FFFFFF" d="M97.1,37.1c-0.9,0-1.8,0.2-2.2,0.4v8.3h1.5v-2.5c0.2,0.1,0.6,0.1,0.9,0.1c1.9,0,2.9-1.3,2.9-3.2
				C100.2,38.3,99.1,37.1,97.1,37.1z M97.1,42.3c-0.3,0-0.6-0.1-0.7-0.1v-3.7c0.1-0.1,0.4-0.1,0.7-0.1c1,0,1.5,0.7,1.5,2
				C98.6,41.5,98.1,42.3,97.1,42.3z"/>
		</g>
		<g>
			<path fill="#FFFFFF" d="M103.7,37.1c-0.9,0-1.7,0.2-2.3,0.4l0.2,0.6c0.1,0.2,0.3,0.4,0.6,0.3c0.4-0.1,0.9-0.2,1.3-0.2
				c0.7,0,1.1,0.2,1.1,0.9v0.3c-1.9,0.1-3.6,0.4-3.6,2.1c0,1.3,0.9,2,2.8,2c0.9,0,1.8-0.2,2.3-0.4v-3.5
				C106.1,38.2,105.8,37.1,103.7,37.1z M104.6,42.3c-0.2,0.1-0.5,0.1-0.9,0.1c-0.8,0-1.3-0.3-1.3-0.9c0-0.9,1-1,2.1-1.1v1.9H104.6z"
				/>
		</g>
		<g>
			<path fill="#FFFFFF" d="M109.8,42.6l-1.2-4.7c-0.1-0.4-0.5-0.7-0.9-0.7h-1l1.7,5.5c0.1,0.4,0.5,0.6,0.8,0.6h0.2l-0.9,2.4h1.5
				l2.9-8.6h-1.7L109.8,42.6z"/>
		</g>
		<g>
			<path fill="#FFFFFF" d="M113.9,37.3l-0.4,1.2h2.6l-2.8,4.9h4.9v-0.8c0-0.2-0.2-0.5-0.5-0.5h-2.3l2.8-4.9L113.9,37.3L113.9,37.3z"
				/>
		</g>
		<g>
			<path fill="#FFFFFF" d="M121.4,37.1c-1.8,0-2.8,1.4-2.8,3.2s1,3.2,2.8,3.2s2.8-1.4,2.8-3.2C124.2,38.5,123.2,37.1,121.4,37.1z
				 M121.4,42.3c-0.8,0-1.2-0.7-1.2-2c0-1.2,0.4-2,1.2-2c0.8,0,1.2,0.7,1.2,2S122.2,42.3,121.4,42.3z"/>
		</g>
		<g>
			<path fill="#FFFFFF" d="M127.6,37.1c-0.9,0-1.5,0.1-2.1,0.3c-0.2,0.1-0.3,0.2-0.3,0.4v5.5h1.5v-4.9c0.2-0.1,0.6-0.1,0.9-0.1
				c0.7,0,1.1,0.4,1.1,1v4h1.6v-4.2C130.2,37.9,129.4,37.1,127.6,37.1z"/>
		</g>
		<g>
			<path fill="#FFFFFF" d="M136.7,40.2c0-1.7-0.8-3.1-2.6-3.1s-2.8,1.3-2.8,3.2s1.1,3.2,3.1,3.2c0.9,0,1.6-0.1,2.1-0.4l-0.3-0.7
				c-0.1-0.2-0.3-0.4-0.6-0.3c-0.3,0.1-0.7,0.2-1.2,0.2c-0.9,0-1.6-0.5-1.7-1.4h3.9C136.7,40.7,136.7,40.4,136.7,40.2z M132.6,40
				c0-1.1,0.6-1.7,1.4-1.7c0.9,0,1.3,0.8,1.3,1.7H132.6z"/>
		</g>
	</g>
	<g>
		<path fill="#FFFFFF" d="M33.8,24.5v-2.9c0-3.7-3-6.7-6.7-6.7h-2.9c-3.7,0-6.7,3-6.7,6.7V26H15v2.8c0,1.4,1.1,2.5,2.5,2.5H21
			c0.1,0,0.1,0.1,0,0.2l-1.9,0.4c-1,0.2-1.7,1.1-1.7,2.1v2.7h2.9c1.6,0,2.8-1.3,2.8-2.8v-2.5h4C30.8,31.3,33.8,28.2,33.8,24.5z
			 M26.4,26h-2h-1.3v-3.7c0-1,0.8-1.8,1.8-1.8h1.5c1,0,1.8,0.8,1.8,1.8v1.8C28.2,25.2,27.4,26,26.4,26z"/>
	</g>
	<g>
		<path fill="#FFFFFF" d="M47.7,29V11.5H57v2.8h-6v4.4h5.4v2.8H51v4.6h6V29H47.7z"/>
		<path fill="#FFFFFF" d="M64.8,29.2c-3.9,0-5.9-1.5-5.9-4.2c0-3.5,3.7-4.2,7.6-4.5v-0.7c0-1.4-0.9-1.9-2.4-1.9
			c-1.2,0-2.7,0.4-3.6,0.8l-0.8-2.2c1.1-0.5,2.9-0.9,4.8-0.9c3.3,0,5.2,1.3,5.2,4.6v8C68.7,28.8,66.8,29.2,64.8,29.2z M66.6,22.7
			C64.2,22.8,62,23,62,25c0,1.2,1,1.9,2.7,1.9c0.7,0,1.5-0.1,1.9-0.3V22.7z"/>
		<path fill="#FFFFFF" d="M71.6,29l5.2-10.4H72V16h9.4l-5.2,10.4h5.3V29H71.6z"/>
		<path fill="#FFFFFF" d="M89.2,34.1h-3.5l2-5.2l-4.9-13h3.7l2.4,8.2c0.3,1,0.4,2.1,0.4,2.1l0,0c0,0,0.1-1.1,0.4-2.1l2.4-8.2H96
			L89.2,34.1z"/>
		<path fill="#FFFFFF" d="M103,29.1c-0.7,0-1.5-0.1-1.9-0.3v5.3h-3.3V16.6c1-0.5,2.8-0.9,4.8-0.9c4.2,0,6.5,2.5,6.5,6.7
			C109.1,26.4,107,29.1,103,29.1z M102.6,18.2c-0.6,0-1.2,0.1-1.5,0.3v7.9c0.3,0.1,1,0.2,1.5,0.2c2.1,0,3.1-1.7,3.1-4.2
			C105.8,19.8,104.7,18.2,102.6,18.2z"/>
		<path fill="#FFFFFF" d="M116.8,29.2c-3.9,0-5.9-1.5-5.9-4.2c0-3.5,3.7-4.2,7.6-4.5v-0.7c0-1.4-0.9-1.9-2.4-1.9
			c-1.2,0-2.7,0.4-3.6,0.8l-0.8-2.2c1.1-0.5,2.9-0.9,4.8-0.9c3.3,0,5.2,1.3,5.2,4.6v8C120.7,28.8,118.8,29.2,116.8,29.2z
			 M118.6,22.7c-2.4,0.1-4.5,0.3-4.5,2.3c0,1.2,1,1.9,2.7,1.9c0.7,0,1.5-0.1,1.9-0.3L118.6,22.7L118.6,22.7z"/>
		<path fill="#FFFFFF" d="M129.6,34.1h-3.5l2-5.2l-4.9-13h3.7l2.4,8.2c0.3,1,0.4,2.1,0.4,2.1l0,0c0,0,0.1-1.1,0.4-2.1l2.4-8.2h3.7
			L129.6,34.1z"/>
	</g>
	<g>
		<path fill="#FFFFFF" d="M84.6,43.4c-0.6,0-1.1-0.1-1.5-0.3v-5.8h1v2c0.2-0.1,0.5-0.1,0.7-0.1c1.1,0,1.8,0.7,1.8,2
			C86.7,42.7,85.9,43.4,84.6,43.4z M84.7,40c-0.2,0-0.4,0-0.5,0.1v2.5c0.1,0,0.3,0.1,0.5,0.1c0.6,0,1-0.4,1-1.4
			C85.6,40.5,85.3,40,84.7,40z"/>
		<path fill="#FFFFFF" d="M89,45h-1.1l0.6-1.6L87,39.2h1.2l0.8,2.6c0.1,0.3,0.1,0.6,0.1,0.6l0,0c0,0,0-0.3,0.1-0.6l0.8-2.6h1.2
			L89,45z"/>
	</g>
</g>
</svg>
