<?xml version="1.0" encoding="utf-8"?>
<!-- Generator: Adobe Illustrator 22.1.0, SVG Export Plug-In . SVG Version: 6.00 Build 0)  -->
<svg version="1.1" id="Isolation_Mode" xmlns="http://www.w3.org/2000/svg" xmlns:xlink="http://www.w3.org/1999/xlink" x="0px"
	 y="0px" width="1920px" height="897.5px" viewBox="0 0 1920 897.5" style="enable-background:new 0 0 1920 897.5;"
	 xml:space="preserve">
<style type="text/css">
	.st0{fill:#E9E9EB;}
	.st1{fill:none;stroke:#C6CDD1;stroke-width:4;stroke-miterlimit:10;}
	.st2{fill:none;stroke:#495965;stroke-width:4;stroke-miterlimit:10;}
	.st3{fill:none;stroke:#E34094;stroke-width:4;stroke-miterlimit:10;}
	.st4{fill:none;stroke:#C6CDD1;stroke-width:4;stroke-linejoin:round;stroke-miterlimit:10;}
</style>
<g>
	<g id="XMLID_1_">
		<g>
			<path class="st0" d="M1160.1,588.6V758h-31.9c0,0,11.1-147.6,12.4-161.2C1141.7,584.2,1157.7,583.3,1160.1,588.6z"/>
		</g>
		<g>
			<line class="st1" x1="762.9" y1="284.6" x2="762.9" y2="359.1"/>
			<line class="st1" x1="455.5" y1="286.3" x2="455.5" y2="359.1"/>
			<line class="st1" x1="480.3" y1="286.3" x2="480.3" y2="359.1"/>
			<polyline class="st1" points="882.6,947.9 882.6,868.7 943.2,808.2 1461.2,808.2 1511.9,858.8 1511.9,950 			"/>
			<polyline class="st1" points="901.5,867.8 949.2,821 1338.5,821 			"/>
			<line class="st1" x1="796.1" y1="717.9" x2="907.5" y2="717.9"/>
			<polyline class="st1" points="517.5,717.9 518,717.9 736.5,717.9 			"/>
			<path class="st2" d="M1423.2,950c30.2,0,59.8,0,88.7,0c252.3,0,447.6,0,447.6,0"/>
			<path class="st2" d="M1060.8,950c86.1,0,174.2,0,260,0"/>
			<path class="st2" d="M1959.6,284.6h-925.2h-14.7H762.9H480.3H465c0,0-3.5-0.1-9.6,0.2c-30.6,1.1-128,9.9-190.7,74.3
				c-7.8,8-15,16.8-21.5,26.6c-5,7.5-10.1,15.2-15.1,23.1c-79,122.6-160.5,278.4-182.4,317.6c-0.4,0.7-0.7,1.3-1.1,1.9
				c-4.1,7.3-7.9,17.5-10.8,29.2c-3,11.7-5.2,25-6.4,38.7c-3.8,43.7,3,91.7,30.4,105.9c44.6,23.2,213.5,48,357.5,48
				c48.2,0,237.2,0,467.3,0c24.8,0,50.1,0,75.8,0"/>
			<polyline class="st2" points="264.8,359.1 455.5,359.1 480.3,359.1 762.9,359.1 1959.6,359.1 			"/>
			<line class="st2" x1="1918.2" y1="408.8" x2="1959.6" y2="408.8"/>
			<line class="st2" x1="1539.2" y1="408.8" x2="1554.1" y2="408.8"/>
			<line class="st2" x1="1160.1" y1="408.8" x2="1175.1" y2="408.8"/>
			<line class="st2" x1="736.5" y1="408.8" x2="796" y2="408.8"/>
			<line class="st2" x1="412.1" y1="408.8" x2="518" y2="408.8"/>
			<line class="st2" x1="1918.2" y1="758" x2="1956.3" y2="758"/>
			<line class="st2" x1="1539.2" y1="758" x2="1554.1" y2="758"/>
			<line class="st2" x1="1160.1" y1="758" x2="1175.1" y2="758"/>
			<polyline class="st2" points="36.3,758 518,758 736.5,758 796,758 			"/>
			<polyline class="st2" points="26.4,796.1 27.4,796.1 168.2,796.1 518,796.1 736.5,796.1 1956.3,796.1 			"/>
			<polyline class="st2" points="228.3,408.8 301.2,408.8 412.1,408.8 412.1,599.1 342.5,726.5 47.9,726.5 			"/>
			<path class="st2" d="M166.4,766.5c0,0,12.2,14.5,1.8,29.6c-1.3,1.8-2.9,3.7-4.9,5.5"/>
			<polyline class="st2" points="1539.2,758 1507.2,758 1175.1,758 1175.1,408.8 1539.2,408.8 1539.2,588.8 1539.2,758 			"/>
			<polyline class="st2" points="1918.2,758 1554.1,758 1554.1,408.8 1918.2,408.8 1918.2,758 			"/>
			<polygon class="st2" points="796,408.8 1160.1,408.8 1160.1,588.6 1160.1,758 1128.2,758 796,758 			"/>
			<polygon class="st2" points="518,408.8 736.5,408.8 736.5,717.9 736.5,758 736.5,796.1 736.5,921.9 518,921.9 518,796.1 518,758 
				518,717.9 			"/>
			<path class="st3" d="M438.4,621.5h-4.6c-1.9,0-3.5-1.6-3.5-3.5v-34.4c0-1.9,1.6-3.5,3.5-3.5h4.6c1.9,0,3.5,1.6,3.5,3.5V618
				C441.9,620,440.3,621.5,438.4,621.5z"/>
			<path class="st3" d="M438.4,748.1h-4.6c-1.9,0-3.5-1.6-3.5-3.5v-34.4c0-1.9,1.6-3.5,3.5-3.5h4.6c1.9,0,3.5,1.6,3.5,3.5v34.4
				C441.9,746.5,440.3,748.1,438.4,748.1z"/>
			<path class="st2" d="M958.4,950c14,11.4,31.8,18.2,51.2,18.2c19.4,0,37.2-6.8,51.2-18.2H958.4z"/>
			<path class="st2" d="M1320.8,950c14,11.4,31.8,18.2,51.2,18.2s37.2-6.8,51.2-18.2H1320.8z"/>
			<polyline class="st2" points="1020.6,285.6 1019.8,284.6 878.8,119.2 1049.2,-2.9 			"/>
			<polyline class="st2" points="1034.4,284.6 903.6,123.2 1089,-2.9 			"/>
			<path class="st2" d="M1128.2,758c0,0,11.1-147.6,12.4-161.2c1.1-12.6,17.1-13.5,19.5-8.2c0.2,0.4,0.3,0.9,0.3,1.4"/>
			<path class="st2" d="M1507.2,758c0,0,11.1-147.6,12.4-161.2c1.1-12.8,17.6-13.5,19.6-8c0.1,0.4,0.2,0.8,0.2,1.2"/>
			<line class="st1" x1="1002.6" y1="416.1" x2="932.6" y2="486.1"/>
			<line class="st1" x1="357.2" y1="554.7" x2="207.6" y2="704.3"/>
			<line class="st1" x1="370.8" y1="431.1" x2="107.5" y2="694.4"/>
			<line class="st1" x1="1525.1" y1="416.5" x2="1475.6" y2="465.9"/>
			<line class="st1" x1="1283.1" y1="446.5" x2="1257" y2="472.5"/>
			<line class="st1" x1="1801.2" y1="622.7" x2="1702.9" y2="721"/>
			<line class="st1" x1="1832.1" y1="531.2" x2="1733.8" y2="629.5"/>
			<line class="st1" x1="907.4" y1="433.5" x2="855.2" y2="485.7"/>
			<polyline class="st2" points="1765.4,968.9 1372,968.9 1009.6,968.9 13.5,968.9 			"/>
			<polygon class="st4" points="412.5,634 412.5,727 361.5,727 			"/>
		</g>
	</g>
</g>
</svg>
