<?xml version="1.0" encoding="utf-8"?>
<!-- Generator: Adobe Illustrator 22.1.0, SVG Export Plug-In . SVG Version: 6.00 Build 0)  -->
<svg version="1.1" id="Layer_1" xmlns="http://www.w3.org/2000/svg" xmlns:xlink="http://www.w3.org/1999/xlink" x="0px" y="0px"
	 width="628px" height="610px" viewBox="0 0 628 610" enable-background="new 0 0 628 610" xml:space="preserve">
<g>
	<rect x="127.8" y="580.6" fill="#E9E9EB" width="247.1" height="144.1"/>
	<path fill="#495965" d="M374.9,725.1H127.8c-0.3,0-0.5-0.2-0.5-0.5v-144c0-0.3,0.2-0.5,0.5-0.5h247.1c0.3,0,0.5,0.2,0.5,0.5v144.1
		C375.4,724.9,375.2,725.1,374.9,725.1z M128.3,724.1h246.1v-143H128.3V724.1z"/>
	<rect x="95.9" y="548.9" fill="#E9E9EB" width="529.8" height="31.7"/>
	<path fill="#495965" d="M625.7,582.7H95.9c-1.2,0-2.1-0.9-2.1-2.1v-31.7c0-1.2,0.9-2.1,2.1-2.1h529.8c1.2,0,2.1,0.9,2.1,2.1v31.7
		C627.8,581.7,626.8,582.7,625.7,582.7z M98,578.5h525.6V551H98V578.5z"/>
	<rect x="113.7" y="580.6" fill="#E9E9EB" width="14" height="323.4"/>
	<path fill="#495965" d="M127.8,906.1h-14c-1.2,0-2.1-0.9-2.1-2.1V580.6c0-1.2,0.9-2.1,2.1-2.1h14c1.2,0,2.1,0.9,2.1,2.1V904
		C129.9,905.1,128.9,906.1,127.8,906.1z M115.8,901.9h9.8V582.7h-9.8V901.9z"/>
	<rect x="592.2" y="580.6" fill="#E9E9EB" width="14" height="323.4"/>
	<path fill="#495965" d="M606.2,906.1h-14c-1.2,0-2.1-0.9-2.1-2.1V580.6c0-1.2,0.9-2.1,2.1-2.1h14c1.2,0,2.1,0.9,2.1,2.1V904
		C608.3,905.1,607.4,906.1,606.2,906.1z M594.3,901.9h9.8V582.7h-9.8V901.9z"/>
	<rect x="374.9" y="580.6" fill="#E9E9EB" width="217.3" height="144.1"/>
	<path fill="#495965" d="M592.2,726.7H374.9c-1.2,0-2.1-0.9-2.1-2.1v-144c0-1.2,0.9-2.1,2.1-2.1h217.3c1.2,0,2.1,0.9,2.1,2.1v144.1
		C594.3,725.8,593.4,726.7,592.2,726.7z M377,722.5h213.1V582.7H377V722.5z"/>
	<rect x="388.5" y="594.4" fill="#E9E9EB" width="188.6" height="58.2"/>
	<path fill="#495965" d="M577.1,653.1H388.5c-0.3,0-0.5-0.2-0.5-0.5v-58.2c0-0.3,0.2-0.5,0.5-0.5h188.6c0.3,0,0.5,0.2,0.5,0.5v58.2
		C577.6,652.9,577.4,653.1,577.1,653.1z M389,652.1h187.5v-57.2H389V652.1z"/>
	<rect x="388.5" y="652.6" fill="#E9E9EB" width="188.6" height="58.2"/>
	<path fill="#495965" d="M577.1,711.3H388.5c-0.3,0-0.5-0.2-0.5-0.5v-58.2c0-0.3,0.2-0.5,0.5-0.5h188.6c0.3,0,0.5,0.2,0.5,0.5v58.2
		C577.6,711.1,577.4,711.3,577.1,711.3z M389,710.3h187.5v-57.2H389V710.3z"/>
	<path fill="#495965" d="M503.2,608.1h-40.8c-1.2,0-2.1-0.9-2.1-2.1s0.9-2.1,2.1-2.1h40.8c1.2,0,2.1,0.9,2.1,2.1
		S504.4,608.1,503.2,608.1z"/>
	<path fill="#495965" d="M503.2,666.5h-40.8c-1.2,0-2.1-0.9-2.1-2.1s0.9-2.1,2.1-2.1h40.8c1.2,0,2.1,0.9,2.1,2.1
		S504.4,666.5,503.2,666.5z"/>
	<rect x="292.6" y="539.6" fill="#E9E9EB" width="136.4" height="9.3"/>
	<path fill="#495965" d="M429,551H292.6c-1.2,0-2.1-0.9-2.1-2.1v-9.3c0-1.2,0.9-2.1,2.1-2.1H429c1.2,0,2.1,0.9,2.1,2.1v9.3
		C431.1,550.1,430.1,551,429,551z M294.7,546.8h132.2v-5.1H294.7V546.8z"/>
	<rect x="251.3" y="373.3" fill="#E9E9EB" width="219" height="145"/>
	<path fill="#495965" d="M470.3,520.4h-219c-1.2,0-2.1-0.9-2.1-2.1v-145c0-1.2,0.9-2.1,2.1-2.1h219c1.2,0,2.1,0.9,2.1,2.1v145
		C472.4,519.5,471.4,520.4,470.3,520.4z M253.4,516.2h214.8V375.4H253.4V516.2z"/>
	<rect x="263.9" y="385.9" fill="#E9E9EB" width="193.7" height="119.8"/>
	<path fill="#495965" d="M457.6,506.2H263.9c-0.3,0-0.5-0.2-0.5-0.5V385.9c0-0.3,0.2-0.5,0.5-0.5h193.7c0.3,0,0.5,0.2,0.5,0.5v119.8
		C458.1,506,457.9,506.2,457.6,506.2z M264.4,505.2H457V386.4H264.4V505.2z"/>
	<rect x="351.7" y="518.3" fill="#E9E9EB" width="18.1" height="21.3"/>
	<path fill="#495965" d="M369.8,541.7h-18.1c-1.2,0-2.1-0.9-2.1-2.1v-21.3c0-1.2,0.9-2.1,2.1-2.1h18.1c1.2,0,2.1,0.9,2.1,2.1v21.3
		C371.9,540.8,371,541.7,369.8,541.7z M353.8,537.5h13.9v-17h-13.9V537.5z"/>
	<path fill="#E9E9EB" d="M371.7,357c0-6-4.9-10.9-10.9-10.9s-10.9,4.9-10.9,10.9s4.9,10.9,10.9,10.9S371.7,363,371.7,357z"/>
	<path fill="#495965" d="M360.8,370c-7.2,0-13-5.8-13-13s5.8-13,13-13s13,5.8,13,13S367.9,370,360.8,370z M360.8,348.2
		c-4.9,0-8.8,4-8.8,8.8c0,4.9,4,8.8,8.8,8.8c4.9,0,8.8-3.9,8.8-8.8S365.6,348.2,360.8,348.2z"/>
	<path fill="#E9E9EB" d="M364.1,357c0-1.8-1.5-3.3-3.3-3.3s-3.3,1.5-3.3,3.3s1.5,3.3,3.3,3.3S364.1,358.8,364.1,357z"/>
	<path fill="#495965" d="M360.8,360.8c-2.1,0-3.8-1.7-3.8-3.8s1.7-3.8,3.8-3.8s3.8,1.7,3.8,3.8S362.9,360.8,360.8,360.8z
		 M360.8,354.2c-1.5,0-2.8,1.2-2.8,2.8c0,1.5,1.2,2.8,2.8,2.8c1.5,0,2.8-1.2,2.8-2.8C363.5,355.5,362.3,354.2,360.8,354.2z"/>
	<rect x="351.7" y="368.4" fill="#E9E9EB" width="18.1" height="9.8"/>
	<path fill="#495965" d="M369.8,380.3h-18.1c-1.2,0-2.1-0.9-2.1-2.1v-9.8c0-1.2,0.9-2.1,2.1-2.1h18.1c1.2,0,2.1,0.9,2.1,2.1v9.8
		C371.9,379.3,371,380.3,369.8,380.3z M353.8,376.1h13.9v-5.6h-13.9V376.1z"/>
	<rect x="127.8" y="670.6" fill="#E9E9EB" width="95.6" height="233.4"/>
	<path fill="#495965" d="M223.4,906.1h-95.6c-1.2,0-2.1-0.9-2.1-2.1V670.6c0-1.2,0.9-2.1,2.1-2.1h95.6c1.2,0,2.1,0.9,2.1,2.1V904
		C225.5,905.1,224.6,906.1,223.4,906.1z M129.9,901.9h91.4V672.7h-91.4V901.9z"/>
	<rect x="142.9" y="690.4" fill="#E9E9EB" width="65.3" height="20.4"/>
	<path fill="#495965" d="M208.2,712.9h-65.3c-1.2,0-2.1-0.9-2.1-2.1v-20.4c0-1.2,0.9-2.1,2.1-2.1h65.3c1.2,0,2.1,0.9,2.1,2.1v20.4
		C210.4,712,209.4,712.9,208.2,712.9z M145.1,708.7h61.1v-16.2h-61.1V708.7z"/>
	<path fill="#495965" d="M200.1,701.1h-49c-0.3,0-0.5-0.2-0.5-0.5s0.2-0.5,0.5-0.5h49c0.3,0,0.5,0.2,0.5,0.5
		C200.6,700.9,200.4,701.1,200.1,701.1z"/>
	<path fill="#495965" d="M208.2,725.1h-65.3c-0.3,0-0.5-0.2-0.5-0.5s0.2-0.5,0.5-0.5h65.3c0.3,0,0.5,0.2,0.5,0.5
		C208.8,724.9,208.5,725.1,208.2,725.1z"/>
	<path fill="#495965" d="M208.2,737.2h-65.3c-0.3,0-0.5-0.2-0.5-0.5s0.2-0.5,0.5-0.5h65.3c0.3,0,0.5,0.2,0.5,0.5
		S208.5,737.2,208.2,737.2z"/>
	<path fill="#495965" d="M208.2,749.2h-65.3c-0.3,0-0.5-0.2-0.5-0.5s0.2-0.5,0.5-0.5h65.3c0.3,0,0.5,0.2,0.5,0.5
		C208.8,749,208.5,749.2,208.2,749.2z"/>
	<path fill="#495965" d="M208.2,761.3h-65.3c-0.3,0-0.5-0.2-0.5-0.5s0.2-0.5,0.5-0.5h65.3c0.3,0,0.5,0.2,0.5,0.5
		C208.8,761,208.5,761.3,208.2,761.3z"/>
	<path fill="#495965" d="M208.2,889.7h-65.3c-0.3,0-0.5-0.2-0.5-0.5v-50.4c0-0.3,0.2-0.5,0.5-0.5h65.3c0.3,0,0.5,0.2,0.5,0.5v50.4
		C208.8,889.4,208.5,889.7,208.2,889.7z M143.5,888.6h64.2v-49.4h-64.2V888.6z"/>
	<path fill="#495965" d="M151.1,792.1c-4.3,0-7.8-3.5-7.8-7.8s3.5-7.8,7.8-7.8s7.8,3.5,7.8,7.8S155.4,792.1,151.1,792.1z
		 M151.1,777.5c-3.7,0-6.8,3-6.8,6.8c0,3.7,3,6.7,6.8,6.7c3.7,0,6.7-3,6.7-6.7C157.9,780.5,154.8,777.5,151.1,777.5z"/>
	<path fill="#495965" d="M175.6,792.1c-4.3,0-7.8-3.5-7.8-7.8s3.5-7.8,7.8-7.8s7.8,3.5,7.8,7.8S179.9,792.1,175.6,792.1z
		 M175.6,777.5c-3.7,0-6.7,3-6.7,6.8c0,3.7,3,6.7,6.7,6.7s6.7-3,6.7-6.7C182.3,780.5,179.3,777.5,175.6,777.5z"/>
	<path fill="#495965" d="M200.1,792.1c-4.3,0-7.8-3.5-7.8-7.8s3.5-7.8,7.8-7.8s7.8,3.5,7.8,7.8S204.4,792.1,200.1,792.1z
		 M200.1,777.5c-3.7,0-6.8,3-6.8,6.8c0,3.7,3,6.7,6.8,6.7c3.7,0,6.8-3,6.8-6.7C206.8,780.5,203.8,777.5,200.1,777.5z"/>
	<path fill="#495965" d="M172,505.3c-12.7,0-23.1-13.8-23.1-30.8s10.4-30.8,23.1-30.8s23.1,13.8,23.1,30.8S184.7,505.3,172,505.3z
		 M172,447.9c-10.4,0-18.9,11.9-18.9,26.6s8.5,26.6,18.9,26.6s18.9-11.9,18.9-26.6S182.4,447.9,172,447.9z"/>
	<polygon fill="#E9E9EB" points="191,548.9 203.5,495.4 140.5,495.4 153,548.9 	"/>
	<path fill="#495965" d="M191,551h-38c-1,0-1.8-0.7-2.1-1.6l-12.4-53.5c-0.1-0.6,0-1.3,0.4-1.8s1-0.8,1.7-0.8h62.9
		c0.6,0,1.3,0.3,1.7,0.8s0.5,1.2,0.4,1.8l-12.4,53.5C192.9,550.3,192,551,191,551z M154.7,546.8h34.7l11.5-49.3h-57.7L154.7,546.8z"
		/>
	<path fill="#495965" d="M166.4,496c-0.2,0-0.4-0.1-0.5-0.4c-10.2-30.4,5.6-49.9,5.7-50.1c0.2-0.2,0.5-0.3,0.7-0.1
		c0.2,0.2,0.3,0.5,0.1,0.7s-15.6,19.3-5.5,49.1c0.1,0.3-0.1,0.6-0.3,0.7C166.5,496,166.4,496,166.4,496z"/>
	<path fill="#495965" d="M177.6,496c-0.1,0-0.1,0-0.2,0c-0.3-0.1-0.4-0.4-0.3-0.7c10-29.8-5.4-48.9-5.5-49.1
		c-0.2-0.2-0.2-0.6,0.1-0.7c0.2-0.2,0.6-0.2,0.7,0.1c0.2,0.2,16,19.7,5.7,50.1C178.1,495.8,177.9,496,177.6,496z"/>
	<path fill="#495965" d="M172,446.3c-0.3,0-0.5-0.2-0.5-0.5v-8c0-0.3,0.2-0.5,0.5-0.5s0.5,0.2,0.5,0.5v8
		C172.5,446.1,172.3,446.3,172,446.3z"/>
	<path fill="#495965" d="M172,446.3c-0.1,0-0.3-0.1-0.4-0.2l-5-6c-0.2-0.2-0.2-0.6,0.1-0.7c0.2-0.2,0.6-0.2,0.7,0.1l5,6
		c0.2,0.2,0.2,0.6-0.1,0.7C172.2,446.3,172.1,446.3,172,446.3z"/>
	<path fill="#495965" d="M172,446.3c-0.1,0-0.2,0-0.3-0.1c-0.2-0.2-0.3-0.5-0.1-0.7l5-6c0.2-0.2,0.5-0.3,0.7-0.1
		c0.2,0.2,0.3,0.5,0.1,0.7l-5,6C172.3,446.3,172.2,446.3,172,446.3z"/>
	<path fill="#495965" d="M155.7,454.9c-0.1,0-0.2,0-0.3-0.1l-6.8-4.1c-0.2-0.1-0.3-0.5-0.2-0.7c0.1-0.3,0.5-0.3,0.7-0.2l6.8,4.1
		c0.2,0.1,0.3,0.5,0.2,0.7C156,454.8,155.8,454.9,155.7,454.9z"/>
	<path fill="#495965" d="M147.9,456.1c-0.3,0-0.5-0.2-0.5-0.4c0-0.3,0.1-0.6,0.4-0.6l7.7-1.2c0.3-0.1,0.6,0.2,0.6,0.4
		c0,0.3-0.1,0.6-0.4,0.6L147.9,456.1C148,456.1,148,456.1,147.9,456.1z"/>
	<path fill="#495965" d="M155.7,454.9c-0.2,0-0.4-0.1-0.5-0.4l-2.6-7.4c-0.1-0.3,0-0.6,0.3-0.7s0.6,0,0.7,0.3l2.6,7.4
		c0.1,0.3,0,0.6-0.3,0.7C155.8,454.9,155.7,454.9,155.7,454.9z"/>
	<path fill="#495965" d="M163.3,470.9L163.3,470.9l-6.8-0.6c-0.3,0-0.5-0.3-0.5-0.6c0-0.3,0.3-0.6,0.6-0.5l6.8,0.6
		c0.3,0,0.5,0.3,0.5,0.6C163.8,470.7,163.6,470.9,163.3,470.9z"/>
	<path fill="#495965" d="M157.8,474.7c-0.2,0-0.3-0.1-0.4-0.2c-0.2-0.2-0.1-0.6,0.1-0.7l5.5-3.8c0.2-0.2,0.6-0.1,0.7,0.1
		c0.2,0.2,0.1,0.6-0.1,0.7l-5.5,3.8C158,474.7,157.9,474.7,157.8,474.7z"/>
	<path fill="#495965" d="M163.3,470.9c-0.1,0-0.3-0.1-0.4-0.2l-4.8-4.7c-0.2-0.2-0.2-0.5,0-0.7s0.5-0.2,0.7,0l4.8,4.7
		c0.2,0.2,0.2,0.5,0,0.7C163.6,470.8,163.5,470.9,163.3,470.9z"/>
	<path fill="#495965" d="M143.2,480.3c-0.2,0-0.5-0.2-0.5-0.4c-0.1-0.3,0.1-0.6,0.4-0.6l7.8-1.6c0.3,0,0.6,0.1,0.6,0.4
		c0.1,0.3-0.1,0.6-0.4,0.6L143.2,480.3L143.2,480.3z"/>
	<path fill="#495965" d="M146.1,484.8c-0.1,0-0.2,0-0.3-0.1c-0.2-0.2-0.3-0.5-0.1-0.7l4.9-6.1c0.2-0.2,0.5-0.3,0.7-0.1
		c0.2,0.2,0.3,0.5,0.1,0.7l-4.9,6.1C146.4,484.8,146.3,484.8,146.1,484.8z"/>
	<path fill="#495965" d="M151,478.7c-0.1,0-0.2,0-0.2-0.1l-7-3.6c-0.3-0.1-0.4-0.5-0.2-0.7c0.1-0.3,0.5-0.4,0.7-0.2l6.9,3.7
		c0.3,0.1,0.4,0.5,0.2,0.7C151.4,478.6,151.2,478.7,151,478.7z"/>
	<path fill="#495965" d="M188.3,454.9c-0.2,0-0.4-0.1-0.5-0.3c-0.1-0.3-0.1-0.6,0.2-0.7l6.8-4.1c0.3-0.1,0.6-0.1,0.7,0.2
		c0.1,0.3,0.1,0.6-0.2,0.7l-6.8,4.1C188.5,454.9,188.4,454.9,188.3,454.9z"/>
	<path fill="#495965" d="M196.1,456.1C196,456.1,196,456.1,196.1,456.1l-7.8-1.2c-0.3,0-0.5-0.3-0.4-0.6c0-0.3,0.3-0.5,0.6-0.4
		l7.7,1.2c0.3,0,0.5,0.3,0.4,0.6C196.6,455.9,196.3,456.1,196.1,456.1z"/>
	<path fill="#495965" d="M188.3,454.9c-0.1,0-0.1,0-0.2,0c-0.3-0.1-0.4-0.4-0.3-0.7l2.6-7.4c0.1-0.3,0.4-0.4,0.7-0.3
		s0.4,0.4,0.3,0.7l-2.6,7.4C188.8,454.8,188.5,454.9,188.3,454.9z"/>
	<path fill="#495965" d="M180.7,470.9c-0.3,0-0.5-0.2-0.5-0.5s0.2-0.5,0.5-0.6l6.8-0.6c0.3-0.1,0.5,0.2,0.6,0.5
		c0,0.3-0.2,0.5-0.5,0.6L180.7,470.9L180.7,470.9z"/>
	<path fill="#495965" d="M186.2,474.7c-0.1,0-0.2,0-0.3-0.1l-5.5-3.8c-0.2-0.2-0.3-0.5-0.1-0.7s0.5-0.3,0.7-0.1l5.5,3.8
		c0.2,0.2,0.3,0.5,0.1,0.7C186.5,474.7,186.3,474.7,186.2,474.7z"/>
	<path fill="#495965" d="M180.7,470.9c-0.1,0-0.3-0.1-0.4-0.2c-0.2-0.2-0.2-0.5,0-0.7l4.8-4.7c0.2-0.2,0.5-0.2,0.7,0s0.2,0.5,0,0.7
		l-4.8,4.7C180.9,470.8,180.8,470.9,180.7,470.9z"/>
	<path fill="#495965" d="M200.8,480.3h-0.1l-7.8-1.6c-0.3-0.1-0.5-0.3-0.4-0.6c0.1-0.3,0.3-0.4,0.6-0.4l7.8,1.6
		c0.3,0.1,0.5,0.3,0.4,0.6C201.3,480.1,201,480.3,200.8,480.3z"/>
	<path fill="#495965" d="M197.9,484.8c-0.2,0-0.3-0.1-0.4-0.2l-4.9-6.1c-0.2-0.2-0.1-0.6,0.1-0.7c0.2-0.2,0.6-0.1,0.7,0.1l4.9,6.1
		c0.2,0.2,0.1,0.6-0.1,0.7C198.1,484.8,198,484.8,197.9,484.8z"/>
	<path fill="#495965" d="M193,478.7c-0.2,0-0.4-0.1-0.5-0.3c-0.1-0.3,0-0.6,0.2-0.7l6.9-3.7c0.3-0.1,0.6,0,0.7,0.2
		c0.1,0.3,0,0.6-0.2,0.7l-6.9,3.7C193.2,478.7,193.1,478.7,193,478.7z"/>
	<path fill="#E9E9EB" d="M526.9,531.8c-21.7,0-23.7,17.1-23.7,17.1h46.3C549.6,548.9,548.6,531.8,526.9,531.8z"/>
	<path fill="#495965" d="M549.6,551h-46.3c-0.6,0-1.2-0.3-1.6-0.7s-0.6-1-0.5-1.6c0-0.2,2.4-19,25.7-19c23.5,0,24.8,18.9,24.8,19.1
		c0,0.6-0.2,1.1-0.6,1.6C550.7,550.8,550.1,551,549.6,551z M505.8,546.8H547c-1.1-4.2-5.2-12.9-20.2-12.9
		C511.8,533.9,507.2,542.5,505.8,546.8z"/>
	<path fill="#495965" d="M526.9,549.4c-0.3,0-0.5-0.2-0.5-0.5v-17.1c0-0.3,0.2-0.5,0.5-0.5s0.5,0.2,0.5,0.5v17.1
		C527.4,549.2,527.2,549.4,526.9,549.4z"/>
	<path fill="#E9E9EB" d="M81.7,228.5c0-8.1-6.6-14.6-14.6-14.6c-8.1,0-14.6,6.6-14.6,14.6c0,8.1,6.6,14.7,14.6,14.7
		C75.2,243.1,81.7,236.6,81.7,228.5z"/>
	<path fill="#E34094" d="M67.1,245c-9.1,0-16.5-7.4-16.5-16.5S58,212,67.1,212s16.5,7.4,16.5,16.5C83.5,237.6,76.1,245,67.1,245z
		 M67.1,215.7c-7.1,0-12.8,5.8-12.8,12.8c0,7.1,5.8,12.8,12.8,12.8s12.8-5.8,12.8-12.8C79.9,221.4,74.1,215.7,67.1,215.7z"/>
	<path fill="#E9E9EB" d="M100.4,781.7c0-18.4-14.9-33.3-33.3-33.3s-33.3,14.9-33.3,33.3"/>
	<path fill="#495965" d="M100.4,783.5c-1,0-1.8-0.8-1.8-1.8c0-17.4-14.1-31.5-31.5-31.5s-31.5,14.1-31.5,31.5c0,1-0.8,1.8-1.8,1.8
		s-1.8-0.8-1.8-1.8c0-19.4,15.8-35.1,35.1-35.1s35.1,15.8,35.1,35.1C102.2,782.7,101.4,783.5,100.4,783.5z"/>
	<rect x="21.5" y="782" fill="#E9E9EB" width="91.2" height="11.6"/>
	<path fill="#495965" d="M112.7,795.4H21.5c-1,0-1.8-0.8-1.8-1.8V782c0-1,0.8-1.8,1.8-1.8h91.2c1,0,1.8,0.8,1.8,1.8v11.6
		C114.5,794.6,113.7,795.4,112.7,795.4z M23.3,791.8h87.6v-7.9H23.3V791.8z"/>
	<path fill="#495965" d="M67.1,750.2c-1,0-1.8-0.8-1.8-1.8V289.5c0-1,0.8-1.8,1.8-1.8s1.8,0.8,1.8,1.8v458.9
		C68.9,749.4,68.1,750.2,67.1,750.2z"/>
	<path fill="#E9E9EB" d="M82,266c0,11.2-9.4,23.5-15,23.5S52,277.2,52,266"/>
	<path fill="#495965" d="M67.1,291.3c-6.8,0-16.8-13.3-16.8-25.3c0-1,0.8-1.8,1.8-1.8s1.8,0.8,1.8,1.8c0,10.8,9,21.7,13.1,21.7
		s13.1-10.9,13.1-21.7c0-1,0.8-1.8,1.8-1.8s1.9,0.8,1.9,1.8C83.8,278,73.8,291.3,67.1,291.3z"/>
	<path fill="#E9E9EB" d="M1.8,225.5c0,0,13.9,25.1,37.5,36.4c10,4.8,18.4,6.3,27.8,6.3s17.7-1.5,27.8-6.3
		c23.6-11.3,37.5-36.4,37.5-36.4H1.8z"/>
	<path fill="#495965" d="M67.1,270c-10.6,0-19.2-1.9-28.6-6.4c-23.8-11.4-37.7-36.1-38.3-37.1c-0.3-0.6-0.3-1.3,0-1.8
		c0.3-0.6,0.9-0.9,1.6-0.9h130.5c0.6,0,1.2,0.3,1.6,0.9c0.3,0.6,0.3,1.2,0,1.8c-0.6,1-14.4,25.7-38.3,37.1
		C86.2,268,77.7,270,67.1,270z M5.1,227.3c4.3,6.7,16.7,24.2,35,32.9c8.9,4.3,17,6.1,27,6.1s18.1-1.8,27-6.1
		c18.3-8.8,30.7-26.2,35-32.9L5.1,227.3L5.1,227.3z"/>
	<path fill="#495965" d="M127.7,233H6.5c-0.3,0-0.5-0.2-0.5-0.5s0.2-0.5,0.5-0.5h121.2c0.3,0,0.5,0.2,0.5,0.5S127.9,233,127.7,233z"
		/>
</g>
</svg>
