<?xml version="1.0" encoding="utf-8"?>
<!-- Generator: Adobe Illustrator 22.1.0, SVG Export Plug-In . SVG Version: 6.00 Build 0)  -->
<svg version="1.1" id="Layer_1" xmlns="http://www.w3.org/2000/svg" xmlns:xlink="http://www.w3.org/1999/xlink" x="0px" y="0px"
	 width="615px" height="610px" viewBox="0 0 615 610" enable-background="new 0 0 615 610" xml:space="preserve">
<g>
	<rect x="205.3" y="81" fill="#E9E9EB" width="110.3" height="136"/>
	<path fill="#495965" d="M315.6,218.7H205.3c-0.9,0-1.6-0.7-1.6-1.6V81c0-0.9,0.7-1.6,1.6-1.6h110.3c0.9,0,1.6,0.7,1.6,1.6v136
		C317.2,218,316.5,218.7,315.6,218.7z M206.9,215.4H314V82.7H206.9V215.4z"/>
	<path fill="#E34094" d="M305.8,207.6h-90.7c-0.2,0-0.4-0.2-0.4-0.4V90.8c0-0.2,0.2-0.4,0.4-0.4h90.7c0.2,0,0.4,0.2,0.4,0.4v116.4
		C306.2,207.5,306,207.6,305.8,207.6z M215.5,206.8h89.9V91.2h-89.9V206.8z"/>
	<rect x="238.4" y="192.9" fill="#E9E9EB" width="138.9" height="24.1"/>
	<path fill="#495965" d="M377.3,218.7H238.4c-0.9,0-1.6-0.7-1.6-1.6V193c0-0.9,0.7-1.6,1.6-1.6h138.9c0.9,0,1.6,0.7,1.6,1.6v24.1
		C378.9,218,378.2,218.7,377.3,218.7z M240,215.4h135.7v-20.9H240.1L240,215.4L240,215.4z"/>
	<rect x="227.2" y="168.8" fill="#E9E9EB" width="142" height="24.1"/>
	<path fill="#495965" d="M369.3,194.5h-142c-0.9,0-1.6-0.7-1.6-1.6v-24.1c0-0.9,0.7-1.6,1.6-1.6h142c0.9,0,1.6,0.7,1.6,1.6v24.1
		C370.9,193.8,370.2,194.5,369.3,194.5z M228.9,191.3h138.8v-20.9H228.9V191.3z"/>
	<rect x="246.2" y="144.6" fill="#E9E9EB" width="138.9" height="24.1"/>
	<path fill="#495965" d="M385.1,170.4H246.2c-0.9,0-1.6-0.7-1.6-1.6v-24.1c0-0.9,0.7-1.6,1.6-1.6h138.9c0.9,0,1.6,0.7,1.6,1.6v24.1
		C386.7,169.7,386,170.4,385.1,170.4z M247.8,167.1h135.6v-20.9H247.8V167.1z"/>
	<path fill="#495965" d="M377.3,163h-35.4c-0.2,0-0.4-0.2-0.4-0.4v-11.8c0-0.2,0.2-0.4,0.4-0.4h35.4c0.2,0,0.4,0.2,0.4,0.4v11.8
		C377.7,162.8,377.5,163,377.3,163z M342.3,162.2h34.6v-11h-34.6V162.2z"/>
	<path fill="#E34094" d="M292,187h-13c-0.2,0-0.4-0.2-0.4-0.4v-11.5c0-0.2,0.2-0.4,0.4-0.4h13c0.2,0,0.4,0.2,0.4,0.4v11.5
		C292.4,186.8,292.2,187,292,187z M279.4,186.2h12.2v-10.7h-12.2V186.2z"/>
	<path fill="#495965" d="M334.7,169.2c-0.2,0-0.4-0.2-0.4-0.4v-24.1c0-0.2,0.2-0.4,0.4-0.4s0.4,0.2,0.4,0.4v24.1
		C335.1,169,334.9,169.2,334.7,169.2z"/>
	<path fill="#495965" d="M325,169.2c-0.2,0-0.4-0.2-0.4-0.4v-24.1c0-0.2,0.2-0.4,0.4-0.4s0.4,0.2,0.4,0.4v24.1
		C325.4,169,325.2,169.2,325,169.2z"/>
	<path fill="#495965" d="M354.1,217.5c-0.2,0-0.4-0.2-0.4-0.4V193c0-0.2,0.2-0.4,0.4-0.4s0.4,0.2,0.4,0.4v24.1
		C354.5,217.3,354.3,217.5,354.1,217.5z"/>
	<path fill="#495965" d="M344.4,217.5c-0.2,0-0.4-0.2-0.4-0.4V193c0-0.2,0.2-0.4,0.4-0.4s0.4,0.2,0.4,0.4v24.1
		C344.8,217.3,344.6,217.5,344.4,217.5z"/>
	<path fill="#495965" d="M363.3,217.5c-0.2,0-0.4-0.2-0.4-0.4V193c0-0.2,0.2-0.4,0.4-0.4s0.4,0.2,0.4,0.4v24.1
		C363.7,217.3,363.5,217.5,363.3,217.5z"/>
	<path fill="#E34094" d="M270.5,178h-32.1c-0.2,0-0.4-0.2-0.4-0.4s0.2-0.4,0.4-0.4h32.1c0.2,0,0.4,0.2,0.4,0.4S270.8,178,270.5,178z
		"/>
	<path fill="#E34094" d="M270.5,184.4h-32.1c-0.2,0-0.4-0.2-0.4-0.4s0.2-0.4,0.4-0.4h32.1c0.2,0,0.4,0.2,0.4,0.4
		S270.8,184.4,270.5,184.4z"/>
	<path fill="#495965" d="M400,382h-23.1c-0.9,0-1.6-0.7-1.6-1.6V298c0-0.9,0.7-1.6,1.6-1.6H400c0.9,0,1.6,0.7,1.6,1.6v82.4
		C401.6,381.3,400.9,382,400,382z M378.5,378.7h19.8v-79.1h-19.8V378.7z"/>
	<path fill="#495965" d="M400.2,310.8h-23.3c-0.2,0-0.4-0.2-0.4-0.4c0-0.2,0.2-0.4,0.4-0.4h23.3c0.2,0,0.4,0.2,0.4,0.4
		C400.6,310.6,400.4,310.8,400.2,310.8z"/>
	<path fill="#495965" d="M400.2,319.2h-23.3c-0.2,0-0.4-0.2-0.4-0.4s0.2-0.4,0.4-0.4h23.3c0.2,0,0.4,0.2,0.4,0.4
		S400.4,319.2,400.2,319.2z"/>
	<path fill="#495965" d="M436.3,382h-23.1c-0.9,0-1.6-0.7-1.6-1.6V298c0-0.9,0.7-1.6,1.6-1.6h23.1c0.9,0,1.6,0.7,1.6,1.6v82.4
		C437.9,381.3,437.2,382,436.3,382z M414.8,378.7h19.8v-79.1h-19.8V378.7z"/>
	<path fill="#495965" d="M436.3,368.3H413c-0.2,0-0.4-0.2-0.4-0.4s0.2-0.4,0.4-0.4h23.3c0.2,0,0.4,0.2,0.4,0.4
		S436.5,368.3,436.3,368.3z"/>
	<path fill="#495965" d="M436.3,359.9H413c-0.2,0-0.4-0.2-0.4-0.4s0.2-0.4,0.4-0.4h23.3c0.2,0,0.4,0.2,0.4,0.4
		S436.5,359.9,436.3,359.9z"/>
	<path fill="#495965" d="M413.1,382H400c-0.9,0-1.6-0.7-1.6-1.6V287c0-0.9,0.7-1.6,1.6-1.6h13.1c0.9,0,1.6,0.7,1.6,1.6v93.4
		C414.7,381.3,414,382,413.1,382z M401.6,378.7h9.8v-90.1h-9.8V378.7z"/>
	<path fill="#495965" d="M413,361.5h-13c-0.2,0-0.4-0.2-0.4-0.4s0.2-0.4,0.4-0.4h13c0.2,0,0.4,0.2,0.4,0.4S413.2,361.5,413,361.5z"
		/>
	<path fill="#495965" d="M413,355.2h-13c-0.2,0-0.4-0.2-0.4-0.4s0.2-0.4,0.4-0.4h13c0.2,0,0.4,0.2,0.4,0.4S413.2,355.2,413,355.2z"
		/>
	<path fill="#495965" d="M413,348.3h-13c-0.2,0-0.4-0.2-0.4-0.4s0.2-0.4,0.4-0.4h13c0.2,0,0.4,0.2,0.4,0.4S413.2,348.3,413,348.3z"
		/>
	<path fill="#495965" d="M449.4,382h-13.1c-0.9,0-1.6-0.7-1.6-1.6v-98c0-0.9,0.7-1.6,1.6-1.6h13.1c0.9,0,1.6,0.7,1.6,1.6v98
		C451,381.3,450.3,382,449.4,382z M437.9,378.7h9.8V284h-9.8V378.7z"/>
	<path fill="#495965" d="M449.3,360.5h-13c-0.2,0-0.4-0.2-0.4-0.4s0.2-0.4,0.4-0.4h13c0.2,0,0.4,0.2,0.4,0.4
		S449.5,360.5,449.3,360.5z"/>
	<path fill="#495965" d="M449.3,353.9h-13c-0.2,0-0.4-0.2-0.4-0.4s0.2-0.4,0.4-0.4h13c0.2,0,0.4,0.2,0.4,0.4
		S449.5,353.9,449.3,353.9z"/>
	<path fill="#495965" d="M449.3,346.7h-13c-0.2,0-0.4-0.2-0.4-0.4s0.2-0.4,0.4-0.4h13c0.2,0,0.4,0.2,0.4,0.4
		S449.5,346.7,449.3,346.7z"/>
	<path fill="#495965" d="M363.4,382c-0.1,0-0.2,0-0.2,0l-13-1.9c-0.9-0.1-1.5-1-1.4-1.9l12.7-86.7c0.1-0.4,0.3-0.8,0.6-1.1
		c0.4-0.3,0.8-0.4,1.2-0.3l13,1.9c0.9,0.1,1.5,1,1.4,1.9L365,380.6c-0.1,0.4-0.3,0.8-0.6,1.1C364.1,381.9,363.7,382,363.4,382z
		 M352.3,377.1l9.7,1.4l12.2-83.4l-9.7-1.4L352.3,377.1z"/>
	<path fill="#E34094" d="M364.2,360.5L364.2,360.5l-8.9-1.3c-0.2,0-0.3-0.2-0.2-0.3c0-0.2,0.2-0.2,0.3-0.2l8.8,1.3
		c0.2,0,0.3,0.2,0.2,0.3C364.4,360.4,364.3,360.5,364.2,360.5z"/>
	<path fill="#E34094" d="M364.8,356.5C364.8,356.5,364.7,356.5,364.8,356.5l-8.9-1.3c-0.2,0-0.3-0.2-0.2-0.3c0-0.2,0.2-0.2,0.3-0.2
		l8.8,1.3c0.2,0,0.3,0.2,0.2,0.3C365,356.4,364.9,356.5,364.8,356.5z"/>
	<path fill="#E34094" d="M365.4,352.1L365.4,352.1l-8.9-1.3c-0.2,0-0.3-0.2-0.2-0.3c0-0.2,0.2-0.2,0.3-0.2l8.8,1.3
		c0.2,0,0.3,0.2,0.2,0.3C365.7,352,365.6,352.1,365.4,352.1z"/>
	<path fill="#495965" d="M464.8,382h-15.5c-0.9,0-1.6-0.7-1.6-1.6V272.5c0-0.9,0.7-1.6,1.6-1.6h15.5c0.9,0,1.6,0.7,1.6,1.6v107.8
		C466.4,381.3,465.7,382,464.8,382z M450.9,378.7h12.2V274.2h-12.2V378.7z"/>
	<path fill="#495965" d="M464.8,292.2h-15.4c-0.2,0-0.4-0.2-0.4-0.4c0-0.2,0.2-0.4,0.4-0.4h15.4c0.2,0,0.4,0.2,0.4,0.4
		S465,292.2,464.8,292.2z"/>
	<path fill="#495965" d="M464.8,301.7h-15.4c-0.2,0-0.4-0.2-0.4-0.4c0-0.2,0.2-0.4,0.4-0.4h15.4c0.2,0,0.4,0.2,0.4,0.4
		C465.2,301.6,465,301.7,464.8,301.7z"/>
	<path fill="#495965" d="M464.8,310.8h-15.4c-0.2,0-0.4-0.2-0.4-0.4s0.2-0.4,0.4-0.4h15.4c0.2,0,0.4,0.2,0.4,0.4
		S465,310.8,464.8,310.8z"/>
	<path fill="#495965" d="M549.9,312.6h-85.1c-0.9,0-1.6-0.7-1.6-1.6v-20c0-0.9,0.7-1.6,1.6-1.6h85.1c0.9,0,1.6,0.7,1.6,1.6v20
		C551.5,311.9,550.8,312.6,549.9,312.6z M466.4,309.3h81.8v-16.7h-81.8L466.4,309.3L466.4,309.3z"/>
	<path fill="#495965" d="M537,311.5c-0.2,0-0.4-0.2-0.4-0.4V291c0-0.2,0.2-0.4,0.4-0.4s0.4,0.2,0.4,0.4v20.1
		C537.4,311.4,537.2,311.5,537,311.5z"/>
	<path fill="#495965" d="M528.3,311.5c-0.2,0-0.4-0.2-0.4-0.4V291c0-0.2,0.2-0.4,0.4-0.4s0.4,0.2,0.4,0.4v20.1
		C528.7,311.4,528.5,311.5,528.3,311.5z"/>
	<path fill="#495965" d="M549.9,357.4h-85.1c-0.9,0-1.6-0.7-1.6-1.6v-20c0-0.9,0.7-1.6,1.6-1.6h85.1c0.9,0,1.6,0.7,1.6,1.6v20
		C551.5,356.7,550.8,357.4,549.9,357.4z M466.4,354.1h81.8v-16.7h-81.8L466.4,354.1L466.4,354.1z"/>
	<path fill="#495965" d="M477.6,356.2c-0.2,0-0.4-0.2-0.4-0.4v-20.1c0-0.2,0.2-0.4,0.4-0.4s0.4,0.2,0.4,0.4v20.1
		C478,356,477.9,356.2,477.6,356.2z"/>
	<path fill="#495965" d="M486.3,356.2c-0.2,0-0.4-0.2-0.4-0.4v-20.1c0-0.2,0.2-0.4,0.4-0.4s0.4,0.2,0.4,0.4v20.1
		C486.7,356,486.6,356.2,486.3,356.2z"/>
	<path fill="#495965" d="M557.3,337.4h-92.5c-0.9,0-1.6-0.7-1.6-1.6v-13.4c0-0.9,0.7-1.6,1.6-1.6h92.5c0.9,0,1.6,0.7,1.6,1.6v13.4
		C558.9,336.6,558.2,337.4,557.3,337.4z M466.4,334.1h89.2V324h-89.2L466.4,334.1L466.4,334.1z"/>
	<path fill="#495965" d="M540.8,336.1c-0.2,0-0.4-0.2-0.4-0.4v-13.3c0-0.2,0.2-0.4,0.4-0.4s0.4,0.2,0.4,0.4v13.3
		C541.2,335.9,541,336.1,540.8,336.1z"/>
	<path fill="#495965" d="M524.8,336.1c-0.2,0-0.4-0.2-0.4-0.4v-13.3c0-0.2,0.2-0.4,0.4-0.4s0.4,0.2,0.4,0.4v13.3
		C525.2,335.9,525,336.1,524.8,336.1z"/>
	<path fill="#495965" d="M561.2,324h-96.4c-0.9,0-1.6-0.7-1.6-1.6v-11.3c0-0.9,0.7-1.6,1.6-1.6h96.4c0.9,0,1.6,0.7,1.6,1.6v11.3
		C562.8,323.3,562.1,324,561.2,324z M466.4,320.8h93.1v-8h-93.1V320.8z"/>
	<path fill="#495965" d="M484.7,322.7c-0.2,0-0.4-0.2-0.4-0.4v-11.2c0-0.2,0.2-0.4,0.4-0.4s0.4,0.2,0.4,0.4v11.2
		C485.1,322.6,484.9,322.7,484.7,322.7z"/>
	<path fill="#495965" d="M491.2,322.7c-0.2,0-0.4-0.2-0.4-0.4v-11.2c0-0.2,0.2-0.4,0.4-0.4s0.4,0.2,0.4,0.4v11.2
		C491.6,322.6,491.4,322.7,491.2,322.7z"/>
	<path fill="#495965" d="M498.3,322.7c-0.2,0-0.4-0.2-0.4-0.4v-11.2c0-0.2,0.2-0.4,0.4-0.4c0.2,0,0.4,0.2,0.4,0.4v11.2
		C498.7,322.6,498.5,322.7,498.3,322.7z"/>
	<path fill="#495965" d="M574.4,368.7H464.8c-0.9,0-1.6-0.7-1.6-1.6v-11.3c0-0.9,0.7-1.6,1.6-1.6h109.6c0.9,0,1.6,0.7,1.6,1.6V367
		C576.1,367.9,575.3,368.7,574.4,368.7z M466.4,365.4h106.3v-8H466.4V365.4z"/>
	<path fill="#495965" d="M487.5,367.4c-0.2,0-0.4-0.2-0.4-0.4v-11.3c0-0.2,0.2-0.4,0.4-0.4s0.4,0.2,0.4,0.4V367
		C487.9,367.2,487.7,367.4,487.5,367.4z"/>
	<path fill="#495965" d="M494.8,367.4c-0.2,0-0.4-0.2-0.4-0.4v-11.3c0-0.2,0.2-0.4,0.4-0.4c0.2,0,0.4,0.2,0.4,0.4V367
		C495.2,367.2,495,367.4,494.8,367.4z"/>
	<path fill="#495965" d="M502.9,367.4c-0.2,0-0.4-0.2-0.4-0.4v-11.3c0-0.2,0.2-0.4,0.4-0.4c0.2,0,0.4,0.2,0.4,0.4V367
		C503.3,367.2,503.1,367.4,502.9,367.4z"/>
	<path fill="#495965" d="M588.5,382H464.8c-0.9,0-1.6-0.7-1.6-1.6V367c0-0.9,0.7-1.6,1.6-1.6h123.7c0.9,0,1.6,0.7,1.6,1.6v13.4
		C590.2,381.3,589.4,382,588.5,382z M466.4,378.7h120.5v-10.1H466.4V378.7z"/>
	<path fill="#495965" d="M566.4,380.8c-0.2,0-0.4-0.2-0.4-0.4V367c0-0.2,0.2-0.4,0.4-0.4s0.4,0.2,0.4,0.4v13.3
		C566.9,380.6,566.7,380.8,566.4,380.8z"/>
	<path fill="#495965" d="M555.5,380.8c-0.2,0-0.4-0.2-0.4-0.4V367c0-0.2,0.2-0.4,0.4-0.4s0.4,0.2,0.4,0.4v13.3
		C555.9,380.6,555.7,380.8,555.5,380.8z"/>
	<path fill="#495965" d="M545.1,380.7c-0.2,0-0.4-0.2-0.4-0.4V367c0-0.2,0.2-0.4,0.4-0.4s0.4,0.2,0.4,0.4v13.3
		C545.5,380.6,545.3,380.7,545.1,380.7z"/>
	<path fill="#495965" d="M421.4,233.6h-411c-0.9,0-1.6-0.7-1.6-1.6v-14.4c0-0.9,0.7-1.6,1.6-1.6h410.9c0.9,0,1.6,0.7,1.6,1.6V232
		C423,232.8,422.3,233.6,421.4,233.6z M12.1,230.3h407.6v-11.1H12.1V230.3z"/>
	<path fill="#495965" d="M612.5,396.4H201.6c-0.9,0-1.6-0.7-1.6-1.6v-14.4c0-0.9,0.7-1.6,1.6-1.6h410.9c0.9,0,1.6,0.7,1.6,1.6v14.4
		C614.2,395.6,613.5,396.4,612.5,396.4z M203.2,393.1h407.7V382H203.2V393.1z"/>
	<path fill="#495965" d="M405,262.9c-0.9,0-1.6-0.7-1.6-1.6v-29.4c0-0.9,0.7-1.6,1.6-1.6s1.6,0.7,1.6,1.6v29.4
		C406.6,262.2,405.9,262.9,405,262.9z"/>
	<path fill="#495965" d="M596.1,427c-0.9,0-1.6-0.7-1.6-1.6V396c0-0.9,0.7-1.6,1.6-1.6s1.6,0.7,1.6,1.6v29.4
		C597.8,426.2,597,427,596.1,427z"/>
	<path fill="#495965" d="M314,346.5c-9.9,0-17.9-10.7-17.9-23.9s8.1-23.9,17.9-23.9c9.9,0,18,10.7,18,23.9S323.9,346.5,314,346.5z
		 M314,301.9c-8.1,0-14.7,9.3-14.7,20.6s6.6,20.6,14.7,20.6s14.7-9.3,14.7-20.6S322.1,301.9,314,301.9z"/>
	<polygon fill="#E9E9EB" points="328.8,380.4 338.5,338.8 289.6,338.8 299.2,380.4 	"/>
	<path fill="#495965" d="M328.8,382h-29.5c-0.8,0-1.4-0.5-1.6-1.3l-9.7-41.5c-0.1-0.5,0-1,0.3-1.4s0.8-0.6,1.3-0.6h48.9
		c0.5,0,1,0.2,1.3,0.6s0.4,0.9,0.3,1.4l-9.7,41.5C330.2,381.5,329.5,382,328.8,382z M300.5,378.7h26.9l8.9-38.3h-44.8L300.5,378.7z"
		/>
	<path fill="#495965" d="M309.6,339.2c-0.2,0-0.3-0.1-0.4-0.3c-7.9-23.6,4.3-38.8,4.5-39c0.1-0.2,0.4-0.2,0.6-0.1s0.2,0.4,0.1,0.6
		c-0.1,0.1-12.1,15-4.3,38.2c0.1,0.2,0,0.4-0.3,0.5C309.7,339.2,309.7,339.2,309.6,339.2z"/>
	<path fill="#495965" d="M318.4,339.2L318.4,339.2c-0.3-0.1-0.4-0.3-0.4-0.5c7.8-23.2-4.2-38-4.3-38.2c-0.1-0.2-0.1-0.4,0.1-0.6
		c0.2-0.1,0.4-0.1,0.6,0.1c0.1,0.2,12.4,15.3,4.5,39C318.7,339.1,318.6,339.2,318.4,339.2z"/>
	<path fill="#495965" d="M314,300.7c-0.2,0-0.4-0.2-0.4-0.4v-6.2c0-0.2,0.2-0.4,0.4-0.4s0.4,0.2,0.4,0.4v6.2
		C314.4,300.5,314.2,300.7,314,300.7z"/>
	<path fill="#495965" d="M314,300.7c-0.1,0-0.2-0.1-0.3-0.1l-3.9-4.7c-0.1-0.2-0.1-0.4,0.1-0.6c0.2-0.1,0.4-0.1,0.6,0.1l3.9,4.7
		c0.1,0.2,0.1,0.4-0.1,0.6C314.2,300.6,314.1,300.7,314,300.7z"/>
	<path fill="#495965" d="M314,300.7c-0.1,0-0.2,0-0.3-0.1c-0.2-0.1-0.2-0.4-0.1-0.6l3.9-4.7c0.1-0.2,0.4-0.2,0.6-0.1
		s0.2,0.4,0.1,0.6l-3.9,4.7C314.2,300.6,314.1,300.7,314,300.7z"/>
	<path fill="#495965" d="M301.3,307.3c-0.1,0-0.1,0-0.2-0.1l-5.3-3.2c-0.2-0.1-0.3-0.4-0.1-0.6c0.1-0.2,0.4-0.3,0.6-0.1l5.3,3.2
		c0.2,0.1,0.3,0.4,0.1,0.6C301.6,307.3,301.5,307.3,301.3,307.3z"/>
	<path fill="#495965" d="M295.3,308.3c-0.2,0-0.4-0.1-0.4-0.3c0-0.2,0.1-0.4,0.3-0.5l6-0.9c0.2-0.1,0.4,0.1,0.5,0.3
		c0,0.2-0.1,0.4-0.3,0.5L295.3,308.3C295.4,308.3,295.3,308.3,295.3,308.3z"/>
	<path fill="#495965" d="M301.3,307.3c-0.2,0-0.3-0.1-0.4-0.3l-2-5.7c-0.1-0.2,0-0.4,0.2-0.5s0.4,0,0.5,0.2l2,5.7
		C301.7,306.9,301.6,307.1,301.3,307.3C301.4,307.3,301.4,307.3,301.3,307.3z"/>
	<path fill="#495965" d="M307.3,319.8L307.3,319.8l-5.3-0.5c-0.2,0-0.4-0.2-0.4-0.4c0-0.2,0.2-0.4,0.4-0.4l5.3,0.5
		c0.2,0,0.4,0.2,0.4,0.4C307.7,319.6,307.5,319.8,307.3,319.8z"/>
	<path fill="#495965" d="M303,322.7c-0.1,0-0.3-0.1-0.3-0.2c-0.1-0.2-0.1-0.4,0.1-0.6l4.3-3c0.2-0.1,0.4-0.1,0.6,0.1
		c0.1,0.2,0.1,0.4-0.1,0.6l-4.3,3C303.2,322.7,303.1,322.7,303,322.7z"/>
	<path fill="#495965" d="M307.3,319.8c-0.1,0-0.2,0-0.3-0.1l-3.7-3.7c-0.2-0.2-0.2-0.4,0-0.6s0.4-0.2,0.6,0l3.7,3.7
		c0.2,0.2,0.2,0.4,0,0.6C307.5,319.7,307.4,319.8,307.3,319.8z"/>
	<path fill="#495965" d="M291.6,327.1c-0.2,0-0.4-0.1-0.4-0.3c0-0.2,0.1-0.4,0.3-0.5l6.1-1.3c0.2,0,0.4,0.1,0.5,0.3
		c0,0.2-0.1,0.4-0.3,0.5L291.6,327.1C291.7,327.1,291.7,327.1,291.6,327.1z"/>
	<path fill="#495965" d="M293.9,330.6c-0.1,0-0.2,0-0.3-0.1c-0.2-0.1-0.2-0.4-0.1-0.6l3.8-4.8c0.1-0.2,0.4-0.2,0.6-0.1
		s0.2,0.4,0.1,0.6l-3.8,4.8C294.1,330.5,294,330.6,293.9,330.6z"/>
	<path fill="#495965" d="M297.7,325.8c-0.1,0-0.1,0-0.2,0l-5.4-2.9c-0.2-0.1-0.3-0.4-0.2-0.6c0.1-0.2,0.4-0.3,0.6-0.2l5.4,2.9
		c0.2,0.1,0.3,0.4,0.2,0.6C298,325.7,297.8,325.8,297.7,325.8z"/>
	<path fill="#495965" d="M326.7,307.3c-0.1,0-0.3-0.1-0.4-0.2c-0.1-0.2-0.1-0.4,0.1-0.6l5.3-3.2c0.2-0.1,0.4-0.1,0.6,0.1
		c0.1,0.2,0.1,0.4-0.1,0.6l-5.3,3.2C326.8,307.3,326.8,307.3,326.7,307.3z"/>
	<path fill="#495965" d="M332.7,308.3L332.7,308.3l-6.1-1c-0.2,0-0.4-0.2-0.3-0.5c0-0.2,0.2-0.4,0.5-0.3l6,0.9
		c0.2,0,0.4,0.2,0.3,0.5C333.1,308.1,332.9,308.3,332.7,308.3z"/>
	<path fill="#495965" d="M326.7,307.3L326.7,307.3c-0.3-0.1-0.4-0.3-0.3-0.5l2-5.7c0.1-0.2,0.3-0.3,0.5-0.2c0.2,0.1,0.3,0.3,0.2,0.5
		l-2,5.7C327,307.2,326.9,307.3,326.7,307.3z"/>
	<path fill="#495965" d="M320.7,319.8c-0.2,0-0.4-0.2-0.4-0.4c0-0.2,0.1-0.4,0.4-0.4l5.3-0.5l0,0c0.2,0,0.4,0.2,0.4,0.4
		c0,0.2-0.1,0.4-0.4,0.4L320.7,319.8C320.8,319.8,320.7,319.8,320.7,319.8z"/>
	<path fill="#495965" d="M325,322.7c-0.1,0-0.2,0-0.2-0.1l-4.3-3c-0.2-0.1-0.2-0.4-0.1-0.6s0.4-0.2,0.6-0.1l4.3,3
		c0.2,0.1,0.2,0.4,0.1,0.6S325.1,322.7,325,322.7z"/>
	<path fill="#495965" d="M320.7,319.8c-0.1,0-0.2,0-0.3-0.1c-0.2-0.2-0.2-0.4,0-0.6l3.7-3.7c0.2-0.2,0.4-0.2,0.6,0s0.2,0.4,0,0.6
		l-3.7,3.7C320.9,319.7,320.8,319.8,320.7,319.8z"/>
	<path fill="#495965" d="M336.4,327.1C336.4,327.1,336.3,327.1,336.4,327.1l-6.1-1.3c-0.2,0-0.4-0.3-0.3-0.5c0-0.2,0.2-0.4,0.5-0.3
		l6.1,1.3c0.2,0,0.4,0.3,0.3,0.5C336.7,326.9,336.6,327.1,336.4,327.1z"/>
	<path fill="#495965" d="M334.1,330.6c-0.1,0-0.2-0.1-0.3-0.2l-3.8-4.8c-0.1-0.2-0.1-0.4,0.1-0.6c0.2-0.1,0.4-0.1,0.6,0.1l3.8,4.8
		c0.1,0.2,0.1,0.4-0.1,0.6C334.3,330.6,334.2,330.6,334.1,330.6z"/>
	<path fill="#495965" d="M330.3,325.8c-0.1,0-0.3-0.1-0.4-0.2c-0.1-0.2,0-0.4,0.2-0.6l5.4-2.9c0.2-0.1,0.4,0,0.6,0.2
		c0.1,0.2,0,0.4-0.2,0.6l-5.4,2.9C330.5,325.8,330.4,325.8,330.3,325.8z"/>
	<path fill="#E9E9EB" d="M166,125.1c4.6-26.5,2.1-49.3,2.1-49.3s-10,20.1-14.6,46.5c-4.6,26.5-2.1,49.3-2.1,49.3
		S161.4,151.5,166,125.1z"/>
	<path fill="#495965" d="M151.5,173.2c-0.1,0-0.2,0-0.3,0c-0.7-0.1-1.3-0.7-1.3-1.4c0-0.2-2.5-23.4,2.1-49.8s14.6-46.8,14.7-47
		c0.3-0.7,1-1,1.8-0.9c0.7,0.1,1.3,0.7,1.3,1.4c0,0.2,2.5,23.4-2.1,49.8l0,0c-4.6,26.4-14.6,46.8-14.7,47
		C152.6,172.9,152.1,173.2,151.5,173.2z M167,82.4c-3.3,7.8-8.8,22.6-11.8,40.1c-3.1,17.6-2.9,33.8-2.5,42.4
		c3.3-7.8,8.7-22.6,11.8-40.1C167.5,107.1,167.4,91,167,82.4z M166.1,125.1L166.1,125.1L166.1,125.1z"/>
	<path fill="#E9E9EB" d="M146.6,130.7c-6.9-25.8-18.5-44.7-18.5-44.7s-0.5,23,6.3,48.8c6.9,25.8,18.5,44.7,18.5,44.7
		S153.5,156.5,146.6,130.7z"/>
	<path fill="#495965" d="M153,181.1c-0.6,0-1.1-0.3-1.4-0.8c-0.1-0.2-11.9-19.4-18.7-45.1c-6.8-25.8-6.4-49.1-6.4-49.3
		c0-0.7,0.5-1.4,1.2-1.5c0.7-0.2,1.4,0.1,1.8,0.7c0.1,0.2,11.9,19.4,18.7,45.2l0,0c6.8,25.8,6.4,49.1,6.4,49.3
		c0,0.7-0.5,1.4-1.2,1.5C153.2,181.1,153.1,181.1,153,181.1z M129.9,92.4c0.3,8.6,1.6,24.7,6.2,42c4.5,17.1,11.3,31.2,15.2,38.7
		c-0.3-8.6-1.6-24.7-6.2-41.9C140.5,114,133.8,99.8,129.9,92.4z"/>
	<path fill="#E9E9EB" d="M136.6,128.7c-13.3-22.4-29.3-36.6-29.3-36.6s5.5,22.2,18.8,44.6s29.4,36.5,29.4,36.5
		S149.9,151.1,136.6,128.7z"/>
	<path fill="#495965" d="M155.4,174.9c-0.4,0-0.8-0.1-1.1-0.4c-0.2-0.1-16.4-14.6-29.7-36.9c-13.3-22.4-18.9-44.8-19-45
		c-0.2-0.7,0.1-1.4,0.7-1.8s1.4-0.3,1.9,0.2c0.2,0.1,16.4,14.6,29.7,37l0,0c13.3,22.3,18.9,44.8,19,45c0.2,0.7-0.1,1.4-0.7,1.8
		C155.9,174.8,155.6,174.9,155.4,174.9z M110.5,97.6c2.5,8,7.9,23.2,16.9,38.3c8.8,14.9,19,26.2,24.7,31.9
		c-2.5-8-7.9-23.2-16.9-38.3l0,0C126.3,114.7,116.2,103.4,110.5,97.6z"/>
	<path fill="#E9E9EB" d="M168.3,145.3c11.1-23.9,14.4-46.6,14.4-46.6s-14.6,16-25.7,39.9s-14.4,46.6-14.4,46.6
		S157.2,169.1,168.3,145.3z"/>
	<path fill="#495965" d="M142.6,186.8c-0.2,0-0.5-0.1-0.7-0.2c-0.7-0.3-1-1-0.9-1.7c0-0.2,3.5-23.2,14.6-47s25.8-40.2,26-40.3
		c0.5-0.5,1.3-0.7,1.9-0.4c0.7,0.3,1,1,0.9,1.7c0,0.2-3.5,23.2-14.6,47l0,0c-11.1,23.8-25.8,40.2-26,40.3
		C143.5,186.6,143.1,186.8,142.6,186.8z M180,104.5c-5.1,6.4-14.1,18.9-21.4,34.7c-7.5,16.1-11.4,31.7-13.1,40
		c5.1-6.4,14.1-18.9,21.4-34.7C174.3,128.5,178.2,112.8,180,104.5z M168.3,145.3L168.3,145.3L168.3,145.3z"/>
	<path fill="#E9E9EB" d="M155.4,118.4c0-27-6.4-48.8-6.4-48.8s-6.4,21.9-6.4,48.8c0,27,6.4,48.8,6.4,48.8S155.4,145.4,155.4,118.4z"
		/>
	<path fill="#495965" d="M149,168.9L149,168.9c-0.7,0-1.4-0.5-1.6-1.2c-0.1-0.2-6.4-22.4-6.4-49.3s6.4-49.1,6.4-49.3
		c0.4-1.4,2.7-1.4,3.1,0c0.1,0.2,6.4,22.4,6.4,49.3s-6.4,49.1-6.4,49.3C150.4,168.4,149.7,168.9,149,168.9z M149,76.4
		c-1.9,8.4-4.7,24.1-4.7,42s2.9,33.7,4.7,42c1.9-8.4,4.7-24.1,4.7-42S150.9,84.8,149,76.4z"/>
	<rect x="108.9" y="141.4" fill="#E9E9EB" width="76.6" height="76.2"/>
	<path fill="#495965" d="M185.5,219.2h-76.6c-0.9,0-1.6-0.7-1.6-1.6v-76.2c0-0.9,0.7-1.6,1.6-1.6h76.6c0.9,0,1.6,0.7,1.6,1.6v76.2
		C187.1,218.5,186.4,219.2,185.5,219.2z M110.5,215.9h73.3V143h-73.3V215.9z"/>
	<path fill="#E34094" d="M172.7,166.2c-3.4,0-5.1-1.7-6.7-3.4c-1.6-1.6-3.1-3.1-6.1-3.1s-4.5,1.5-6.1,3.1c-1.6,1.7-3.3,3.4-6.7,3.4
		s-5-1.7-6.7-3.4c-1.6-1.6-3.1-3.1-6.1-3.1s-4.5,1.5-6.1,3.1c-1.6,1.7-3.3,3.4-6.7,3.4c-3.4,0-5-1.7-6.7-3.4
		c-1.6-1.6-3.1-3.1-6.1-3.1c-0.2,0-0.4-0.2-0.4-0.4s0.2-0.4,0.4-0.4c3.4,0,5,1.7,6.7,3.4c1.6,1.6,3.1,3.1,6.1,3.1s4.5-1.5,6.1-3.1
		c1.6-1.7,3.3-3.4,6.7-3.4c3.4,0,5,1.7,6.7,3.4c1.6,1.6,3.1,3.1,6.1,3.1s4.5-1.5,6.1-3.1c1.6-1.7,3.3-3.4,6.7-3.4s5.1,1.7,6.7,3.4
		c1.6,1.6,3.1,3.1,6.1,3.1s4.5-1.5,6.1-3.1c1.6-1.7,3.3-3.4,6.7-3.4c0.2,0,0.4,0.2,0.4,0.4s-0.2,0.4-0.4,0.4c-3,0-4.5,1.5-6.1,3.1
		C177.7,164.5,176,166.2,172.7,166.2z"/>
	<path fill="#E34094" d="M172.7,175.3c-3.4,0-5.1-1.7-6.7-3.4c-1.6-1.6-3.1-3.1-6.1-3.1s-4.5,1.5-6.1,3.1c-1.6,1.7-3.3,3.4-6.7,3.4
		s-5-1.7-6.7-3.4c-1.6-1.6-3.1-3.1-6.1-3.1s-4.5,1.5-6.1,3.1c-1.6,1.7-3.3,3.4-6.7,3.4c-3.4,0-5-1.7-6.7-3.4
		c-1.6-1.6-3.1-3.1-6.1-3.1c-0.2,0-0.4-0.2-0.4-0.4s0.2-0.4,0.4-0.4c3.4,0,5,1.7,6.7,3.4c1.6,1.6,3.1,3.1,6.1,3.1s4.5-1.5,6.1-3.1
		c1.6-1.7,3.3-3.4,6.7-3.4c3.4,0,5,1.7,6.7,3.4c1.6,1.6,3.1,3.1,6.1,3.1s4.5-1.5,6.1-3.1c1.6-1.7,3.3-3.4,6.7-3.4s5.1,1.7,6.7,3.4
		c1.6,1.6,3.1,3.1,6.1,3.1s4.5-1.5,6.1-3.1c1.6-1.7,3.3-3.4,6.7-3.4c0.2,0,0.4,0.2,0.4,0.4s-0.2,0.4-0.4,0.4c-3,0-4.5,1.5-6.1,3.1
		C177.7,173.5,176,175.3,172.7,175.3z"/>
	<path fill="#495965" d="M94.5,218.7H31.9c-0.9,0-1.6-0.7-1.6-1.6v-9.8c0-0.9,0.7-1.6,1.6-1.6h62.6c0.9,0,1.6,0.7,1.6,1.6v9.8
		C96.1,218,95.4,218.7,94.5,218.7z M33.5,215.4h59.3v-6.5H33.5V215.4z"/>
	<path fill="#495965" d="M86.2,208.9c-0.9,0-1.6-0.7-1.6-1.6V149c0-20.8-9.1-34.2-27.8-40.8c-0.9-0.3-1.3-1.2-1-2.1s1.2-1.3,2.1-1
		c20.2,7.2,30,21.5,30,43.9v58.2C87.8,208.1,87.1,208.9,86.2,208.9z"/>
	<path fill="#495965" d="M52.6,114.1c-0.3,0-0.6-0.1-0.9-0.3l-19-12.3c-0.8-0.5-1-1.5-0.5-2.3L44.6,80c3.9-6,12-7.7,18-3.9
		c6,3.9,7.7,12,3.8,18l0,0l-12.5,19.2C53.7,113.8,53.2,114.1,52.6,114.1z M35.8,99.6l16.3,10.6l11.6-17.9c2.9-4.5,1.6-10.5-2.9-13.4
		s-10.5-1.6-13.4,2.9L35.8,99.6z M65.1,93.2L65.1,93.2L65.1,93.2z"/>
	<path fill="#495965" d="M49.6,150.5c-0.3,0-0.6-0.1-0.9-0.3l-48-31.1c-0.4-0.2-0.6-0.6-0.7-1s0-0.9,0.2-1.2
		C13.1,97,32.9,98.4,33.7,98.5c0.3,0,0.5,0.1,0.7,0.3l19.1,12.3c0.2,0.1,0.4,0.3,0.5,0.6c0.4,0.7,9.8,18.2-3,38
		C50.7,150.2,50.2,150.5,49.6,150.5z M3.9,117.3l45.2,29.3c9.6-16.2,3.4-30.6,2.2-32.9L33,101.8C30.3,101.6,14.8,101.7,3.9,117.3z"
		/>
	<path fill="#495965" d="M38.7,103.8c-0.1,0-0.2,0-0.2-0.1c-0.2-0.1-0.2-0.4-0.1-0.6l11.2-17.3c0.1-0.2,0.4-0.2,0.6-0.1
		s0.2,0.4,0.1,0.6l-11.2,17.3C38.9,103.8,38.8,103.8,38.7,103.8z"/>
	<path fill="#495965" d="M47.3,109.4c-0.1,0-0.2,0-0.2-0.1c-0.2-0.1-0.2-0.4-0.1-0.6l11.2-17.3c0.1-0.2,0.4-0.2,0.6-0.1
		s0.2,0.4,0.1,0.6l-11.2,17.3C47.5,109.3,47.4,109.4,47.3,109.4z"/>
	<path fill="#495965" d="M43.1,106.7c-0.1,0-0.2,0-0.2-0.1c-0.2-0.1-0.2-0.4-0.1-0.6L54,88.7c0.1-0.2,0.4-0.2,0.6-0.1
		s0.2,0.4,0.1,0.6l-11.2,17.3C43.4,106.6,43.2,106.7,43.1,106.7z"/>
	<path fill="#495965" d="M54.3,208.9H43.1c-0.9,0-1.6-0.7-1.6-1.6v-4.8c0-0.9,0.7-1.6,1.6-1.6h11.2c0.9,0,1.6,0.7,1.6,1.6v4.8
		C55.9,208.1,55.2,208.9,54.3,208.9z M44.7,205.6h7.9v-1.5h-7.9V205.6z"/>
	<path fill="#495965" d="M48.7,204.1c-0.9,0-1.6-0.7-1.6-1.6V195c0-0.9,0.7-1.6,1.6-1.6s1.6,0.7,1.6,1.6v7.4
		C50.3,203.4,49.6,204.1,48.7,204.1z"/>
	<polygon fill="#E9E9EB" points="240.4,292.4 251.6,348.9 239.7,351.2 228.6,294.7 230.9,286.3 232.2,281.5 235.2,285.5 	"/>
	<path fill="#495965" d="M239.7,351.6c-0.2,0-0.4-0.1-0.4-0.3l-11.1-56.5c0-0.1,0-0.1,0-0.2l3.5-13.2c0-0.2,0.2-0.3,0.3-0.3
		c0.2,0,0.3,0,0.4,0.2l8.3,10.9c0,0.1,0.1,0.1,0.1,0.2l11.1,56.5c0,0.2-0.1,0.4-0.3,0.5L239.7,351.6
		C239.8,351.6,239.8,351.6,239.7,351.6z M229,294.7l11,56l11-2.2l-11-56l-7.7-10.1L229,294.7z"/>
	<path fill="#495965" d="M232.5,295.8c-1.4,0-2.7-0.2-4-0.7c-0.1,0-0.2-0.1-0.3-0.3c0-0.1,0-0.2,0-0.3l3.5-13.2
		c0-0.2,0.2-0.3,0.3-0.3c0.2,0,0.3,0,0.4,0.2l8.3,10.9c0,0,0.1,0.1,0.1,0.2v0.1c0,0.1,0,0.3-0.1,0.4c-1.6,1.4-3.6,2.4-5.8,2.8
		C234.1,295.7,233.3,295.8,232.5,295.8z M229.1,294.5c1.8,0.6,3.8,0.7,5.7,0.3c1.9-0.4,3.7-1.2,5.2-2.4l-7.6-9.9L229.1,294.5z"/>
	<path fill="#495965" d="M230.9,286.7c-0.1,0-0.2-0.1-0.3-0.2s-0.1-0.2-0.1-0.4l1.3-4.8c0-0.2,0.2-0.3,0.3-0.3c0.2,0,0.3,0,0.4,0.2
		l3,4c0.1,0.1,0.1,0.2,0.1,0.4c0,0.1-0.1,0.2-0.3,0.3c-0.7,0.2-1.4,0.5-2.2,0.6C232.5,286.6,231.8,286.7,230.9,286.7L230.9,286.7z
		 M232.3,282.4l-0.9,3.5c0.6,0,1.1-0.1,1.6-0.2s1-0.3,1.5-0.4L232.3,282.4z"/>
	<path fill="#495965" d="M243.4,350.9c-0.2,0-0.4-0.1-0.4-0.3l-10.8-55.1c0-0.2,0.1-0.4,0.3-0.5s0.4,0.1,0.5,0.3l10.8,55.1
		C243.9,350.6,243.7,350.8,243.4,350.9C243.5,350.9,243.5,350.9,243.4,350.9z"/>
	<path fill="#495965" d="M247.9,350c-0.2,0-0.4-0.1-0.4-0.3l-10.9-55.1c0-0.2,0.1-0.4,0.3-0.5s0.4,0.1,0.5,0.3l10.9,55.1
		C248.3,349.7,248.2,349.9,247.9,350L247.9,350z"/>
	<path fill="#E9E9EB" d="M253.8,290.3v59.9H245v-59.9c0-7.9,3.5-13.1,3.5-13.1h1.7C250.3,277.3,253.8,282.4,253.8,290.3z"/>
	<path fill="#495965" d="M253.8,350.6H245c-0.2,0-0.4-0.2-0.4-0.4v-59.9c0-8,3.4-13.1,3.6-13.3c0.1-0.1,0.2-0.2,0.3-0.2h1.7
		c0.1,0,0.3,0.1,0.3,0.2c0.1,0.2,3.6,5.3,3.6,13.3v59.9C254.2,350.4,254,350.6,253.8,350.6z M245.4,349.8h7.9v-59.5
		c0-6.9-2.7-11.7-3.3-12.6h-1.3c-0.6,1-3.3,5.8-3.3,12.6L245.4,349.8L245.4,349.8z"/>
	<path fill="#495965" d="M249.4,277.7c-0.2,0-0.4-0.2-0.4-0.4v-4.7c0-0.2,0.2-0.4,0.4-0.4s0.4,0.2,0.4,0.4v4.7
		C249.8,277.5,249.6,277.7,249.4,277.7z"/>
	<path fill="#495965" d="M249.3,290.5c-2.6,0-4.4-0.8-4.5-0.9c-0.2-0.1-0.3-0.3-0.2-0.5s0.4-0.3,0.5-0.2c0,0,3.8,1.8,8.4,0
		c0.2-0.1,0.4,0,0.5,0.2s0,0.4-0.2,0.5C252.2,290.3,250.7,290.5,249.3,290.5z"/>
	<path fill="#E9E9EB" d="M255.2,352.5c0,0,7.8-31.6,11.2-50.4c1.4-7.9-0.5-13.9-0.5-13.9l-2.2-0.4c0,0-3.9,5-5.3,12.9
		c-3.4,18.8-7,51.1-7,51.1L255.2,352.5z"/>
	<path fill="#E34094" d="M255.2,352.9C255.2,352.9,255.1,352.9,255.2,352.9l-3.8-0.7c-0.2,0-0.4-0.2-0.3-0.4c0-0.3,3.6-32.5,7-51.1
		c1.4-7.9,5.2-12.9,5.3-13.1c0.1-0.1,0.2-0.2,0.4-0.2l2.2,0.4c0.2,0,0.3,0.1,0.3,0.3c0.1,0.3,1.9,6.3,0.5,14.1
		c-3.3,18.6-11.1,50.1-11.2,50.4C255.5,352.7,255.4,352.9,255.2,352.9z M251.9,351.5l3,0.5c0.9-3.6,7.9-32.5,11.1-50
		c1.2-6.8-0.1-12.3-0.4-13.5l-1.7-0.3c-0.7,1-3.8,5.7-5,12.5C255.7,318.2,252.3,347.8,251.9,351.5z"/>
	<path fill="#E34094" d="M263.7,300.7c-3.4,0-5-2-5.1-2.1c-0.1-0.2-0.1-0.4,0.1-0.6c0.2-0.1,0.4-0.1,0.6,0.1
		c0.1,0.1,2.4,2.9,7.4,1.3c0.2-0.1,0.4,0,0.5,0.3c0.1,0.2,0,0.4-0.3,0.5C265.7,300.5,264.6,300.7,263.7,300.7z"/>
	<path fill="#E9E9EB" d="M265.3,288.1c2-0.8,3.2-2.1,3.6-5c0.8-5-3.8-8.1-3.8-8.1s0.8,1.2,0.5,2.9c-0.5,2.7-2.6,2.8-3,5
		c-0.5,2.9,0.7,4.1,1.5,5L265.3,288.1z"/>
	<path fill="#E34094" d="M265.3,288.5L265.3,288.5l-1.3-0.2c-0.1,0-0.2-0.1-0.2-0.1l-0.2-0.2c-0.8-1-2-2.3-1.4-5.2
		c0.2-1.2,0.9-1.8,1.5-2.4c0.7-0.7,1.3-1.3,1.5-2.6c0.3-1.5-0.4-2.6-0.4-2.6c-0.1-0.2-0.1-0.4,0.1-0.5c0.1-0.1,0.3-0.2,0.5,0
		c0.2,0.1,4.9,3.3,4,8.5c-0.5,2.8-1.5,4.3-3.9,5.3C265.4,288.5,265.4,288.5,265.3,288.5z M264.4,287.5l0.9,0.2
		c1.7-0.7,2.8-1.8,3.3-4.7c0.5-3.1-1.3-5.5-2.6-6.7c0.1,0.5,0.1,1,0,1.7c-0.3,1.5-1,2.3-1.7,3c-0.6,0.6-1.1,1.1-1.2,2
		C262.6,285.4,263.5,286.5,264.4,287.5L264.4,287.5z"/>
	<path fill="#E34094" d="M264.9,288.4c-0.1,0-0.2,0-0.2-0.1c-0.1-0.1-0.2-0.2-0.2-0.3c0,0.1-0.1,0.2-0.2,0.2
		c-0.2,0.1-0.4-0.1-0.5-0.3c-0.8-2.6,0.2-4.1,1-5.4c0.3-0.5,0.6-0.9,0.8-1.4c1.2-2.7-0.8-6-0.8-6.1c-0.1-0.2-0.1-0.4,0.1-0.5
		s0.4-0.1,0.6,0.1c0.1,0.2,3.3,4,2.1,8.3c-0.9,2.9-2.2,5.1-2.3,5.2C265.2,288.3,265,288.4,264.9,288.4z M266.8,279.2
		c0,0.8-0.1,1.6-0.4,2.4c-0.2,0.5-0.6,1-0.9,1.5c-0.8,1.3-1.6,2.4-0.9,4.7l0,0l0,0c0,0,1.3-2.1,2.2-5
		C267.1,281.5,267,280.3,266.8,279.2z"/>
	<rect x="229.2" y="322.3" fill="#E9E9EB" width="39.3" height="58"/>
	<path fill="#495965" d="M268.5,382h-39.3c-0.9,0-1.6-0.7-1.6-1.6v-58c0-0.9,0.7-1.6,1.6-1.6h39.3c0.9,0,1.6,0.7,1.6,1.6v58
		C270.1,381.3,269.4,382,268.5,382z M230.8,378.7h36v-54.8h-36L230.8,378.7L230.8,378.7z"/>
	<path fill="#495965" d="M268.5,334.2h-39.3c-0.2,0-0.4-0.2-0.4-0.4c0-0.2,0.2-0.4,0.4-0.4h39.3c0.2,0,0.4,0.2,0.4,0.4
		S268.7,334.2,268.5,334.2z"/>
	<path fill="#495965" d="M268.5,344.1h-39.3c-0.2,0-0.4-0.2-0.4-0.4s0.2-0.4,0.4-0.4h39.3c0.2,0,0.4,0.2,0.4,0.4
		S268.7,344.1,268.5,344.1z"/>
	<path fill="#495965" d="M37.9,271.2H25.4c-0.9,0-1.6-0.7-1.6-1.6v-38.4h3.1v36.9h9.4v-36.9h3.1v38.4
		C39.5,270.6,38.8,271.2,37.9,271.2z"/>
	<circle fill="#495965" cx="31.7" cy="257.7" r="2.1"/>
	<circle fill="#495965" cx="31.7" cy="244.2" r="2.1"/>
	<path fill="#495965" d="M231.1,434.4h-12.4c-0.9,0-1.6-0.7-1.6-1.6v-38.4h3.1v36.9h9.4v-36.9h3.1v38.4
		C232.7,433.7,232,434.4,231.1,434.4z"/>
	<circle fill="#495965" cx="224.9" cy="420.9" r="2.1"/>
	<circle fill="#495965" cx="224.9" cy="407.4" r="2.1"/>
</g>
</svg>
