<?xml version="1.0" encoding="utf-8"?>
<!-- Generator: Adobe Illustrator 22.1.0, SVG Export Plug-In . SVG Version: 6.00 Build 0)  -->
<svg version="1.1" id="Isolation_Mode" xmlns="http://www.w3.org/2000/svg" xmlns:xlink="http://www.w3.org/1999/xlink" x="0px"
	 y="0px" width="220px" height="867px" viewBox="0 0 220 867" style="enable-background:new 0 0 220 867;" xml:space="preserve">
<style type="text/css">
	.st0{fill:#E9E9EB;stroke:#495965;stroke-width:3;stroke-linecap:round;stroke-linejoin:round;stroke-miterlimit:10;}
	.st1{fill:#E9E9EB;stroke:#E34094;stroke-width:3;stroke-linecap:round;stroke-linejoin:round;stroke-miterlimit:10;}
	.st2{fill:none;stroke:#E34094;stroke-width:3;stroke-linecap:round;stroke-linejoin:round;stroke-miterlimit:10;}
	.st3{fill:none;stroke:#495965;stroke-width:3;stroke-linecap:round;stroke-linejoin:round;stroke-miterlimit:10;}
	.st4{fill:none;}
</style>
<g>
	<rect x="-41.5" y="566" class="st0" width="259.1" height="301.1"/>
	<g>
		<path class="st1" d="M5.3,597.3C5.3,590-0.6,584-8,584c-7.3,0-13.3,5.9-13.3,13.3c0,7.3,5.9,13.3,13.3,13.3S5.3,604.6,5.3,597.3z"
			/>
		<path class="st1" d="M47.3,597.3c0-7.3-6-13.3-13.3-13.3s-13.3,5.9-13.3,13.3c0,7.3,6,13.3,13.3,13.3S47.3,604.6,47.3,597.3z"/>
		<path class="st1" d="M155.5,597.3c0-7.3-6-13.3-13.3-13.3s-13.3,5.9-13.3,13.3c0,7.3,6,13.3,13.3,13.3
			C149.6,610.6,155.5,604.6,155.5,597.3z"/>
		<path class="st1" d="M197.5,597.3c0-7.3-5.9-13.3-13.3-13.3c-7.3,0-13.3,5.9-13.3,13.3c0,7.3,6,13.3,13.3,13.3
			S197.5,604.6,197.5,597.3z"/>
		<rect x="67.7" y="591.1" class="st1" width="40.8" height="12.5"/>
		<line class="st2" x1="-8" y1="610.6" x2="-8" y2="584"/>
		<line class="st2" x1="20.7" y1="597.3" x2="47.3" y2="597.3"/>
		<line class="st2" x1="129" y1="597.3" x2="155.5" y2="597.3"/>
		<line class="st2" x1="170.9" y1="597.3" x2="197.5" y2="597.3"/>
	</g>
	<rect x="-41.5" y="626.1" class="st0" width="259.1" height="180.7"/>
	<rect x="-13.7" y="661.6" class="st0" width="203.7" height="121.1"/>
	<line class="st3" x1="-13.7" y1="644.5" x2="189.9" y2="644.5"/>
	<rect x="-10.2" y="498.5" class="st0" width="82.8" height="67.5"/>
	<path class="st0" d="M72.7,498.5c0-4.8-11-10.8-41.4-10.8c-30.5,0-41.4,6-41.4,10.8"/>
	<path class="st0" d="M39.1,487.6c0-4.3-3.5-7.8-7.8-7.8s-7.8,3.5-7.8,7.8"/>
	<line class="st3" x1="-10.2" y1="508" x2="-21.3" y2="508"/>
	<line class="st3" x1="83.8" y1="508" x2="72.7" y2="508"/>
	<g>
		<path class="st0" d="M157.9,506.8c0-2.1-1.7-3.9-3.9-3.9c-2.1,0-3.9,1.7-3.9,3.9c0,2.1,1.7,3.8,3.9,3.8S157.9,508.8,157.9,506.8z"
			/>
		<polygon class="st0" points="120.9,513.8 110.8,520.6 122.8,538.5 132.9,531.8 		"/>
		<path class="st0" d="M189.6,543.3c0,5.8-1.4,11-3.2,15.4h-64.6c-1.9-4.4-3.2-9.6-3.2-15.4c0-15.4,9.8-27.6,23.4-32.2
			c3.8-1.3,7.8-1.9,12.1-1.9s8.3,0.7,12.1,1.9C179.8,515.6,189.6,528,189.6,543.3z"/>
		<path class="st0" d="M186.4,558.8c0,0-7.9,3-7.9,7.2h-48.7c0-4.2-7.9-7.2-7.9-7.2H186.4z"/>
		<path class="st3" d="M132.9,491.8c6-3.5,15.5-4.3,21.2-4.3s11.2,0.9,16.5,2.7c8.5,2.9,14.8,9.3,17.2,19c2,8.5,1.7,14.1,1.7,31.3"
			/>
		<g>
			<line class="st3" x1="131.1" y1="518.1" x2="177.1" y2="518.1"/>
			<line class="st4" x1="131.1" y1="518.1" x2="177.1" y2="518.1"/>
		</g>
	</g>
	<rect x="-41.3" y="227.3" class="st0" width="259" height="33.5"/>
	<polygon class="st0" points="45.2,150.5 131.1,150.5 217.7,227.3 -41.3,227.3 	"/>
	<rect x="45.2" y="-0.1" class="st0" width="85.9" height="150.6"/>
	<rect x="-11.7" y="237.8" class="st0" width="12.4" height="12.4"/>
	<rect x="7.3" y="237.8" class="st0" width="12.4" height="12.4"/>
</g>
</svg>
