<?xml version="1.0" encoding="utf-8"?>
<!-- Generator: Adobe Illustrator 22.1.0, SVG Export Plug-In . SVG Version: 6.00 Build 0)  -->
<svg version="1.1" id="Isolation_Mode" xmlns="http://www.w3.org/2000/svg" xmlns:xlink="http://www.w3.org/1999/xlink" x="0px"
	 y="0px" width="1920px" height="610px" viewBox="0 0 1920 610" enable-background="new 0 0 1920 610" xml:space="preserve">
<rect fill="#E9E9EB" width="1920" height="610"/>
<rect x="1455.6" y="81" fill="#E9E9EB" width="110.3" height="136"/>
<path fill="#495965" d="M1565.9,218.7h-110.3c-0.9,0-1.6-0.7-1.6-1.6V81c0-0.9,0.7-1.6,1.6-1.6h110.3c0.9,0,1.6,0.7,1.6,1.6v136
	C1567.5,218,1566.8,218.7,1565.9,218.7z M1457.2,215.4h107.1V82.7h-107.1V215.4z"/>
<path fill="#E34094" d="M1556.1,207.6h-90.7c-0.2,0-0.4-0.2-0.4-0.4V90.8c0-0.2,0.2-0.4,0.4-0.4h90.7c0.2,0,0.4,0.2,0.4,0.4v116.4
	C1556.5,207.5,1556.3,207.6,1556.1,207.6z M1465.8,206.8h89.9V91.2h-89.9V206.8z"/>
<rect x="1488.7" y="192.9" fill="#E9E9EB" width="138.9" height="24.1"/>
<path fill="#495965" d="M1627.6,218.7h-138.9c-0.9,0-1.6-0.7-1.6-1.6V193c0-0.9,0.7-1.6,1.6-1.6h138.9c0.9,0,1.6,0.7,1.6,1.6v24.1
	C1629.2,218,1628.5,218.7,1627.6,218.7z M1490.3,215.4H1626v-20.9h-135.6L1490.3,215.4L1490.3,215.4z"/>
<rect x="1477.5" y="168.8" fill="#E9E9EB" width="142" height="24.1"/>
<path fill="#495965" d="M1619.6,194.5h-142c-0.9,0-1.6-0.7-1.6-1.6v-24.1c0-0.9,0.7-1.6,1.6-1.6h142c0.9,0,1.6,0.7,1.6,1.6v24.1
	C1621.2,193.8,1620.5,194.5,1619.6,194.5z M1479.2,191.3H1618v-20.9h-138.8V191.3z"/>
<rect x="1496.5" y="144.6" fill="#E9E9EB" width="138.9" height="24.1"/>
<path fill="#495965" d="M1635.4,170.4h-138.9c-0.9,0-1.6-0.7-1.6-1.6v-24.1c0-0.9,0.7-1.6,1.6-1.6h138.9c0.9,0,1.6,0.7,1.6,1.6v24.1
	C1637,169.7,1636.3,170.4,1635.4,170.4z M1498.1,167.1h135.6v-20.9h-135.6V167.1z"/>
<path fill="#495965" d="M1627.6,163h-35.4c-0.2,0-0.4-0.2-0.4-0.4v-11.8c0-0.2,0.2-0.4,0.4-0.4h35.4c0.2,0,0.4,0.2,0.4,0.4v11.8
	C1628,162.8,1627.8,163,1627.6,163z M1592.6,162.2h34.6v-11h-34.6V162.2z"/>
<path fill="#E34094" d="M1542.3,187h-13c-0.2,0-0.4-0.2-0.4-0.4v-11.5c0-0.2,0.2-0.4,0.4-0.4h13c0.2,0,0.4,0.2,0.4,0.4v11.5
	C1542.7,186.8,1542.5,187,1542.3,187z M1529.7,186.2h12.2v-10.7h-12.2V186.2z"/>
<path fill="#495965" d="M1585,169.2c-0.2,0-0.4-0.2-0.4-0.4v-24.1c0-0.2,0.2-0.4,0.4-0.4s0.4,0.2,0.4,0.4v24.1
	C1585.4,169,1585.2,169.2,1585,169.2z"/>
<path fill="#495965" d="M1575.3,169.2c-0.2,0-0.4-0.2-0.4-0.4v-24.1c0-0.2,0.2-0.4,0.4-0.4s0.4,0.2,0.4,0.4v24.1
	C1575.7,169,1575.5,169.2,1575.3,169.2z"/>
<path fill="#495965" d="M1604.4,217.5c-0.2,0-0.4-0.2-0.4-0.4V193c0-0.2,0.2-0.4,0.4-0.4s0.4,0.2,0.4,0.4v24.1
	C1604.8,217.3,1604.6,217.5,1604.4,217.5z"/>
<path fill="#495965" d="M1594.7,217.5c-0.2,0-0.4-0.2-0.4-0.4V193c0-0.2,0.2-0.4,0.4-0.4s0.4,0.2,0.4,0.4v24.1
	C1595.1,217.3,1594.9,217.5,1594.7,217.5z"/>
<path fill="#495965" d="M1613.6,217.5c-0.2,0-0.4-0.2-0.4-0.4V193c0-0.2,0.2-0.4,0.4-0.4s0.4,0.2,0.4,0.4v24.1
	C1614,217.3,1613.8,217.5,1613.6,217.5z"/>
<path fill="#E34094" d="M1520.8,178h-32.1c-0.2,0-0.4-0.2-0.4-0.4s0.2-0.4,0.4-0.4h32.1c0.2,0,0.4,0.2,0.4,0.4
	C1521.2,177.8,1521.1,178,1520.8,178z"/>
<path fill="#E34094" d="M1520.8,184.4h-32.1c-0.2,0-0.4-0.2-0.4-0.4s0.2-0.4,0.4-0.4h32.1c0.2,0,0.4,0.2,0.4,0.4
	C1521.2,184.2,1521.1,184.4,1520.8,184.4z"/>
<path fill="#495965" d="M1650.3,382h-23.1c-0.9,0-1.6-0.7-1.6-1.6V298c0-0.9,0.7-1.6,1.6-1.6h23.1c0.9,0,1.6,0.7,1.6,1.6v82.4
	C1651.9,381.3,1651.2,382,1650.3,382z M1628.8,378.7h19.8v-79.1h-19.8V378.7z"/>
<path fill="#495965" d="M1650.5,310.8h-23.3c-0.2,0-0.4-0.2-0.4-0.4c0-0.2,0.2-0.4,0.4-0.4h23.3c0.2,0,0.4,0.2,0.4,0.4
	C1650.9,310.6,1650.7,310.8,1650.5,310.8z"/>
<path fill="#495965" d="M1650.5,319.2h-23.3c-0.2,0-0.4-0.2-0.4-0.4s0.2-0.4,0.4-0.4h23.3c0.2,0,0.4,0.2,0.4,0.4
	S1650.7,319.2,1650.5,319.2z"/>
<path fill="#495965" d="M1686.6,382h-23.1c-0.9,0-1.6-0.7-1.6-1.6V298c0-0.9,0.7-1.6,1.6-1.6h23.1c0.9,0,1.6,0.7,1.6,1.6v82.4
	C1688.2,381.3,1687.5,382,1686.6,382z M1665.1,378.7h19.8v-79.1h-19.8V378.7z"/>
<path fill="#495965" d="M1686.6,368.3h-23.3c-0.2,0-0.4-0.2-0.4-0.4s0.2-0.4,0.4-0.4h23.3c0.2,0,0.4,0.2,0.4,0.4
	S1686.8,368.3,1686.6,368.3z"/>
<path fill="#495965" d="M1686.6,359.9h-23.3c-0.2,0-0.4-0.2-0.4-0.4s0.2-0.4,0.4-0.4h23.3c0.2,0,0.4,0.2,0.4,0.4
	S1686.8,359.9,1686.6,359.9z"/>
<path fill="#495965" d="M1663.4,382h-13.1c-0.9,0-1.6-0.7-1.6-1.6V287c0-0.9,0.7-1.6,1.6-1.6h13.1c0.9,0,1.6,0.7,1.6,1.6v93.4
	C1665,381.3,1664.3,382,1663.4,382z M1651.9,378.7h9.8v-90.1h-9.8V378.7z"/>
<path fill="#495965" d="M1663.3,361.5h-13c-0.2,0-0.4-0.2-0.4-0.4s0.2-0.4,0.4-0.4h13c0.2,0,0.4,0.2,0.4,0.4
	S1663.5,361.5,1663.3,361.5z"/>
<path fill="#495965" d="M1663.3,355.2h-13c-0.2,0-0.4-0.2-0.4-0.4s0.2-0.4,0.4-0.4h13c0.2,0,0.4,0.2,0.4,0.4
	S1663.5,355.2,1663.3,355.2z"/>
<path fill="#495965" d="M1663.3,348.3h-13c-0.2,0-0.4-0.2-0.4-0.4s0.2-0.4,0.4-0.4h13c0.2,0,0.4,0.2,0.4,0.4
	S1663.5,348.3,1663.3,348.3z"/>
<path fill="#495965" d="M1699.7,382h-13.1c-0.9,0-1.6-0.7-1.6-1.6v-98c0-0.9,0.7-1.6,1.6-1.6h13.1c0.9,0,1.6,0.7,1.6,1.6v98
	C1701.3,381.3,1700.6,382,1699.7,382z M1688.2,378.7h9.8V284h-9.8V378.7z"/>
<path fill="#495965" d="M1699.6,360.5h-13c-0.2,0-0.4-0.2-0.4-0.4s0.2-0.4,0.4-0.4h13c0.2,0,0.4,0.2,0.4,0.4
	S1699.8,360.5,1699.6,360.5z"/>
<path fill="#495965" d="M1699.6,353.9h-13c-0.2,0-0.4-0.2-0.4-0.4s0.2-0.4,0.4-0.4h13c0.2,0,0.4,0.2,0.4,0.4
	S1699.8,353.9,1699.6,353.9z"/>
<path fill="#495965" d="M1699.6,346.7h-13c-0.2,0-0.4-0.2-0.4-0.4s0.2-0.4,0.4-0.4h13c0.2,0,0.4,0.2,0.4,0.4
	S1699.8,346.7,1699.6,346.7z"/>
<path fill="#495965" d="M1613.7,382c-0.1,0-0.2,0-0.2,0l-13-1.9c-0.9-0.1-1.5-1-1.4-1.9l12.7-86.7c0.1-0.4,0.3-0.8,0.6-1.1
	c0.4-0.3,0.8-0.4,1.2-0.3l13,1.9c0.9,0.1,1.5,1,1.4,1.9l-12.7,86.7c-0.1,0.4-0.3,0.8-0.6,1.1C1614.4,381.9,1614,382,1613.7,382z
	 M1602.6,377.1l9.7,1.4l12.2-83.4l-9.7-1.4L1602.6,377.1z"/>
<path fill="#E34094" d="M1614.5,360.5L1614.5,360.5l-8.9-1.3c-0.2,0-0.3-0.2-0.2-0.3c0-0.2,0.2-0.2,0.3-0.2l8.8,1.3
	c0.2,0,0.3,0.2,0.2,0.3C1614.7,360.4,1614.6,360.5,1614.5,360.5z"/>
<path fill="#E34094" d="M1615.1,356.5C1615.1,356.5,1615,356.5,1615.1,356.5l-8.9-1.3c-0.2,0-0.3-0.2-0.2-0.3c0-0.2,0.2-0.2,0.3-0.2
	l8.8,1.3c0.2,0,0.3,0.2,0.2,0.3C1615.3,356.4,1615.2,356.5,1615.1,356.5z"/>
<path fill="#E34094" d="M1615.7,352.1L1615.7,352.1l-8.9-1.3c-0.2,0-0.3-0.2-0.2-0.3c0-0.2,0.2-0.2,0.3-0.2l8.8,1.3
	c0.2,0,0.3,0.2,0.2,0.3C1616,352,1615.9,352.1,1615.7,352.1z"/>
<path fill="#495965" d="M1715.1,382h-15.5c-0.9,0-1.6-0.7-1.6-1.6V272.5c0-0.9,0.7-1.6,1.6-1.6h15.5c0.9,0,1.6,0.7,1.6,1.6v107.8
	C1716.7,381.3,1716,382,1715.1,382z M1701.2,378.7h12.2V274.2h-12.2V378.7z"/>
<path fill="#495965" d="M1715.1,292.2h-15.4c-0.2,0-0.4-0.2-0.4-0.4c0-0.2,0.2-0.4,0.4-0.4h15.4c0.2,0,0.4,0.2,0.4,0.4
	S1715.3,292.2,1715.1,292.2z"/>
<path fill="#495965" d="M1715.1,301.7h-15.4c-0.2,0-0.4-0.2-0.4-0.4c0-0.2,0.2-0.4,0.4-0.4h15.4c0.2,0,0.4,0.2,0.4,0.4
	C1715.5,301.6,1715.3,301.7,1715.1,301.7z"/>
<path fill="#495965" d="M1715.1,310.8h-15.4c-0.2,0-0.4-0.2-0.4-0.4s0.2-0.4,0.4-0.4h15.4c0.2,0,0.4,0.2,0.4,0.4
	S1715.3,310.8,1715.1,310.8z"/>
<path fill="#495965" d="M1800.2,312.6h-85.1c-0.9,0-1.6-0.7-1.6-1.6v-20c0-0.9,0.7-1.6,1.6-1.6h85.1c0.9,0,1.6,0.7,1.6,1.6v20
	C1801.8,311.9,1801.1,312.6,1800.2,312.6z M1716.7,309.3h81.8v-16.7h-81.8V309.3z"/>
<path fill="#495965" d="M1787.3,311.5c-0.2,0-0.4-0.2-0.4-0.4V291c0-0.2,0.2-0.4,0.4-0.4c0.2,0,0.4,0.2,0.4,0.4v20.1
	C1787.7,311.4,1787.5,311.5,1787.3,311.5z"/>
<path fill="#495965" d="M1778.6,311.5c-0.2,0-0.4-0.2-0.4-0.4V291c0-0.2,0.2-0.4,0.4-0.4s0.4,0.2,0.4,0.4v20.1
	C1779,311.4,1778.8,311.5,1778.6,311.5z"/>
<path fill="#495965" d="M1800.2,357.4h-85.1c-0.9,0-1.6-0.7-1.6-1.6v-20c0-0.9,0.7-1.6,1.6-1.6h85.1c0.9,0,1.6,0.7,1.6,1.6v20
	C1801.8,356.7,1801.1,357.4,1800.2,357.4z M1716.7,354.1h81.8v-16.7h-81.8V354.1z"/>
<path fill="#495965" d="M1727.9,356.2c-0.2,0-0.4-0.2-0.4-0.4v-20.1c0-0.2,0.2-0.4,0.4-0.4s0.4,0.2,0.4,0.4v20.1
	C1728.3,356,1728.2,356.2,1727.9,356.2z"/>
<path fill="#495965" d="M1736.6,356.2c-0.2,0-0.4-0.2-0.4-0.4v-20.1c0-0.2,0.2-0.4,0.4-0.4s0.4,0.2,0.4,0.4v20.1
	C1737,356,1736.9,356.2,1736.6,356.2z"/>
<path fill="#495965" d="M1807.6,337.4h-92.5c-0.9,0-1.6-0.7-1.6-1.6v-13.4c0-0.9,0.7-1.6,1.6-1.6h92.5c0.9,0,1.6,0.7,1.6,1.6v13.4
	C1809.2,336.6,1808.5,337.4,1807.6,337.4z M1716.7,334.1h89.2V324h-89.2V334.1z"/>
<path fill="#495965" d="M1791.1,336.1c-0.2,0-0.4-0.2-0.4-0.4v-13.3c0-0.2,0.2-0.4,0.4-0.4s0.4,0.2,0.4,0.4v13.3
	C1791.5,335.9,1791.3,336.1,1791.1,336.1z"/>
<path fill="#495965" d="M1775.1,336.1c-0.2,0-0.4-0.2-0.4-0.4v-13.3c0-0.2,0.2-0.4,0.4-0.4s0.4,0.2,0.4,0.4v13.3
	C1775.5,335.9,1775.3,336.1,1775.1,336.1z"/>
<path fill="#495965" d="M1811.5,324h-96.4c-0.9,0-1.6-0.7-1.6-1.6v-11.3c0-0.9,0.7-1.6,1.6-1.6h96.4c0.9,0,1.6,0.7,1.6,1.6v11.3
	C1813.1,323.3,1812.4,324,1811.5,324z M1716.7,320.8h93.1v-8h-93.1V320.8z"/>
<path fill="#495965" d="M1735,322.7c-0.2,0-0.4-0.2-0.4-0.4v-11.2c0-0.2,0.2-0.4,0.4-0.4s0.4,0.2,0.4,0.4v11.2
	C1735.4,322.6,1735.2,322.7,1735,322.7z"/>
<path fill="#495965" d="M1741.5,322.7c-0.2,0-0.4-0.2-0.4-0.4v-11.2c0-0.2,0.2-0.4,0.4-0.4s0.4,0.2,0.4,0.4v11.2
	C1741.9,322.6,1741.7,322.7,1741.5,322.7z"/>
<path fill="#495965" d="M1748.6,322.7c-0.2,0-0.4-0.2-0.4-0.4v-11.2c0-0.2,0.2-0.4,0.4-0.4c0.2,0,0.4,0.2,0.4,0.4v11.2
	C1749,322.6,1748.8,322.7,1748.6,322.7z"/>
<path fill="#495965" d="M1824.7,368.7h-109.6c-0.9,0-1.6-0.7-1.6-1.6v-11.3c0-0.9,0.7-1.6,1.6-1.6h109.6c0.9,0,1.6,0.7,1.6,1.6V367
	C1826.4,367.9,1825.6,368.7,1824.7,368.7z M1716.7,365.4H1823v-8h-106.3V365.4z"/>
<path fill="#495965" d="M1737.8,367.4c-0.2,0-0.4-0.2-0.4-0.4v-11.3c0-0.2,0.2-0.4,0.4-0.4s0.4,0.2,0.4,0.4V367
	C1738.2,367.2,1738,367.4,1737.8,367.4z"/>
<path fill="#495965" d="M1745.1,367.4c-0.2,0-0.4-0.2-0.4-0.4v-11.3c0-0.2,0.2-0.4,0.4-0.4c0.2,0,0.4,0.2,0.4,0.4V367
	C1745.5,367.2,1745.3,367.4,1745.1,367.4z"/>
<path fill="#495965" d="M1753.2,367.4c-0.2,0-0.4-0.2-0.4-0.4v-11.3c0-0.2,0.2-0.4,0.4-0.4c0.2,0,0.4,0.2,0.4,0.4V367
	C1753.6,367.2,1753.4,367.4,1753.2,367.4z"/>
<path fill="#495965" d="M1838.8,382h-123.7c-0.9,0-1.6-0.7-1.6-1.6V367c0-0.9,0.7-1.6,1.6-1.6h123.7c0.9,0,1.6,0.7,1.6,1.6v13.4
	C1840.5,381.3,1839.7,382,1838.8,382z M1716.7,378.7h120.5v-10.1h-120.5V378.7z"/>
<path fill="#495965" d="M1816.7,380.8c-0.2,0-0.4-0.2-0.4-0.4V367c0-0.2,0.2-0.4,0.4-0.4s0.4,0.2,0.4,0.4v13.3
	C1817.2,380.6,1817,380.8,1816.7,380.8z"/>
<path fill="#495965" d="M1805.8,380.8c-0.2,0-0.4-0.2-0.4-0.4V367c0-0.2,0.2-0.4,0.4-0.4s0.4,0.2,0.4,0.4v13.3
	C1806.2,380.6,1806,380.8,1805.8,380.8z"/>
<path fill="#495965" d="M1795.4,380.7c-0.2,0-0.4-0.2-0.4-0.4V367c0-0.2,0.2-0.4,0.4-0.4s0.4,0.2,0.4,0.4v13.3
	C1795.8,380.6,1795.6,380.7,1795.4,380.7z"/>
<path fill="#495965" d="M1671.7,233.6h-411c-0.9,0-1.6-0.7-1.6-1.6v-14.4c0-0.9,0.7-1.6,1.6-1.6h410.9c0.9,0,1.6,0.7,1.6,1.6V232
	C1673.3,232.8,1672.6,233.6,1671.7,233.6z M1262.4,230.3H1670v-11.1h-407.6V230.3z"/>
<path fill="#495965" d="M1862.8,396.4h-410.9c-0.9,0-1.6-0.7-1.6-1.6v-14.4c0-0.9,0.7-1.6,1.6-1.6h410.9c0.9,0,1.6,0.7,1.6,1.6v14.4
	C1864.5,395.6,1863.8,396.4,1862.8,396.4z M1453.5,393.1h407.7V382h-407.7V393.1z"/>
<path fill="#495965" d="M1655.3,262.9c-0.9,0-1.6-0.7-1.6-1.6v-29.4c0-0.9,0.7-1.6,1.6-1.6s1.6,0.7,1.6,1.6v29.4
	C1656.9,262.2,1656.2,262.9,1655.3,262.9z"/>
<path fill="#495965" d="M1846.4,427c-0.9,0-1.6-0.7-1.6-1.6V396c0-0.9,0.7-1.6,1.6-1.6s1.6,0.7,1.6,1.6v29.4
	C1848.1,426.2,1847.3,427,1846.4,427z"/>
<path fill="#495965" d="M1564.3,346.5c-9.9,0-17.9-10.7-17.9-23.9s8.1-23.9,17.9-23.9c9.9,0,18,10.7,18,23.9
	S1574.2,346.5,1564.3,346.5z M1564.3,301.9c-8.1,0-14.7,9.3-14.7,20.6s6.6,20.6,14.7,20.6s14.7-9.3,14.7-20.6
	S1572.4,301.9,1564.3,301.9z"/>
<polygon fill="#E9E9EB" points="1579.1,380.4 1588.8,338.8 1539.9,338.8 1549.5,380.4 "/>
<path fill="#495965" d="M1579.1,382h-29.5c-0.8,0-1.4-0.5-1.6-1.3l-9.7-41.5c-0.1-0.5,0-1,0.3-1.4s0.8-0.6,1.3-0.6h48.9
	c0.5,0,1,0.2,1.3,0.6s0.4,0.9,0.3,1.4l-9.7,41.5C1580.5,381.5,1579.8,382,1579.1,382z M1550.8,378.7h26.9l8.9-38.3h-44.8
	L1550.8,378.7z"/>
<path fill="#495965" d="M1559.9,339.2c-0.2,0-0.3-0.1-0.4-0.3c-7.9-23.6,4.3-38.8,4.5-39c0.1-0.2,0.4-0.2,0.6-0.1s0.2,0.4,0.1,0.6
	c-0.1,0.1-12.1,15-4.3,38.2c0.1,0.2,0,0.4-0.3,0.5C1560,339.2,1560,339.2,1559.9,339.2z"/>
<path fill="#495965" d="M1568.7,339.2L1568.7,339.2c-0.3-0.1-0.4-0.3-0.4-0.5c7.8-23.2-4.2-38-4.3-38.2c-0.1-0.2-0.1-0.4,0.1-0.6
	c0.2-0.1,0.4-0.1,0.6,0.1c0.1,0.2,12.4,15.3,4.5,39C1569,339.1,1568.9,339.2,1568.7,339.2z"/>
<path fill="#495965" d="M1564.3,300.7c-0.2,0-0.4-0.2-0.4-0.4v-6.2c0-0.2,0.2-0.4,0.4-0.4s0.4,0.2,0.4,0.4v6.2
	C1564.7,300.5,1564.5,300.7,1564.3,300.7z"/>
<path fill="#495965" d="M1564.3,300.7c-0.1,0-0.2-0.1-0.3-0.1l-3.9-4.7c-0.1-0.2-0.1-0.4,0.1-0.6c0.2-0.1,0.4-0.1,0.6,0.1l3.9,4.7
	c0.1,0.2,0.1,0.4-0.1,0.6C1564.5,300.6,1564.4,300.7,1564.3,300.7z"/>
<path fill="#495965" d="M1564.3,300.7c-0.1,0-0.2,0-0.3-0.1c-0.2-0.1-0.2-0.4-0.1-0.6l3.9-4.7c0.1-0.2,0.4-0.2,0.6-0.1
	s0.2,0.4,0.1,0.6l-3.9,4.7C1564.5,300.6,1564.4,300.7,1564.3,300.7z"/>
<path fill="#495965" d="M1551.6,307.3c-0.1,0-0.1,0-0.2-0.1l-5.3-3.2c-0.2-0.1-0.3-0.4-0.1-0.6c0.1-0.2,0.4-0.3,0.6-0.1l5.3,3.2
	c0.2,0.1,0.3,0.4,0.1,0.6C1551.9,307.3,1551.8,307.3,1551.6,307.3z"/>
<path fill="#495965" d="M1545.6,308.3c-0.2,0-0.4-0.1-0.4-0.3c0-0.2,0.1-0.4,0.3-0.5l6-0.9c0.2-0.1,0.4,0.1,0.5,0.3
	c0,0.2-0.1,0.4-0.3,0.5L1545.6,308.3C1545.7,308.3,1545.6,308.3,1545.6,308.3z"/>
<path fill="#495965" d="M1551.6,307.3c-0.2,0-0.3-0.1-0.4-0.3l-2-5.7c-0.1-0.2,0-0.4,0.2-0.5s0.4,0,0.5,0.2l2,5.7
	C1552,306.9,1551.9,307.1,1551.6,307.3C1551.7,307.3,1551.7,307.3,1551.6,307.3z"/>
<path fill="#495965" d="M1557.6,319.8L1557.6,319.8l-5.3-0.5c-0.2,0-0.4-0.2-0.4-0.4c0-0.2,0.2-0.4,0.4-0.4l5.3,0.5
	c0.2,0,0.4,0.2,0.4,0.4C1558,319.6,1557.8,319.8,1557.6,319.8z"/>
<path fill="#495965" d="M1553.3,322.7c-0.1,0-0.3-0.1-0.3-0.2c-0.1-0.2-0.1-0.4,0.1-0.6l4.3-3c0.2-0.1,0.4-0.1,0.6,0.1
	c0.1,0.2,0.1,0.4-0.1,0.6l-4.3,3C1553.5,322.7,1553.4,322.7,1553.3,322.7z"/>
<path fill="#495965" d="M1557.6,319.8c-0.1,0-0.2,0-0.3-0.1l-3.7-3.7c-0.2-0.2-0.2-0.4,0-0.6s0.4-0.2,0.6,0l3.7,3.7
	c0.2,0.2,0.2,0.4,0,0.6C1557.8,319.7,1557.7,319.8,1557.6,319.8z"/>
<path fill="#495965" d="M1541.9,327.1c-0.2,0-0.4-0.1-0.4-0.3c0-0.2,0.1-0.4,0.3-0.5l6.1-1.3c0.2,0,0.4,0.1,0.5,0.3
	c0,0.2-0.1,0.4-0.3,0.5L1541.9,327.1C1542,327.1,1542,327.1,1541.9,327.1z"/>
<path fill="#495965" d="M1544.2,330.6c-0.1,0-0.2,0-0.3-0.1c-0.2-0.1-0.2-0.4-0.1-0.6l3.8-4.8c0.1-0.2,0.4-0.2,0.6-0.1
	s0.2,0.4,0.1,0.6l-3.8,4.8C1544.4,330.5,1544.3,330.6,1544.2,330.6z"/>
<path fill="#495965" d="M1548,325.8c-0.1,0-0.1,0-0.2,0l-5.4-2.9c-0.2-0.1-0.3-0.4-0.2-0.6c0.1-0.2,0.4-0.3,0.6-0.2l5.4,2.9
	c0.2,0.1,0.3,0.4,0.2,0.6C1548.3,325.7,1548.1,325.8,1548,325.8z"/>
<path fill="#495965" d="M1577,307.3c-0.1,0-0.3-0.1-0.4-0.2c-0.1-0.2-0.1-0.4,0.1-0.6l5.3-3.2c0.2-0.1,0.4-0.1,0.6,0.1
	c0.1,0.2,0.1,0.4-0.1,0.6l-5.3,3.2C1577.1,307.3,1577.1,307.3,1577,307.3z"/>
<path fill="#495965" d="M1583,308.3L1583,308.3l-6.1-1c-0.2,0-0.4-0.2-0.3-0.5c0-0.2,0.2-0.4,0.5-0.3l6,0.9c0.2,0,0.4,0.2,0.3,0.5
	C1583.4,308.1,1583.2,308.3,1583,308.3z"/>
<path fill="#495965" d="M1577,307.3L1577,307.3c-0.3-0.1-0.4-0.3-0.3-0.5l2-5.7c0.1-0.2,0.3-0.3,0.5-0.2c0.2,0.1,0.3,0.3,0.2,0.5
	l-2,5.7C1577.3,307.2,1577.2,307.3,1577,307.3z"/>
<path fill="#495965" d="M1571,319.8c-0.2,0-0.4-0.2-0.4-0.4c0-0.2,0.1-0.4,0.4-0.4l5.3-0.5l0,0c0.2,0,0.4,0.2,0.4,0.4
	c0,0.2-0.1,0.4-0.4,0.4L1571,319.8C1571.1,319.8,1571,319.8,1571,319.8z"/>
<path fill="#495965" d="M1575.3,322.7c-0.1,0-0.2,0-0.2-0.1l-4.3-3c-0.2-0.1-0.2-0.4-0.1-0.6s0.4-0.2,0.6-0.1l4.3,3
	c0.2,0.1,0.2,0.4,0.1,0.6C1575.6,322.7,1575.4,322.7,1575.3,322.7z"/>
<path fill="#495965" d="M1571,319.8c-0.1,0-0.2,0-0.3-0.1c-0.2-0.2-0.2-0.4,0-0.6l3.7-3.7c0.2-0.2,0.4-0.2,0.6,0s0.2,0.4,0,0.6
	l-3.7,3.7C1571.2,319.7,1571.1,319.8,1571,319.8z"/>
<path fill="#495965" d="M1586.7,327.1C1586.7,327.1,1586.6,327.1,1586.7,327.1l-6.1-1.3c-0.2,0-0.4-0.3-0.3-0.5
	c0-0.2,0.2-0.4,0.5-0.3l6.1,1.3c0.2,0,0.4,0.3,0.3,0.5C1587,326.9,1586.9,327.1,1586.7,327.1z"/>
<path fill="#495965" d="M1584.4,330.6c-0.1,0-0.2-0.1-0.3-0.2l-3.8-4.8c-0.1-0.2-0.1-0.4,0.1-0.6c0.2-0.1,0.4-0.1,0.6,0.1l3.8,4.8
	c0.1,0.2,0.1,0.4-0.1,0.6C1584.6,330.6,1584.5,330.6,1584.4,330.6z"/>
<path fill="#495965" d="M1580.6,325.8c-0.1,0-0.3-0.1-0.4-0.2c-0.1-0.2,0-0.4,0.2-0.6l5.4-2.9c0.2-0.1,0.4,0,0.6,0.2
	c0.1,0.2,0,0.4-0.2,0.6l-5.4,2.9C1580.8,325.8,1580.7,325.8,1580.6,325.8z"/>
<path fill="#E9E9EB" d="M1416.3,125.1c4.6-26.5,2.1-49.3,2.1-49.3s-10,20.1-14.6,46.5c-4.6,26.5-2.1,49.3-2.1,49.3
	S1411.7,151.5,1416.3,125.1z"/>
<path fill="#495965" d="M1401.8,173.2c-0.1,0-0.2,0-0.3,0c-0.7-0.1-1.3-0.7-1.3-1.4c0-0.2-2.5-23.4,2.1-49.8s14.6-46.8,14.7-47
	c0.3-0.7,1-1,1.8-0.9c0.7,0.1,1.3,0.7,1.3,1.4c0,0.2,2.5,23.4-2.1,49.8l0,0c-4.6,26.4-14.6,46.8-14.7,47
	C1402.9,172.9,1402.4,173.2,1401.8,173.2z M1417.3,82.4c-3.3,7.8-8.8,22.6-11.8,40.1c-3.1,17.6-2.9,33.8-2.5,42.4
	c3.3-7.8,8.7-22.6,11.8-40.1C1417.8,107.1,1417.7,91,1417.3,82.4z M1416.4,125.1L1416.4,125.1L1416.4,125.1z"/>
<path fill="#E9E9EB" d="M1396.9,130.7c-6.9-25.8-18.5-44.7-18.5-44.7s-0.5,23,6.3,48.8c6.9,25.8,18.5,44.7,18.5,44.7
	S1403.8,156.5,1396.9,130.7z"/>
<path fill="#495965" d="M1403.3,181.1c-0.6,0-1.1-0.3-1.4-0.8c-0.1-0.2-11.9-19.4-18.7-45.1c-6.8-25.8-6.4-49.1-6.4-49.3
	c0-0.7,0.5-1.4,1.2-1.5c0.7-0.2,1.4,0.1,1.8,0.7c0.1,0.2,11.9,19.4,18.7,45.2l0,0c6.8,25.8,6.4,49.1,6.4,49.3c0,0.7-0.5,1.4-1.2,1.5
	C1403.5,181.1,1403.4,181.1,1403.3,181.1z M1380.2,92.4c0.3,8.6,1.6,24.7,6.2,42c4.5,17.1,11.3,31.2,15.2,38.7
	c-0.3-8.6-1.6-24.7-6.2-41.9C1390.8,114,1384.1,99.8,1380.2,92.4z"/>
<path fill="#E9E9EB" d="M1386.9,128.7c-13.3-22.4-29.3-36.6-29.3-36.6s5.5,22.2,18.8,44.6s29.4,36.5,29.4,36.5
	S1400.2,151.1,1386.9,128.7z"/>
<path fill="#495965" d="M1405.7,174.9c-0.4,0-0.8-0.1-1.1-0.4c-0.2-0.1-16.4-14.6-29.7-36.9c-13.3-22.4-18.9-44.8-19-45
	c-0.2-0.7,0.1-1.4,0.7-1.8s1.4-0.3,1.9,0.2c0.2,0.1,16.4,14.6,29.7,37l0,0c13.3,22.3,18.9,44.8,19,45c0.2,0.7-0.1,1.4-0.7,1.8
	C1406.2,174.8,1405.9,174.9,1405.7,174.9z M1360.8,97.6c2.5,8,7.9,23.2,16.9,38.3c8.8,14.9,19,26.2,24.7,31.9
	c-2.5-8-7.9-23.2-16.9-38.3l0,0C1376.6,114.7,1366.5,103.4,1360.8,97.6z"/>
<path fill="#E9E9EB" d="M1418.6,145.3c11.1-23.9,14.4-46.6,14.4-46.6s-14.6,16-25.7,39.9s-14.4,46.6-14.4,46.6
	S1407.5,169.1,1418.6,145.3z"/>
<path fill="#495965" d="M1392.9,186.8c-0.2,0-0.5-0.1-0.7-0.2c-0.7-0.3-1-1-0.9-1.7c0-0.2,3.5-23.2,14.6-47s25.8-40.2,26-40.3
	c0.5-0.5,1.3-0.7,1.9-0.4c0.7,0.3,1,1,0.9,1.7c0,0.2-3.5,23.2-14.6,47l0,0c-11.1,23.8-25.8,40.2-26,40.3
	C1393.8,186.6,1393.4,186.8,1392.9,186.8z M1430.3,104.5c-5.1,6.4-14.1,18.9-21.4,34.7c-7.5,16.1-11.4,31.7-13.1,40
	c5.1-6.4,14.1-18.9,21.4-34.7C1424.6,128.5,1428.5,112.8,1430.3,104.5z M1418.6,145.3L1418.6,145.3L1418.6,145.3z"/>
<path fill="#E9E9EB" d="M1405.7,118.4c0-27-6.4-48.8-6.4-48.8s-6.4,21.9-6.4,48.8c0,27,6.4,48.8,6.4,48.8S1405.7,145.4,1405.7,118.4
	z"/>
<path fill="#495965" d="M1399.3,168.9L1399.3,168.9c-0.7,0-1.4-0.5-1.6-1.2c-0.1-0.2-6.4-22.4-6.4-49.3s6.4-49.1,6.4-49.3
	c0.4-1.4,2.7-1.4,3.1,0c0.1,0.2,6.4,22.4,6.4,49.3s-6.4,49.1-6.4,49.3C1400.7,168.4,1400,168.9,1399.3,168.9z M1399.3,76.4
	c-1.9,8.4-4.7,24.1-4.7,42s2.9,33.7,4.7,42c1.9-8.4,4.7-24.1,4.7-42S1401.2,84.8,1399.3,76.4z"/>
<rect x="1359.2" y="141.4" fill="#E9E9EB" width="76.6" height="76.2"/>
<path fill="#495965" d="M1435.8,219.2h-76.6c-0.9,0-1.6-0.7-1.6-1.6v-76.2c0-0.9,0.7-1.6,1.6-1.6h76.6c0.9,0,1.6,0.7,1.6,1.6v76.2
	C1437.4,218.5,1436.7,219.2,1435.8,219.2z M1360.8,215.9h73.3V143h-73.3V215.9z"/>
<path fill="#E34094" d="M1423,166.2c-3.4,0-5.1-1.7-6.7-3.4c-1.6-1.6-3.1-3.1-6.1-3.1s-4.5,1.5-6.1,3.1c-1.6,1.7-3.3,3.4-6.7,3.4
	c-3.4,0-5-1.7-6.7-3.4c-1.6-1.6-3.1-3.1-6.1-3.1s-4.5,1.5-6.1,3.1c-1.6,1.7-3.3,3.4-6.7,3.4c-3.4,0-5-1.7-6.7-3.4
	c-1.6-1.6-3.1-3.1-6.1-3.1c-0.2,0-0.4-0.2-0.4-0.4s0.2-0.4,0.4-0.4c3.4,0,5,1.7,6.7,3.4c1.6,1.6,3.1,3.1,6.1,3.1s4.5-1.5,6.1-3.1
	c1.6-1.7,3.3-3.4,6.7-3.4c3.4,0,5,1.7,6.7,3.4c1.6,1.6,3.1,3.1,6.1,3.1s4.5-1.5,6.1-3.1c1.6-1.7,3.3-3.4,6.7-3.4
	c3.4,0,5.1,1.7,6.7,3.4c1.6,1.6,3.1,3.1,6.1,3.1s4.5-1.5,6.1-3.1c1.6-1.7,3.3-3.4,6.7-3.4c0.2,0,0.4,0.2,0.4,0.4s-0.2,0.4-0.4,0.4
	c-3,0-4.5,1.5-6.1,3.1C1428,164.5,1426.3,166.2,1423,166.2z"/>
<path fill="#E34094" d="M1423,175.3c-3.4,0-5.1-1.7-6.7-3.4c-1.6-1.6-3.1-3.1-6.1-3.1s-4.5,1.5-6.1,3.1c-1.6,1.7-3.3,3.4-6.7,3.4
	c-3.4,0-5-1.7-6.7-3.4c-1.6-1.6-3.1-3.1-6.1-3.1s-4.5,1.5-6.1,3.1c-1.6,1.7-3.3,3.4-6.7,3.4c-3.4,0-5-1.7-6.7-3.4
	c-1.6-1.6-3.1-3.1-6.1-3.1c-0.2,0-0.4-0.2-0.4-0.4s0.2-0.4,0.4-0.4c3.4,0,5,1.7,6.7,3.4c1.6,1.6,3.1,3.1,6.1,3.1s4.5-1.5,6.1-3.1
	c1.6-1.7,3.3-3.4,6.7-3.4c3.4,0,5,1.7,6.7,3.4c1.6,1.6,3.1,3.1,6.1,3.1s4.5-1.5,6.1-3.1c1.6-1.7,3.3-3.4,6.7-3.4
	c3.4,0,5.1,1.7,6.7,3.4c1.6,1.6,3.1,3.1,6.1,3.1s4.5-1.5,6.1-3.1c1.6-1.7,3.3-3.4,6.7-3.4c0.2,0,0.4,0.2,0.4,0.4s-0.2,0.4-0.4,0.4
	c-3,0-4.5,1.5-6.1,3.1C1428,173.5,1426.3,175.3,1423,175.3z"/>
<path fill="#495965" d="M1344.8,218.7h-62.6c-0.9,0-1.6-0.7-1.6-1.6v-9.8c0-0.9,0.7-1.6,1.6-1.6h62.6c0.9,0,1.6,0.7,1.6,1.6v9.8
	C1346.4,218,1345.7,218.7,1344.8,218.7z M1283.8,215.4h59.3v-6.5h-59.3V215.4z"/>
<path fill="#495965" d="M1336.5,208.9c-0.9,0-1.6-0.7-1.6-1.6V149c0-20.8-9.1-34.2-27.8-40.8c-0.9-0.3-1.3-1.2-1-2.1s1.2-1.3,2.1-1
	c20.2,7.2,30,21.5,30,43.9v58.2C1338.1,208.1,1337.4,208.9,1336.5,208.9z"/>
<path fill="#495965" d="M1302.9,114.1c-0.3,0-0.6-0.1-0.9-0.3l-19-12.3c-0.8-0.5-1-1.5-0.5-2.3l12.4-19.2c3.9-6,12-7.7,18-3.9
	c6,3.9,7.7,12,3.8,18l0,0l-12.5,19.2C1304,113.8,1303.5,114.1,1302.9,114.1z M1286.1,99.6l16.3,10.6l11.6-17.9
	c2.9-4.5,1.6-10.5-2.9-13.4s-10.5-1.6-13.4,2.9L1286.1,99.6z M1315.4,93.2L1315.4,93.2L1315.4,93.2z"/>
<path fill="#495965" d="M1299.9,150.5c-0.3,0-0.6-0.1-0.9-0.3l-48-31.1c-0.4-0.2-0.6-0.6-0.7-1s0-0.9,0.2-1.2
	c12.9-19.9,32.7-18.5,33.5-18.4c0.3,0,0.5,0.1,0.7,0.3l19.1,12.3c0.2,0.1,0.4,0.3,0.5,0.6c0.4,0.7,9.8,18.2-3,38
	C1301,150.2,1300.5,150.5,1299.9,150.5z M1254.2,117.3l45.2,29.3c9.6-16.2,3.4-30.6,2.2-32.9l-18.3-11.9
	C1280.6,101.6,1265.1,101.7,1254.2,117.3z"/>
<path fill="#495965" d="M1289,103.8c-0.1,0-0.2,0-0.2-0.1c-0.2-0.1-0.2-0.4-0.1-0.6l11.2-17.3c0.1-0.2,0.4-0.2,0.6-0.1
	s0.2,0.4,0.1,0.6l-11.2,17.3C1289.2,103.8,1289.1,103.8,1289,103.8z"/>
<path fill="#495965" d="M1297.6,109.4c-0.1,0-0.2,0-0.2-0.1c-0.2-0.1-0.2-0.4-0.1-0.6l11.2-17.3c0.1-0.2,0.4-0.2,0.6-0.1
	s0.2,0.4,0.1,0.6l-11.2,17.3C1297.8,109.3,1297.7,109.4,1297.6,109.4z"/>
<path fill="#495965" d="M1293.4,106.7c-0.1,0-0.2,0-0.2-0.1c-0.2-0.1-0.2-0.4-0.1-0.6l11.2-17.3c0.1-0.2,0.4-0.2,0.6-0.1
	s0.2,0.4,0.1,0.6l-11.2,17.3C1293.7,106.6,1293.5,106.7,1293.4,106.7z"/>
<path fill="#495965" d="M1304.6,208.9h-11.2c-0.9,0-1.6-0.7-1.6-1.6v-4.8c0-0.9,0.7-1.6,1.6-1.6h11.2c0.9,0,1.6,0.7,1.6,1.6v4.8
	C1306.2,208.1,1305.5,208.9,1304.6,208.9z M1295,205.6h7.9v-1.5h-7.9V205.6z"/>
<path fill="#495965" d="M1299,204.1c-0.9,0-1.6-0.7-1.6-1.6V195c0-0.9,0.7-1.6,1.6-1.6s1.6,0.7,1.6,1.6v7.4
	C1300.6,203.4,1299.9,204.1,1299,204.1z"/>
<polygon fill="#E9E9EB" points="1490.7,292.4 1501.9,348.9 1490,351.2 1478.9,294.7 1481.2,286.3 1482.5,281.5 1485.5,285.5 "/>
<path fill="#495965" d="M1490,351.6c-0.2,0-0.4-0.1-0.4-0.3l-11.1-56.5c0-0.1,0-0.1,0-0.2l3.5-13.2c0-0.2,0.2-0.3,0.3-0.3
	c0.2,0,0.3,0,0.4,0.2l8.3,10.9c0,0.1,0.1,0.1,0.1,0.2l11.1,56.5c0,0.2-0.1,0.4-0.3,0.5L1490,351.6
	C1490.1,351.6,1490.1,351.6,1490,351.6z M1479.3,294.7l11,56l11-2.2l-11-56l-7.7-10.1L1479.3,294.7z"/>
<path fill="#495965" d="M1482.8,295.8c-1.4,0-2.7-0.2-4-0.7c-0.1,0-0.2-0.1-0.3-0.3c0-0.1,0-0.2,0-0.3l3.5-13.2
	c0-0.2,0.2-0.3,0.3-0.3c0.2,0,0.3,0,0.4,0.2l8.3,10.9c0,0,0.1,0.1,0.1,0.2v0.1c0,0.1,0,0.3-0.1,0.4c-1.6,1.4-3.6,2.4-5.8,2.8
	C1484.4,295.7,1483.6,295.8,1482.8,295.8z M1479.4,294.5c1.8,0.6,3.8,0.7,5.7,0.3c1.9-0.4,3.7-1.2,5.2-2.4l-7.6-9.9L1479.4,294.5z"
	/>
<path fill="#495965" d="M1481.2,286.7c-0.1,0-0.2-0.1-0.3-0.2c-0.1-0.1-0.1-0.2-0.1-0.4l1.3-4.8c0-0.2,0.2-0.3,0.3-0.3
	c0.2,0,0.3,0,0.4,0.2l3,4c0.1,0.1,0.1,0.2,0.1,0.4c0,0.1-0.1,0.2-0.3,0.3c-0.7,0.2-1.4,0.5-2.2,0.6
	C1482.8,286.6,1482.1,286.7,1481.2,286.7L1481.2,286.7z M1482.6,282.4l-0.9,3.5c0.6,0,1.1-0.1,1.6-0.2s1-0.3,1.5-0.4L1482.6,282.4z"
	/>
<path fill="#495965" d="M1493.7,350.9c-0.2,0-0.4-0.1-0.4-0.3l-10.8-55.1c0-0.2,0.1-0.4,0.3-0.5c0.2-0.1,0.4,0.1,0.5,0.3l10.8,55.1
	C1494.2,350.6,1494,350.8,1493.7,350.9C1493.8,350.9,1493.8,350.9,1493.7,350.9z"/>
<path fill="#495965" d="M1498.2,350c-0.2,0-0.4-0.1-0.4-0.3l-10.9-55.1c0-0.2,0.1-0.4,0.3-0.5c0.2-0.1,0.4,0.1,0.5,0.3l10.9,55.1
	C1498.6,349.7,1498.5,349.9,1498.2,350L1498.2,350z"/>
<path fill="#E9E9EB" d="M1504.1,290.3v59.9h-8.8v-59.9c0-7.9,3.5-13.1,3.5-13.1h1.7C1500.6,277.3,1504.1,282.4,1504.1,290.3z"/>
<path fill="#495965" d="M1504.1,350.6h-8.8c-0.2,0-0.4-0.2-0.4-0.4v-59.9c0-8,3.4-13.1,3.6-13.3c0.1-0.1,0.2-0.2,0.3-0.2h1.7
	c0.1,0,0.3,0.1,0.3,0.2c0.1,0.2,3.6,5.3,3.6,13.3v59.9C1504.5,350.4,1504.3,350.6,1504.1,350.6z M1495.7,349.8h7.9v-59.5
	c0-6.9-2.7-11.7-3.3-12.6h-1.3c-0.6,1-3.3,5.8-3.3,12.6L1495.7,349.8L1495.7,349.8z"/>
<path fill="#495965" d="M1499.7,277.7c-0.2,0-0.4-0.2-0.4-0.4v-4.7c0-0.2,0.2-0.4,0.4-0.4s0.4,0.2,0.4,0.4v4.7
	C1500.1,277.5,1499.9,277.7,1499.7,277.7z"/>
<path fill="#495965" d="M1499.6,290.5c-2.6,0-4.4-0.8-4.5-0.9c-0.2-0.1-0.3-0.3-0.2-0.5c0.1-0.2,0.4-0.3,0.5-0.2c0,0,3.8,1.8,8.4,0
	c0.2-0.1,0.4,0,0.5,0.2s0,0.4-0.2,0.5C1502.5,290.3,1501,290.5,1499.6,290.5z"/>
<path fill="#E9E9EB" d="M1505.5,352.5c0,0,7.8-31.6,11.2-50.4c1.4-7.9-0.5-13.9-0.5-13.9l-2.2-0.4c0,0-3.9,5-5.3,12.9
	c-3.4,18.8-7,51.1-7,51.1L1505.5,352.5z"/>
<path fill="#E34094" d="M1505.5,352.9C1505.5,352.9,1505.4,352.9,1505.5,352.9l-3.8-0.7c-0.2,0-0.4-0.2-0.3-0.4
	c0-0.3,3.6-32.5,7-51.1c1.4-7.9,5.2-12.9,5.3-13.1c0.1-0.1,0.2-0.2,0.4-0.2l2.2,0.4c0.2,0,0.3,0.1,0.3,0.3c0.1,0.3,1.9,6.3,0.5,14.1
	c-3.3,18.6-11.1,50.1-11.2,50.4C1505.8,352.7,1505.7,352.9,1505.5,352.9z M1502.2,351.5l3,0.5c0.9-3.6,7.9-32.5,11.1-50
	c1.2-6.8-0.1-12.3-0.4-13.5l-1.7-0.3c-0.7,1-3.8,5.7-5,12.5C1506,318.2,1502.6,347.8,1502.2,351.5z"/>
<path fill="#E34094" d="M1514,300.7c-3.4,0-5-2-5.1-2.1c-0.1-0.2-0.1-0.4,0.1-0.6c0.2-0.1,0.4-0.1,0.6,0.1c0.1,0.1,2.4,2.9,7.4,1.3
	c0.2-0.1,0.4,0,0.5,0.3c0.1,0.2,0,0.4-0.3,0.5C1516,300.5,1514.9,300.7,1514,300.7z"/>
<path fill="#E9E9EB" d="M1515.6,288.1c2-0.8,3.2-2.1,3.6-5c0.8-5-3.8-8.1-3.8-8.1s0.8,1.2,0.5,2.9c-0.5,2.7-2.6,2.8-3,5
	c-0.5,2.9,0.7,4.1,1.5,5L1515.6,288.1z"/>
<path fill="#E34094" d="M1515.6,288.5L1515.6,288.5l-1.3-0.2c-0.1,0-0.2-0.1-0.2-0.1l-0.2-0.2c-0.8-1-2-2.3-1.4-5.2
	c0.2-1.2,0.9-1.8,1.5-2.4c0.7-0.7,1.3-1.3,1.5-2.6c0.3-1.5-0.4-2.6-0.4-2.6c-0.1-0.2-0.1-0.4,0.1-0.5c0.1-0.1,0.3-0.2,0.5,0
	c0.2,0.1,4.9,3.3,4,8.5c-0.5,2.8-1.5,4.3-3.9,5.3C1515.7,288.5,1515.7,288.5,1515.6,288.5z M1514.7,287.5l0.9,0.2
	c1.7-0.7,2.8-1.8,3.3-4.7c0.5-3.1-1.3-5.5-2.6-6.7c0.1,0.5,0.1,1,0,1.7c-0.3,1.5-1,2.3-1.7,3c-0.6,0.6-1.1,1.1-1.2,2
	C1512.9,285.4,1513.8,286.5,1514.7,287.5L1514.7,287.5z"/>
<path fill="#E34094" d="M1515.2,288.4c-0.1,0-0.2,0-0.2-0.1c-0.1-0.1-0.2-0.2-0.2-0.3c0,0.1-0.1,0.2-0.2,0.2
	c-0.2,0.1-0.4-0.1-0.5-0.3c-0.8-2.6,0.2-4.1,1-5.4c0.3-0.5,0.6-0.9,0.8-1.4c1.2-2.7-0.8-6-0.8-6.1c-0.1-0.2-0.1-0.4,0.1-0.5
	s0.4-0.1,0.6,0.1c0.1,0.2,3.3,4,2.1,8.3c-0.9,2.9-2.2,5.1-2.3,5.2C1515.5,288.3,1515.3,288.4,1515.2,288.4z M1517.1,279.2
	c0,0.8-0.1,1.6-0.4,2.4c-0.2,0.5-0.6,1-0.9,1.5c-0.8,1.3-1.6,2.4-0.9,4.7l0,0l0,0c0,0,1.3-2.1,2.2-5
	C1517.4,281.5,1517.3,280.3,1517.1,279.2z"/>
<rect x="1479.5" y="322.3" fill="#E9E9EB" width="39.3" height="58"/>
<path fill="#495965" d="M1518.8,382h-39.3c-0.9,0-1.6-0.7-1.6-1.6v-58c0-0.9,0.7-1.6,1.6-1.6h39.3c0.9,0,1.6,0.7,1.6,1.6v58
	C1520.4,381.3,1519.7,382,1518.8,382z M1481.1,378.7h36v-54.8h-36V378.7z"/>
<path fill="#495965" d="M1518.8,334.2h-39.3c-0.2,0-0.4-0.2-0.4-0.4c0-0.2,0.2-0.4,0.4-0.4h39.3c0.2,0,0.4,0.2,0.4,0.4
	C1519.2,334,1519,334.2,1518.8,334.2z"/>
<path fill="#495965" d="M1518.8,344.1h-39.3c-0.2,0-0.4-0.2-0.4-0.4s0.2-0.4,0.4-0.4h39.3c0.2,0,0.4,0.2,0.4,0.4
	S1519,344.1,1518.8,344.1z"/>
<path fill="#495965" d="M1288.2,271.2h-12.5c-0.9,0-1.6-0.7-1.6-1.6v-38.4h3.1v36.9h9.4v-36.9h3.1v38.4
	C1289.8,270.6,1289.1,271.2,1288.2,271.2z"/>
<circle fill="#495965" cx="1282" cy="257.7" r="2.1"/>
<circle fill="#495965" cx="1282" cy="244.2" r="2.1"/>
<path fill="#495965" d="M1481.4,434.4H1469c-0.9,0-1.6-0.7-1.6-1.6v-38.4h3.1v36.9h9.4v-36.9h3.1v38.4
	C1483,433.7,1482.3,434.4,1481.4,434.4z"/>
<circle fill="#495965" cx="1475.2" cy="420.9" r="2.1"/>
<circle fill="#495965" cx="1475.2" cy="407.4" r="2.1"/>
<rect x="396" y="580.6" fill="#E9E9EB" width="247.1" height="144.1"/>
<path fill="#495965" d="M643.1,725.1H396c-0.3,0-0.5-0.2-0.5-0.5v-144c0-0.3,0.2-0.5,0.5-0.5h247.1c0.3,0,0.5,0.2,0.5,0.5v144.1
	C643.6,724.9,643.4,725.1,643.1,725.1z M396.5,724.1h246.1v-143H396.5V724.1z"/>
<rect x="364.1" y="548.9" fill="#E9E9EB" width="529.8" height="31.7"/>
<path fill="#495965" d="M893.9,582.7H364.1c-1.2,0-2.1-0.9-2.1-2.1v-31.7c0-1.2,0.9-2.1,2.1-2.1h529.8c1.2,0,2.1,0.9,2.1,2.1v31.7
	C896,581.7,895,582.7,893.9,582.7z M366.2,578.5h525.6V551H366.2V578.5z"/>
<rect x="381.9" y="580.6" fill="#E9E9EB" width="14" height="323.4"/>
<path fill="#495965" d="M396,906.1h-14c-1.2,0-2.1-0.9-2.1-2.1V580.6c0-1.2,0.9-2.1,2.1-2.1h14c1.2,0,2.1,0.9,2.1,2.1V904
	C398.1,905.1,397.1,906.1,396,906.1z M384,901.9h9.8V582.7H384V901.9z"/>
<rect x="860.4" y="580.6" fill="#E9E9EB" width="14" height="323.4"/>
<path fill="#495965" d="M874.4,906.1h-14c-1.2,0-2.1-0.9-2.1-2.1V580.6c0-1.2,0.9-2.1,2.1-2.1h14c1.2,0,2.1,0.9,2.1,2.1V904
	C876.5,905.1,875.6,906.1,874.4,906.1z M862.5,901.9h9.8V582.7h-9.8V901.9z"/>
<rect x="643.1" y="580.6" fill="#E9E9EB" width="217.3" height="144.1"/>
<path fill="#495965" d="M860.4,726.7H643.1c-1.2,0-2.1-0.9-2.1-2.1v-144c0-1.2,0.9-2.1,2.1-2.1h217.3c1.2,0,2.1,0.9,2.1,2.1v144.1
	C862.5,725.8,861.6,726.7,860.4,726.7z M645.2,722.5h213.1V582.7H645.2V722.5z"/>
<rect x="656.7" y="594.4" fill="#E9E9EB" width="188.6" height="58.2"/>
<path fill="#495965" d="M845.3,653.1H656.7c-0.3,0-0.5-0.2-0.5-0.5v-58.2c0-0.3,0.2-0.5,0.5-0.5h188.6c0.3,0,0.5,0.2,0.5,0.5v58.2
	C845.8,652.9,845.6,653.1,845.3,653.1z M657.2,652.1h187.5v-57.2H657.2V652.1z"/>
<rect x="656.7" y="652.6" fill="#E9E9EB" width="188.6" height="58.2"/>
<path fill="#495965" d="M845.3,711.3H656.7c-0.3,0-0.5-0.2-0.5-0.5v-58.2c0-0.3,0.2-0.5,0.5-0.5h188.6c0.3,0,0.5,0.2,0.5,0.5v58.2
	C845.8,711.1,845.6,711.3,845.3,711.3z M657.2,710.3h187.5v-57.2H657.2V710.3z"/>
<path fill="#495965" d="M771.4,608.1h-40.8c-1.2,0-2.1-0.9-2.1-2.1s0.9-2.1,2.1-2.1h40.8c1.2,0,2.1,0.9,2.1,2.1
	S772.6,608.1,771.4,608.1z"/>
<path fill="#495965" d="M771.4,666.5h-40.8c-1.2,0-2.1-0.9-2.1-2.1s0.9-2.1,2.1-2.1h40.8c1.2,0,2.1,0.9,2.1,2.1
	S772.6,666.5,771.4,666.5z"/>
<rect x="560.8" y="539.6" fill="#E9E9EB" width="136.4" height="9.3"/>
<path fill="#495965" d="M697.2,551H560.8c-1.2,0-2.1-0.9-2.1-2.1v-9.3c0-1.2,0.9-2.1,2.1-2.1h136.4c1.2,0,2.1,0.9,2.1,2.1v9.3
	C699.3,550.1,698.3,551,697.2,551z M562.9,546.8h132.2v-5.1H562.9V546.8z"/>
<rect x="519.5" y="373.3" fill="#E9E9EB" width="219" height="145"/>
<path fill="#495965" d="M738.5,520.4h-219c-1.2,0-2.1-0.9-2.1-2.1v-145c0-1.2,0.9-2.1,2.1-2.1h219c1.2,0,2.1,0.9,2.1,2.1v145
	C740.6,519.5,739.6,520.4,738.5,520.4z M521.6,516.2h214.8V375.4H521.6V516.2z"/>
<rect x="532.1" y="385.9" fill="#E9E9EB" width="193.7" height="119.8"/>
<path fill="#495965" d="M725.8,506.2H532.1c-0.3,0-0.5-0.2-0.5-0.5V385.9c0-0.3,0.2-0.5,0.5-0.5h193.7c0.3,0,0.5,0.2,0.5,0.5v119.8
	C726.3,506,726.1,506.2,725.8,506.2z M532.6,505.2h192.6V386.4H532.6V505.2z"/>
<rect x="619.9" y="518.3" fill="#E9E9EB" width="18.1" height="21.3"/>
<path fill="#495965" d="M638,541.7h-18.1c-1.2,0-2.1-0.9-2.1-2.1v-21.3c0-1.2,0.9-2.1,2.1-2.1H638c1.2,0,2.1,0.9,2.1,2.1v21.3
	C640.1,540.8,639.2,541.7,638,541.7z M622,537.5h13.9v-17H622V537.5z"/>
<path fill="#E9E9EB" d="M639.9,357c0-6-4.9-10.9-10.9-10.9s-10.9,4.9-10.9,10.9s4.9,10.9,10.9,10.9S639.9,363,639.9,357z"/>
<path fill="#495965" d="M629,370c-7.2,0-13-5.8-13-13s5.8-13,13-13s13,5.8,13,13S636.1,370,629,370z M629,348.2
	c-4.9,0-8.8,4-8.8,8.8c0,4.9,4,8.8,8.8,8.8c4.9,0,8.8-3.9,8.8-8.8S633.8,348.2,629,348.2z"/>
<path fill="#E9E9EB" d="M632.3,357c0-1.8-1.5-3.3-3.3-3.3s-3.3,1.5-3.3,3.3s1.5,3.3,3.3,3.3S632.3,358.8,632.3,357z"/>
<path fill="#495965" d="M629,360.8c-2.1,0-3.8-1.7-3.8-3.8s1.7-3.8,3.8-3.8s3.8,1.7,3.8,3.8S631.1,360.8,629,360.8z M629,354.2
	c-1.5,0-2.8,1.2-2.8,2.8c0,1.5,1.2,2.8,2.8,2.8c1.5,0,2.8-1.2,2.8-2.8C631.7,355.5,630.5,354.2,629,354.2z"/>
<rect x="619.9" y="368.4" fill="#E9E9EB" width="18.1" height="9.8"/>
<path fill="#495965" d="M638,380.3h-18.1c-1.2,0-2.1-0.9-2.1-2.1v-9.8c0-1.2,0.9-2.1,2.1-2.1H638c1.2,0,2.1,0.9,2.1,2.1v9.8
	C640.1,379.3,639.2,380.3,638,380.3z M622,376.1h13.9v-5.6H622V376.1z"/>
<rect x="396" y="670.6" fill="#E9E9EB" width="95.6" height="233.4"/>
<path fill="#495965" d="M491.6,906.1H396c-1.2,0-2.1-0.9-2.1-2.1V670.6c0-1.2,0.9-2.1,2.1-2.1h95.6c1.2,0,2.1,0.9,2.1,2.1V904
	C493.7,905.1,492.8,906.1,491.6,906.1z M398.1,901.9h91.4V672.7h-91.4V901.9z"/>
<rect x="411.1" y="690.4" fill="#E9E9EB" width="65.3" height="20.4"/>
<path fill="#495965" d="M476.4,712.9h-65.3c-1.2,0-2.1-0.9-2.1-2.1v-20.4c0-1.2,0.9-2.1,2.1-2.1h65.3c1.2,0,2.1,0.9,2.1,2.1v20.4
	C478.6,712,477.6,712.9,476.4,712.9z M413.3,708.7h61.1v-16.2h-61.1V708.7z"/>
<path fill="#495965" d="M468.3,701.1h-49c-0.3,0-0.5-0.2-0.5-0.5s0.2-0.5,0.5-0.5h49c0.3,0,0.5,0.2,0.5,0.5
	C468.8,700.9,468.6,701.1,468.3,701.1z"/>
<path fill="#495965" d="M476.4,725.1h-65.3c-0.3,0-0.5-0.2-0.5-0.5s0.2-0.5,0.5-0.5h65.3c0.3,0,0.5,0.2,0.5,0.5
	C477,724.9,476.7,725.1,476.4,725.1z"/>
<path fill="#495965" d="M476.4,737.2h-65.3c-0.3,0-0.5-0.2-0.5-0.5s0.2-0.5,0.5-0.5h65.3c0.3,0,0.5,0.2,0.5,0.5
	S476.7,737.2,476.4,737.2z"/>
<path fill="#495965" d="M476.4,749.2h-65.3c-0.3,0-0.5-0.2-0.5-0.5s0.2-0.5,0.5-0.5h65.3c0.3,0,0.5,0.2,0.5,0.5
	C477,749,476.7,749.2,476.4,749.2z"/>
<path fill="#495965" d="M476.4,761.3h-65.3c-0.3,0-0.5-0.2-0.5-0.5s0.2-0.5,0.5-0.5h65.3c0.3,0,0.5,0.2,0.5,0.5
	C477,761,476.7,761.3,476.4,761.3z"/>
<path fill="#495965" d="M476.4,889.7h-65.3c-0.3,0-0.5-0.2-0.5-0.5v-50.4c0-0.3,0.2-0.5,0.5-0.5h65.3c0.3,0,0.5,0.2,0.5,0.5v50.4
	C477,889.4,476.7,889.7,476.4,889.7z M411.7,888.6h64.2v-49.4h-64.2V888.6z"/>
<path fill="#495965" d="M419.3,792.1c-4.3,0-7.8-3.5-7.8-7.8s3.5-7.8,7.8-7.8s7.8,3.5,7.8,7.8S423.6,792.1,419.3,792.1z
	 M419.3,777.5c-3.7,0-6.8,3-6.8,6.8c0,3.7,3,6.7,6.8,6.7c3.7,0,6.7-3,6.7-6.7C426.1,780.5,423,777.5,419.3,777.5z"/>
<path fill="#495965" d="M443.8,792.1c-4.3,0-7.8-3.5-7.8-7.8s3.5-7.8,7.8-7.8s7.8,3.5,7.8,7.8S448.1,792.1,443.8,792.1z
	 M443.8,777.5c-3.7,0-6.7,3-6.7,6.8c0,3.7,3,6.7,6.7,6.7s6.7-3,6.7-6.7C450.5,780.5,447.5,777.5,443.8,777.5z"/>
<path fill="#495965" d="M468.3,792.1c-4.3,0-7.8-3.5-7.8-7.8s3.5-7.8,7.8-7.8s7.8,3.5,7.8,7.8S472.6,792.1,468.3,792.1z
	 M468.3,777.5c-3.7,0-6.8,3-6.8,6.8c0,3.7,3,6.7,6.8,6.7c3.7,0,6.8-3,6.8-6.7C475,780.5,472,777.5,468.3,777.5z"/>
<path fill="#495965" d="M440.2,505.3c-12.7,0-23.1-13.8-23.1-30.8s10.4-30.8,23.1-30.8s23.1,13.8,23.1,30.8S452.9,505.3,440.2,505.3
	z M440.2,447.9c-10.4,0-18.9,11.9-18.9,26.6s8.5,26.6,18.9,26.6s18.9-11.9,18.9-26.6S450.6,447.9,440.2,447.9z"/>
<polygon fill="#E9E9EB" points="459.2,548.9 471.7,495.4 408.7,495.4 421.2,548.9 "/>
<path fill="#495965" d="M459.2,551h-38c-1,0-1.8-0.7-2.1-1.6l-12.4-53.5c-0.1-0.6,0-1.3,0.4-1.8s1-0.8,1.7-0.8h62.9
	c0.6,0,1.3,0.3,1.7,0.8s0.5,1.2,0.4,1.8l-12.4,53.5C461.1,550.3,460.2,551,459.2,551z M422.9,546.8h34.7l11.5-49.3h-57.7
	L422.9,546.8z"/>
<path fill="#495965" d="M434.6,496c-0.2,0-0.4-0.1-0.5-0.4c-10.2-30.4,5.6-49.9,5.7-50.1c0.2-0.2,0.5-0.3,0.7-0.1
	c0.2,0.2,0.3,0.5,0.1,0.7c-0.2,0.2-15.6,19.3-5.5,49.1c0.1,0.3-0.1,0.6-0.3,0.7C434.7,496,434.6,496,434.6,496z"/>
<path fill="#495965" d="M445.8,496c-0.1,0-0.1,0-0.2,0c-0.3-0.1-0.4-0.4-0.3-0.7c10-29.8-5.4-48.9-5.5-49.1
	c-0.2-0.2-0.2-0.6,0.1-0.7c0.2-0.2,0.6-0.2,0.7,0.1c0.2,0.2,16,19.7,5.7,50.1C446.3,495.8,446.1,496,445.8,496z"/>
<path fill="#495965" d="M440.2,446.3c-0.3,0-0.5-0.2-0.5-0.5v-8c0-0.3,0.2-0.5,0.5-0.5s0.5,0.2,0.5,0.5v8
	C440.7,446.1,440.5,446.3,440.2,446.3z"/>
<path fill="#495965" d="M440.2,446.3c-0.1,0-0.3-0.1-0.4-0.2l-5-6c-0.2-0.2-0.2-0.6,0.1-0.7c0.2-0.2,0.6-0.2,0.7,0.1l5,6
	c0.2,0.2,0.2,0.6-0.1,0.7C440.4,446.3,440.3,446.3,440.2,446.3z"/>
<path fill="#495965" d="M440.2,446.3c-0.1,0-0.2,0-0.3-0.1c-0.2-0.2-0.3-0.5-0.1-0.7l5-6c0.2-0.2,0.5-0.3,0.7-0.1
	c0.2,0.2,0.3,0.5,0.1,0.7l-5,6C440.5,446.3,440.4,446.3,440.2,446.3z"/>
<path fill="#495965" d="M423.9,454.9c-0.1,0-0.2,0-0.3-0.1l-6.8-4.1c-0.2-0.1-0.3-0.5-0.2-0.7c0.1-0.3,0.5-0.3,0.7-0.2l6.8,4.1
	c0.2,0.1,0.3,0.5,0.2,0.7C424.2,454.8,424,454.9,423.9,454.9z"/>
<path fill="#495965" d="M416.1,456.1c-0.3,0-0.5-0.2-0.5-0.4c0-0.3,0.1-0.6,0.4-0.6l7.7-1.2c0.3-0.1,0.6,0.2,0.6,0.4
	c0,0.3-0.1,0.6-0.4,0.6L416.1,456.1C416.2,456.1,416.2,456.1,416.1,456.1z"/>
<path fill="#495965" d="M423.9,454.9c-0.2,0-0.4-0.1-0.5-0.4l-2.6-7.4c-0.1-0.3,0-0.6,0.3-0.7s0.6,0,0.7,0.3l2.6,7.4
	c0.1,0.3,0,0.6-0.3,0.7C424,454.9,423.9,454.9,423.9,454.9z"/>
<path fill="#495965" d="M431.5,470.9L431.5,470.9l-6.8-0.6c-0.3,0-0.5-0.3-0.5-0.6c0-0.3,0.3-0.6,0.6-0.5l6.8,0.6
	c0.3,0,0.5,0.3,0.5,0.6C432,470.7,431.8,470.9,431.5,470.9z"/>
<path fill="#495965" d="M426,474.7c-0.2,0-0.3-0.1-0.4-0.2c-0.2-0.2-0.1-0.6,0.1-0.7l5.5-3.8c0.2-0.2,0.6-0.1,0.7,0.1
	c0.2,0.2,0.1,0.6-0.1,0.7l-5.5,3.8C426.2,474.7,426.1,474.7,426,474.7z"/>
<path fill="#495965" d="M431.5,470.9c-0.1,0-0.3-0.1-0.4-0.2l-4.8-4.7c-0.2-0.2-0.2-0.5,0-0.7s0.5-0.2,0.7,0l4.8,4.7
	c0.2,0.2,0.2,0.5,0,0.7C431.8,470.8,431.7,470.9,431.5,470.9z"/>
<path fill="#495965" d="M411.4,480.3c-0.2,0-0.5-0.2-0.5-0.4c-0.1-0.3,0.1-0.6,0.4-0.6l7.8-1.6c0.3,0,0.6,0.1,0.6,0.4
	c0.1,0.3-0.1,0.6-0.4,0.6L411.4,480.3L411.4,480.3z"/>
<path fill="#495965" d="M414.3,484.8c-0.1,0-0.2,0-0.3-0.1c-0.2-0.2-0.3-0.5-0.1-0.7l4.9-6.1c0.2-0.2,0.5-0.3,0.7-0.1
	c0.2,0.2,0.3,0.5,0.1,0.7l-4.9,6.1C414.6,484.8,414.5,484.8,414.3,484.8z"/>
<path fill="#495965" d="M419.2,478.7c-0.1,0-0.2,0-0.2-0.1l-7-3.6c-0.3-0.1-0.4-0.5-0.2-0.7c0.1-0.3,0.5-0.4,0.7-0.2l6.9,3.7
	c0.3,0.1,0.4,0.5,0.2,0.7C419.6,478.6,419.4,478.7,419.2,478.7z"/>
<path fill="#495965" d="M456.5,454.9c-0.2,0-0.4-0.1-0.5-0.3c-0.1-0.3-0.1-0.6,0.2-0.7l6.8-4.1c0.3-0.1,0.6-0.1,0.7,0.2
	c0.1,0.3,0.1,0.6-0.2,0.7l-6.8,4.1C456.7,454.9,456.6,454.9,456.5,454.9z"/>
<path fill="#495965" d="M464.3,456.1C464.2,456.1,464.2,456.1,464.3,456.1l-7.8-1.2c-0.3,0-0.5-0.3-0.4-0.6c0-0.3,0.3-0.5,0.6-0.4
	l7.7,1.2c0.3,0,0.5,0.3,0.4,0.6C464.8,455.9,464.5,456.1,464.3,456.1z"/>
<path fill="#495965" d="M456.5,454.9c-0.1,0-0.1,0-0.2,0c-0.3-0.1-0.4-0.4-0.3-0.7l2.6-7.4c0.1-0.3,0.4-0.4,0.7-0.3
	c0.3,0.1,0.4,0.4,0.3,0.7l-2.6,7.4C457,454.8,456.7,454.9,456.5,454.9z"/>
<path fill="#495965" d="M448.9,470.9c-0.3,0-0.5-0.2-0.5-0.5s0.2-0.5,0.5-0.6l6.8-0.6c0.3-0.1,0.5,0.2,0.6,0.5
	c0,0.3-0.2,0.5-0.5,0.6L448.9,470.9L448.9,470.9z"/>
<path fill="#495965" d="M454.4,474.7c-0.1,0-0.2,0-0.3-0.1l-5.5-3.8c-0.2-0.2-0.3-0.5-0.1-0.7c0.2-0.2,0.5-0.3,0.7-0.1l5.5,3.8
	c0.2,0.2,0.3,0.5,0.1,0.7C454.7,474.7,454.5,474.7,454.4,474.7z"/>
<path fill="#495965" d="M448.9,470.9c-0.1,0-0.3-0.1-0.4-0.2c-0.2-0.2-0.2-0.5,0-0.7l4.8-4.7c0.2-0.2,0.5-0.2,0.7,0s0.2,0.5,0,0.7
	l-4.8,4.7C449.1,470.8,449,470.9,448.9,470.9z"/>
<path fill="#495965" d="M469,480.3h-0.1l-7.8-1.6c-0.3-0.1-0.5-0.3-0.4-0.6c0.1-0.3,0.3-0.4,0.6-0.4l7.8,1.6
	c0.3,0.1,0.5,0.3,0.4,0.6C469.5,480.1,469.2,480.3,469,480.3z"/>
<path fill="#495965" d="M466.1,484.8c-0.2,0-0.3-0.1-0.4-0.2l-4.9-6.1c-0.2-0.2-0.1-0.6,0.1-0.7c0.2-0.2,0.6-0.1,0.7,0.1l4.9,6.1
	c0.2,0.2,0.1,0.6-0.1,0.7C466.3,484.8,466.2,484.8,466.1,484.8z"/>
<path fill="#495965" d="M461.2,478.7c-0.2,0-0.4-0.1-0.5-0.3c-0.1-0.3,0-0.6,0.2-0.7l6.9-3.7c0.3-0.1,0.6,0,0.7,0.2
	c0.1,0.3,0,0.6-0.2,0.7l-6.9,3.7C461.4,478.7,461.3,478.7,461.2,478.7z"/>
<path fill="#E9E9EB" d="M795.1,531.8c-21.7,0-23.7,17.1-23.7,17.1h46.3C817.8,548.9,816.8,531.8,795.1,531.8z"/>
<path fill="#495965" d="M817.8,551h-46.3c-0.6,0-1.2-0.3-1.6-0.7c-0.4-0.4-0.6-1-0.5-1.6c0-0.2,2.4-19,25.7-19
	c23.5,0,24.8,18.9,24.8,19.1c0,0.6-0.2,1.1-0.6,1.6C818.9,550.8,818.3,551,817.8,551z M774,546.8h41.2c-1.1-4.2-5.2-12.9-20.2-12.9
	C780,533.9,775.4,542.5,774,546.8z"/>
<path fill="#495965" d="M795.1,549.4c-0.3,0-0.5-0.2-0.5-0.5v-17.1c0-0.3,0.2-0.5,0.5-0.5s0.5,0.2,0.5,0.5v17.1
	C795.6,549.2,795.4,549.4,795.1,549.4z"/>
<polygon fill="#E9E9EB" points="668.6,427.5 668.6,470.3 596,470.3 596,421.3 625.4,421.3 632,427.5 "/>
<path fill="#E9E9EB" d="M349.9,228.5c0-8.1-6.6-14.6-14.6-14.6c-8.1,0-14.6,6.6-14.6,14.6c0,8.1,6.6,14.7,14.6,14.7
	C343.4,243.1,349.9,236.6,349.9,228.5z"/>
<path fill="#E34094" d="M335.3,245c-9.1,0-16.5-7.4-16.5-16.5s7.4-16.5,16.5-16.5s16.5,7.4,16.5,16.5
	C351.7,237.6,344.3,245,335.3,245z M335.3,215.7c-7.1,0-12.8,5.8-12.8,12.8c0,7.1,5.8,12.8,12.8,12.8s12.8-5.8,12.8-12.8
	C348.1,221.4,342.3,215.7,335.3,215.7z"/>
<path fill="#E9E9EB" d="M368.6,781.7c0-18.4-14.9-33.3-33.3-33.3S302,763.3,302,781.7"/>
<path fill="#495965" d="M368.6,783.5c-1,0-1.8-0.8-1.8-1.8c0-17.4-14.1-31.5-31.5-31.5s-31.5,14.1-31.5,31.5c0,1-0.8,1.8-1.8,1.8
	s-1.8-0.8-1.8-1.8c0-19.4,15.8-35.1,35.1-35.1c19.3,0,35.1,15.8,35.1,35.1C370.4,782.7,369.6,783.5,368.6,783.5z"/>
<rect x="289.7" y="782" fill="#E9E9EB" width="91.2" height="11.6"/>
<path fill="#495965" d="M380.9,795.4h-91.2c-1,0-1.8-0.8-1.8-1.8V782c0-1,0.8-1.8,1.8-1.8h91.2c1,0,1.8,0.8,1.8,1.8v11.6
	C382.7,794.6,381.9,795.4,380.9,795.4z M291.5,791.8h87.6v-7.9h-87.6V791.8z"/>
<path fill="#495965" d="M335.3,750.2c-1,0-1.8-0.8-1.8-1.8V289.5c0-1,0.8-1.8,1.8-1.8s1.8,0.8,1.8,1.8v458.9
	C337.1,749.4,336.3,750.2,335.3,750.2z"/>
<path fill="#E9E9EB" d="M350.2,266c0,11.2-9.4,23.5-15,23.5s-15-12.3-15-23.5"/>
<path fill="#495965" d="M335.3,291.3c-6.8,0-16.8-13.3-16.8-25.3c0-1,0.8-1.8,1.8-1.8s1.8,0.8,1.8,1.8c0,10.8,9,21.7,13.1,21.7
	s13.1-10.9,13.1-21.7c0-1,0.8-1.8,1.8-1.8s1.9,0.8,1.9,1.8C352,278,342,291.3,335.3,291.3z"/>
<path fill="#E9E9EB" d="M270,225.5c0,0,13.9,25.1,37.5,36.4c10,4.8,18.4,6.3,27.8,6.3s17.7-1.5,27.8-6.3
	c23.6-11.3,37.5-36.4,37.5-36.4H270z"/>
<path fill="#495965" d="M335.3,270c-10.6,0-19.2-1.9-28.6-6.4c-23.8-11.4-37.7-36.1-38.3-37.1c-0.3-0.6-0.3-1.3,0-1.8
	c0.3-0.6,0.9-0.9,1.6-0.9h130.5c0.6,0,1.2,0.3,1.6,0.9c0.3,0.6,0.3,1.2,0,1.8c-0.6,1-14.4,25.7-38.3,37.1
	C354.4,268,345.9,270,335.3,270z M273.3,227.3c4.3,6.7,16.7,24.2,35,32.9c8.9,4.3,17,6.1,27,6.1s18.1-1.8,27-6.1
	c18.3-8.8,30.7-26.2,35-32.9L273.3,227.3L273.3,227.3z"/>
<path fill="#495965" d="M395.9,233H274.7c-0.3,0-0.5-0.2-0.5-0.5s0.2-0.5,0.5-0.5h121.2c0.3,0,0.5,0.2,0.5,0.5S396.1,233,395.9,233z
	"/>
</svg>
