<?xml version="1.0" encoding="utf-8"?>
<!-- Generator: Adobe Illustrator 22.1.0, SVG Export Plug-In . SVG Version: 6.00 Build 0)  -->
<svg version="1.1" id="Isolation_Mode" xmlns="http://www.w3.org/2000/svg" xmlns:xlink="http://www.w3.org/1999/xlink" x="0px"
	 y="0px" width="765px" height="610px" viewBox="0 0 765 610" enable-background="new 0 0 765 610" xml:space="preserve">
<g>
	
		<rect x="420.8" y="296.7" fill="#E9E9EB" stroke="#495965" stroke-width="3" stroke-linecap="round" stroke-linejoin="round" stroke-miterlimit="10" width="142.9" height="87"/>
	
		<rect x="428.8" y="304.7" fill="none" stroke="#C6CDD1" stroke-width="2" stroke-linecap="round" stroke-linejoin="round" stroke-miterlimit="10" width="126.9" height="71"/>
	
		<path fill="#E9E9EB" stroke="#495965" stroke-width="3" stroke-linecap="round" stroke-linejoin="round" stroke-miterlimit="10" d="
		M426.5,283.2h-4.8c-0.6,0-1,0.4-1,1v12.6h6.8v-12.6C427.5,283.7,427.1,283.2,426.5,283.2z"/>
	
		<path fill="#E9E9EB" stroke="#495965" stroke-width="3" stroke-linecap="round" stroke-linejoin="round" stroke-miterlimit="10" d="
		M562.2,283.2h-4.8c-0.6,0-1,0.4-1,1v12.6h6.8v-12.6C563.2,283.7,562.8,283.2,562.2,283.2z"/>
</g>
<g>
	
		<rect x="573.4" y="296.7" fill="#E9E9EB" stroke="#495965" stroke-width="3" stroke-linecap="round" stroke-linejoin="round" stroke-miterlimit="10" width="142.9" height="87"/>
	
		<rect x="581.4" y="304.7" fill="none" stroke="#C6CDD1" stroke-width="2" stroke-linecap="round" stroke-linejoin="round" stroke-miterlimit="10" width="126.9" height="71"/>
	
		<path fill="#E9E9EB" stroke="#495965" stroke-width="3" stroke-linecap="round" stroke-linejoin="round" stroke-miterlimit="10" d="
		M579.2,283.2h-4.8c-0.6,0-1,0.4-1,1v12.6h6.8v-12.6C580.2,283.7,579.7,283.2,579.2,283.2z"/>
	
		<path fill="#E9E9EB" stroke="#495965" stroke-width="3" stroke-linecap="round" stroke-linejoin="round" stroke-miterlimit="10" d="
		M714.8,283.2h-4.8c-0.6,0-1,0.4-1,1v12.6h6.8v-12.6C715.8,283.7,715.4,283.2,714.8,283.2z"/>
</g>
<g>
	<g>
		
			<path fill="#E9E9EB" stroke="#E34094" stroke-width="3" stroke-linecap="round" stroke-linejoin="round" stroke-miterlimit="10" d="
			M379.3,347.7c0-8.6-6.9-15.5-15.5-15.5c-8.5,0-15.5,6.9-15.5,15.5c0,8.5,6.9,15.5,15.5,15.5C372.3,363.2,379.3,356.3,379.3,347.7z
			"/>
		
			<path fill="#E9E9EB" stroke="#E34094" stroke-width="3" stroke-linecap="round" stroke-linejoin="round" stroke-miterlimit="10" d="
			M352.3,359.4c0-8.6-6.9-15.5-15.5-15.5c-8.5,0-15.5,6.9-15.5,15.5c0,8.5,6.9,15.5,15.5,15.5C345.4,374.8,352.3,367.9,352.3,359.4z
			"/>
		
			<path fill="#E9E9EB" stroke="#E34094" stroke-width="3" stroke-linecap="round" stroke-linejoin="round" stroke-miterlimit="10" d="
			M401.3,362.1c1.5-8.4-4.1-16.4-12.5-17.9c-8.4-1.5-16.5,4.1-17.9,12.5c-1.5,8.4,4.1,16.4,12.5,17.9
			C391.8,376.1,399.8,370.5,401.3,362.1z"/>
		
			<path fill="#E9E9EB" stroke="#E34094" stroke-width="3" stroke-linecap="round" stroke-linejoin="round" stroke-miterlimit="10" d="
			M375.8,366.9c0-8.5-6.9-15.5-15.5-15.5c-8.5,0-15.5,6.9-15.5,15.5c0,8.5,6.9,15.5,15.5,15.5C368.9,382.4,375.8,375.4,375.8,366.9z
			"/>
		
			<line fill="none" stroke="#E34094" stroke-width="2" stroke-linecap="round" stroke-linejoin="round" stroke-miterlimit="10" x1="328.3" y1="350.8" x2="322.3" y2="344.8"/>
		
			<line fill="none" stroke="#E34094" stroke-width="2" stroke-linecap="round" stroke-linejoin="round" stroke-miterlimit="10" x1="361.4" y1="335.9" x2="359.7" y2="327.6"/>
		
			<line fill="none" stroke="#E34094" stroke-width="2" stroke-linecap="round" stroke-linejoin="round" stroke-miterlimit="10" x1="397.7" y1="356" x2="405.8" y2="353.6"/>
	</g>
	
		<path fill="#E9E9EB" stroke="#495965" stroke-width="3" stroke-linecap="round" stroke-linejoin="round" stroke-miterlimit="10" d="
		M419.3,369.7c0,0-5.7,9.4-16.7,11.8h-84.7c-10.9-2.3-16.6-11.8-16.6-11.8H419.3z"/>
	
		<rect x="2" y="381.5" fill="#E9E9EB" stroke="#495965" stroke-width="3" stroke-linecap="round" stroke-linejoin="round" stroke-miterlimit="10" width="814.9" height="17.3"/>
	
		<rect x="42.8" y="398.8" fill="#E9E9EB" stroke="#495965" stroke-width="3" stroke-linecap="round" stroke-linejoin="round" stroke-miterlimit="10" width="734.4" height="37.2"/>
	
		<path fill="#E9E9EB" stroke="#495965" stroke-width="3" stroke-linecap="round" stroke-linejoin="round" stroke-miterlimit="10" d="
		M799.2,369.7c0,0-4.4,9.4-12.7,11.8h-64.4c-8.3-2.3-12.7-11.8-12.7-11.8H799.2z"/>
	<g>
		
			<path fill="#E9E9EB" stroke="#495965" stroke-width="3" stroke-linecap="round" stroke-linejoin="round" stroke-miterlimit="10" d="
			M766.3,369.7c10.4-15.5,7.9-33.8,7.9-33.8h-39.7c0,0-2.6,18.3,7.9,33.8H766.3z"/>
		<path fill="none" stroke="#C6CDD1" stroke-width="2" stroke-linecap="round" stroke-linejoin="round" stroke-miterlimit="10" d="
			M774.6,346.7c3.1-3.4,11.8-3.8,9.4,6.1c-2.1,8.8-13.2,8.5-13.2,8.5"/>
	</g>
	
		<line fill="none" stroke="#E34094" stroke-linecap="round" stroke-linejoin="round" stroke-miterlimit="10" x1="736.2" y1="341.4" x2="776.5" y2="341.4"/>
	
		<line fill="none" stroke="#E34094" stroke-linecap="round" stroke-linejoin="round" stroke-miterlimit="10" x1="714" y1="373.9" x2="798.5" y2="373.9"/>
	<path fill="none" stroke="#C6CDD1" stroke-width="2" stroke-linecap="round" stroke-linejoin="round" stroke-miterlimit="10" d="
		M131.6,381.5c0,0-14-19.9-14-45.5c0-25.6,22.4-22.3,10.5-54.2h27.5C143.7,313.7,166,310.4,166,336c0,25.6-14,45.5-14,45.5H131.6z"
		/>
	
		<polygon fill="#E9E9EB" stroke="#495965" stroke-width="3" stroke-linecap="round" stroke-linejoin="round" stroke-miterlimit="10" points="
		173.8,344.6 145.2,344.6 147.8,381.5 171.2,381.5 	"/>
	
		<line fill="none" stroke="#C6CDD1" stroke-width="2" stroke-linecap="round" stroke-linejoin="round" stroke-miterlimit="10" x1="153" y1="344.6" x2="155.7" y2="381.5"/>
	
		<line fill="none" stroke="#C6CDD1" stroke-width="2" stroke-linecap="round" stroke-linejoin="round" stroke-miterlimit="10" x1="166.4" y1="344.6" x2="164.5" y2="381.5"/>
</g>
<rect x="32.5" y="660" fill="#E9E9EB" stroke="#495965" stroke-width="3" stroke-linecap="round" stroke-linejoin="round" stroke-miterlimit="10" width="754.6" height="31.8"/>
<rect x="348.7" y="436.2" fill="#E9E9EB" stroke="#495965" stroke-width="3" stroke-linecap="round" stroke-linejoin="round" stroke-miterlimit="10" width="116.9" height="223.8"/>
<rect x="348.7" y="436.2" fill="#E9E9EB" stroke="#495965" stroke-width="3" stroke-linecap="round" stroke-linejoin="round" stroke-miterlimit="10" width="116.9" height="44.8"/>
<rect x="348.7" y="480.9" fill="#E9E9EB" stroke="#495965" stroke-width="3" stroke-linecap="round" stroke-linejoin="round" stroke-miterlimit="10" width="116.9" height="44.8"/>
<rect x="348.7" y="525.7" fill="#E9E9EB" stroke="#495965" stroke-width="3" stroke-linecap="round" stroke-linejoin="round" stroke-miterlimit="10" width="116.9" height="44.8"/>
<rect x="348.7" y="570.5" fill="#E9E9EB" stroke="#495965" stroke-width="3" stroke-linecap="round" stroke-linejoin="round" stroke-miterlimit="10" width="116.9" height="44.8"/>
<rect x="348.7" y="615.2" fill="#E9E9EB" stroke="#495965" stroke-width="3" stroke-linecap="round" stroke-linejoin="round" stroke-miterlimit="10" width="116.9" height="44.8"/>
<rect x="231.9" y="436.2" fill="#E9E9EB" stroke="#495965" stroke-width="3" stroke-linecap="round" stroke-linejoin="round" stroke-miterlimit="10" width="116.9" height="223.8"/>
<line fill="none" stroke="#C6CDD1" stroke-width="2" stroke-linecap="round" stroke-linejoin="round" stroke-miterlimit="10" x1="248.7" y1="448.6" x2="331.9" y2="448.6"/>
<g>
	
		<rect x="658.6" y="436.2" fill="#E9E9EB" stroke="#495965" stroke-width="3" stroke-linecap="round" stroke-linejoin="round" stroke-miterlimit="10" width="116.9" height="223.8"/>
	
		<line fill="none" stroke="#C6CDD1" stroke-width="2" stroke-linecap="round" stroke-linejoin="round" stroke-miterlimit="10" x1="675.4" y1="448.6" x2="758.6" y2="448.6"/>
</g>
<line fill="none" stroke="#C6CDD1" stroke-width="2" stroke-linecap="round" stroke-linejoin="round" stroke-miterlimit="10" x1="371.8" y1="448.6" x2="442.5" y2="448.6"/>
<line fill="none" stroke="#C6CDD1" stroke-width="2" stroke-linecap="round" stroke-linejoin="round" stroke-miterlimit="10" x1="371.8" y1="493.4" x2="442.5" y2="493.4"/>
<line fill="none" stroke="#C6CDD1" stroke-width="2" stroke-linecap="round" stroke-linejoin="round" stroke-miterlimit="10" x1="371.8" y1="538.2" x2="442.5" y2="538.2"/>
<line fill="none" stroke="#C6CDD1" stroke-width="2" stroke-linecap="round" stroke-linejoin="round" stroke-miterlimit="10" x1="371.8" y1="582.9" x2="442.5" y2="582.9"/>
<line fill="none" stroke="#C6CDD1" stroke-width="2" stroke-linecap="round" stroke-linejoin="round" stroke-miterlimit="10" x1="371.8" y1="627.7" x2="442.5" y2="627.7"/>
<g>
	
		<rect x="42.5" y="548.1" fill="#E9E9EB" stroke="#495965" stroke-width="3" stroke-linecap="round" stroke-linejoin="round" stroke-miterlimit="10" width="189.5" height="111.9"/>
	
		<rect x="42.5" y="436.2" fill="#E9E9EB" stroke="#495965" stroke-width="3" stroke-linecap="round" stroke-linejoin="round" stroke-miterlimit="10" width="189.5" height="111.9"/>
	
		<line fill="none" stroke="#C6CDD1" stroke-width="2" stroke-linecap="round" stroke-linejoin="round" stroke-miterlimit="10" x1="156.8" y1="560.5" x2="73.5" y2="560.5"/>
	
		<line fill="none" stroke="#C6CDD1" stroke-width="2" stroke-linecap="round" stroke-linejoin="round" stroke-miterlimit="10" x1="156.8" y1="448.6" x2="73.5" y2="448.6"/>
</g>
<g>
	<g>
		
			<path fill="#E9E9EB" stroke="#495965" stroke-width="3" stroke-linecap="round" stroke-linejoin="round" stroke-miterlimit="10" d="
			M706.1,84v35.3h-10.2V84c0-2.8,2.3-5.1,5.1-5.1C703.8,78.9,706.1,81.2,706.1,84z"/>
		
			<line fill="#E9E9EB" stroke="#495965" stroke-width="3" stroke-linecap="round" stroke-linejoin="round" stroke-miterlimit="10" x1="695.8" y1="119.3" x2="695.8" y2="130.7"/>
		
			<line fill="#E9E9EB" stroke="#495965" stroke-width="3" stroke-linecap="round" stroke-linejoin="round" stroke-miterlimit="10" x1="701.2" y1="119.3" x2="701.2" y2="130.7"/>
	</g>
	
		<rect x="506.5" y="81.6" fill="#E9E9EB" stroke="#495965" stroke-width="3" stroke-linecap="round" stroke-linejoin="round" stroke-miterlimit="10" width="330.7" height="12.4"/>
	
		<path fill="#E9E9EB" stroke="#495965" stroke-width="3" stroke-linecap="round" stroke-linejoin="round" stroke-miterlimit="10" d="
		M569.3,88c0-6.3-4.8-11.3-10.8-11.3c-6,0-10.8,5-10.8,11.3c0,6.3,5.4,8.4,5.4,19.6c0,7.6-22.3,6.8-22.3,15.9c0,5.1,0,35.6,0,50.5
		c0,4.6,3.7,8.2,8.2,8.2h38.9c4.5,0,8.2-3.7,8.2-8.2c0-14.9,0-45.4,0-50.5c0-9-22.3-8.2-22.3-15.9C563.8,95.6,569.3,94.4,569.3,88z
		 M558.4,92.1c-2.3,0-4.1-1.8-4.1-4.1c0-2.3,1.8-4.1,4.1-4.1c2.3,0,4.1,1.8,4.1,4.1C562.5,90.3,560.7,92.1,558.4,92.1z"/>
	<g>
		
			<path fill="#E9E9EB" stroke="#495965" stroke-width="3" stroke-linecap="round" stroke-linejoin="round" stroke-miterlimit="10" d="
			M617.5,160.4c0,10.4,8.4,18.9,18.9,18.9c10.4,0,18.9-8.5,18.9-18.9H617.5z"/>
		<path fill="none" stroke="#495965" stroke-width="3" stroke-linecap="round" stroke-linejoin="round" stroke-miterlimit="10" d="
			M596.3,92.2c0-5.9,4.7-10.6,10.6-10.6c5.9,0,10.6,4.7,10.6,10.6v68.2"/>
	</g>
	
		<path fill="#E9E9EB" stroke="#495965" stroke-width="3" stroke-linecap="round" stroke-linejoin="round" stroke-miterlimit="10" d="
		M608.8,87.8c0-1.5-1.2-2.7-2.8-2.7c-1.5,0-2.7,1.2-2.7,2.7c0,1.5,1.2,2.8,2.7,2.8C607.6,90.5,608.8,89.3,608.8,87.8z"/>
	<g>
		
			<path fill="#E9E9EB" stroke="#495965" stroke-width="3" stroke-linecap="round" stroke-linejoin="round" stroke-miterlimit="10" d="
			M765.5,78.9v64.6h-59.5V84c0-2.8-2.3-5.1-5.1-5.1H765.5z"/>
		
			<line fill="#E9E9EB" stroke="#495965" stroke-width="3" stroke-linecap="round" stroke-linejoin="round" stroke-miterlimit="10" x1="706.1" y1="143.5" x2="706.1" y2="154.8"/>
		
			<line fill="#E9E9EB" stroke="#495965" stroke-width="3" stroke-linecap="round" stroke-linejoin="round" stroke-miterlimit="10" x1="711.5" y1="143.5" x2="711.5" y2="154.8"/>
		
			<line fill="#E9E9EB" stroke="#495965" stroke-width="3" stroke-linecap="round" stroke-linejoin="round" stroke-miterlimit="10" x1="716.9" y1="143.5" x2="716.9" y2="154.8"/>
		
			<line fill="#E9E9EB" stroke="#495965" stroke-width="3" stroke-linecap="round" stroke-linejoin="round" stroke-miterlimit="10" x1="722.3" y1="143.5" x2="722.3" y2="154.8"/>
		
			<line fill="#E9E9EB" stroke="#495965" stroke-width="3" stroke-linecap="round" stroke-linejoin="round" stroke-miterlimit="10" x1="727.7" y1="143.5" x2="727.7" y2="154.8"/>
		
			<line fill="#E9E9EB" stroke="#495965" stroke-width="3" stroke-linecap="round" stroke-linejoin="round" stroke-miterlimit="10" x1="733.1" y1="143.5" x2="733.1" y2="154.8"/>
		
			<line fill="#E9E9EB" stroke="#495965" stroke-width="3" stroke-linecap="round" stroke-linejoin="round" stroke-miterlimit="10" x1="738.5" y1="143.5" x2="738.5" y2="154.8"/>
		
			<line fill="#E9E9EB" stroke="#495965" stroke-width="3" stroke-linecap="round" stroke-linejoin="round" stroke-miterlimit="10" x1="743.9" y1="143.5" x2="743.9" y2="154.8"/>
		
			<line fill="#E9E9EB" stroke="#495965" stroke-width="3" stroke-linecap="round" stroke-linejoin="round" stroke-miterlimit="10" x1="749.3" y1="143.5" x2="749.3" y2="154.8"/>
		
			<line fill="#E9E9EB" stroke="#495965" stroke-width="3" stroke-linecap="round" stroke-linejoin="round" stroke-miterlimit="10" x1="754.7" y1="143.5" x2="754.7" y2="154.8"/>
		
			<line fill="#E9E9EB" stroke="#495965" stroke-width="3" stroke-linecap="round" stroke-linejoin="round" stroke-miterlimit="10" x1="760.1" y1="143.5" x2="760.1" y2="154.8"/>
		
			<line fill="#E9E9EB" stroke="#495965" stroke-width="3" stroke-linecap="round" stroke-linejoin="round" stroke-miterlimit="10" x1="765.5" y1="143.5" x2="765.5" y2="154.8"/>
	</g>
</g>
</svg>
