<?xml version="1.0" encoding="utf-8"?>
<!-- Generator: Adobe Illustrator 22.1.0, SVG Export Plug-In . SVG Version: 6.00 Build 0)  -->
<svg version="1.1" id="Layer_1" xmlns="http://www.w3.org/2000/svg" xmlns:xlink="http://www.w3.org/1999/xlink" x="0px" y="0px"
	 width="67px" height="74px" viewBox="0 0 67 74" enable-background="new 0 0 67 74" xml:space="preserve">
<g id="XMLID_2_">
	<g>
		<circle fill="#FFFFFF" cx="45.6" cy="48.7" r="6.8"/>
	</g>
	<g>
		<circle fill="none" stroke="#00728C" stroke-width="2" stroke-miterlimit="10" cx="45.6" cy="48.7" r="6.8"/>
	</g>
</g>
<g id="XMLID_1_">
	<g>
		<path fill="#FFFFFF" d="M61,1.6l4.6,5.1c0.6,0.6,0.1,1.6-0.7,1.5C63,8,60.4,7.9,59.6,9c0,0-20.3,26.1-28.2,36.2s-8.1,19-10.7,22.3
			c-5.5,7.1-13,6-16.8,2.6c-5.3-4.8-1.3-11.7-1.3-11.7c7.7-1.2,19.5-8.8,25.5-16.4L59.7,1.7C60,1.2,60.6,1.2,61,1.6z"/>
	</g>
	<g>
		<path fill="none" stroke="#00728C" stroke-width="2" stroke-miterlimit="10" d="M61,1.6c-0.4-0.4-1-0.4-1.3,0.1L28.1,42
			c-6,7.6-17.8,15.2-25.5,16.4c0,0-4,6.9,1.3,11.7c3.8,3.4,11.3,4.5,16.8-2.6c2.6-3.3,2.8-12.2,10.7-22.3S59.6,9,59.6,9
			c0.8-1.1,3.4-1,5.3-0.8c0.8,0.1,1.3-0.9,0.7-1.5L61,1.6z"/>
	</g>
</g>
<line fill="none" stroke="#00B5AF" stroke-linecap="round" stroke-miterlimit="10" x1="37.7" y1="29.7" x2="42" y2="31.4"/>
<line fill="none" stroke="#00B5AF" stroke-linecap="round" stroke-miterlimit="10" x1="40.6" y1="26" x2="44.9" y2="27.7"/>
<line fill="none" stroke="#00B5AF" stroke-linecap="round" stroke-miterlimit="10" x1="43.5" y1="22.3" x2="47.8" y2="24"/>
<line fill="none" stroke="#00B5AF" stroke-linecap="round" stroke-miterlimit="10" x1="46.3" y1="18.6" x2="50.7" y2="20.3"/>
<line fill="none" stroke="#00B5AF" stroke-linecap="round" stroke-miterlimit="10" x1="49.2" y1="14.9" x2="53.6" y2="16.6"/>
<line fill="none" stroke="#00B5AF" stroke-linecap="round" stroke-miterlimit="10" x1="52.1" y1="11.2" x2="56.5" y2="13"/>
<line fill="none" stroke="#00B5AF" stroke-linecap="round" stroke-miterlimit="10" x1="55" y1="7.5" x2="59.4" y2="9.3"/>
<line fill="none" stroke="#00728C" stroke-width="2" stroke-miterlimit="10" x1="29.7" y1="47.3" x2="26.1" y2="44.5"/>
<line fill="none" stroke="#00728C" stroke-width="2" stroke-miterlimit="10" x1="23.5" y1="57.8" x2="16.2" y2="52.1"/>
<path fill="none" stroke="#00B5AF" stroke-linecap="round" stroke-miterlimit="10" d="M49.6,42.9c-1.5,2-0.7,3.3-0.7,5.3
	s-1.5,3.6-3.4,3.6s-3.4-1.6-3.4-3.6s1.8-3.9,0.4-5.6"/>
</svg>
