<?xml version="1.0" encoding="utf-8"?>
<!-- Generator: Adobe Illustrator 22.1.0, SVG Export Plug-In . SVG Version: 6.00 Build 0)  -->
<svg version="1.1" id="Isolation_Mode" xmlns="http://www.w3.org/2000/svg" xmlns:xlink="http://www.w3.org/1999/xlink" x="0px"
	 y="0px" width="69.4px" height="94.9px" viewBox="0 0 69.4 94.9" enable-background="new 0 0 69.4 94.9" xml:space="preserve">
<g>
	<path fill="#00728C" d="M65.1,13.8L49.9,0l0,0H0v90.7h65.1V13.8z M60.9,15c0-0.7-0.5-1.2-1.2-1.2h-9.4V3.6l12.5,11.3v73.4H2.4V2.4
		h45.4V15c0,0.7,0.5,1.2,1.2,1.2h10.6C60.4,16.2,60.9,15.7,60.9,15z"/>
	<path fill="#00B5AF" d="M68.2,17.4c-0.7,0-1.2,0.5-1.2,1.2v73.9H5.5c-0.7,0-1.2,0.5-1.2,1.2s0.5,1.2,1.2,1.2h63.9V18.6
		C69.4,17.9,68.9,17.4,68.2,17.4z"/>
	<path fill="#00B5AF" d="M51.5,30.7c-0.6-0.6-1.5-0.6-2.1,0l-23,23.1L14.9,42.1c-0.3-0.3-0.6-0.4-1-0.4s-0.8,0.1-1,0.4
		c-0.6,0.6-0.6,1.5,0,2.1L26.5,58l25.2-25.2c0.3-0.3,0.4-0.7,0.4-1C52,31.4,51.8,31,51.5,30.7z"/>
	<rect x="37.8" y="71.5" fill="#00728C" width="3.3" height="13.4"/>
	<rect x="47.8" y="71.5" fill="#00728C" width="3.3" height="13.4"/>
	<rect x="45.6" y="71.5" fill="#00728C" width="1.1" height="13.4"/>
	<rect x="57.8" y="71.5" fill="#00728C" width="1.1" height="13.4"/>
	<rect x="52.2" y="71.5" fill="#00728C" width="1.1" height="13.4"/>
	<rect x="42.2" y="71.5" fill="#00728C" width="2.2" height="13.4"/>
	<rect x="54.5" y="71.5" fill="#00728C" width="2.2" height="13.4"/>
</g>
</svg>
