<?xml version="1.0" encoding="utf-8"?>
<!-- Generator: Adobe Illustrator 22.1.0, SVG Export Plug-In . SVG Version: 6.00 Build 0)  -->
<svg version="1.1" id="Isolation_Mode" xmlns="http://www.w3.org/2000/svg" xmlns:xlink="http://www.w3.org/1999/xlink" x="0px"
	 y="0px" width="32.4px" height="32.4px" viewBox="0 0 32.4 32.4" enable-background="new 0 0 32.4 32.4" xml:space="preserve">
<g>
	<g>
		
			<rect x="10.6" y="14.2" transform="matrix(0.7071 -0.7071 0.7071 0.7071 -5.6469 16.6035)" fill="#495965" width="13.3" height="1.8"/>
	</g>
	<g>
		<path fill="#495965" d="M24.3,11.9c-2.1,0-3.9-1.7-3.9-3.9s1.7-3.9,3.9-3.9s3.9,1.7,3.9,3.9S26.4,11.9,24.3,11.9z M24.3,6.1
			c-1.1,0-2,0.9-2,2s0.9,2,2,2s2-0.9,2-2S25.4,6.1,24.3,6.1z"/>
	</g>
	<g>
		<path fill="#495965" d="M29.6,8.6c-0.3,0-0.5-0.2-0.5-0.5c0-2.7-2.2-4.8-4.8-4.8c-0.3,0-0.5-0.2-0.5-0.5s0.2-0.5,0.5-0.5
			C27.5,2.3,30,4.9,30,8C30.1,8.3,29.8,8.6,29.6,8.6z"/>
	</g>
	<g>
		<path fill="#495965" d="M31.9,8.6c-0.3,0-0.5-0.2-0.5-0.5c0-4-3.2-7.2-7.2-7.2c-0.3,0-0.5-0.2-0.5-0.5S24.1,0,24.3,0
			c4.5,0,8.1,3.6,8.1,8.1C32.4,8.3,32.2,8.6,31.9,8.6z"/>
	</g>
	<g>
		<path fill="#495965" d="M1.2,4.6c-0.3-0.4-0.9-0.2-1,0.3c-1,7.3,1.3,14.9,6.8,20.5s13.2,7.9,20.5,6.8c0.4-0.1,0.6-0.6,0.3-0.9
			L1.2,4.6z"/>
	</g>
</g>
</svg>
