<?xml version="1.0" encoding="utf-8"?>
<!-- Generator: Adobe Illustrator 22.1.0, SVG Export Plug-In . SVG Version: 6.00 Build 0)  -->
<svg version="1.1" id="Isolation_Mode" xmlns="http://www.w3.org/2000/svg" xmlns:xlink="http://www.w3.org/1999/xlink" x="0px"
	 y="0px" width="57.2px" height="93.6px" viewBox="0 0 57.2 93.6" enable-background="new 0 0 57.2 93.6" xml:space="preserve">
<g>
	<path fill="#00728C" d="M51.1,93.6H6c-3.3,0-6-2.7-6-6V6c0-3.3,2.7-6,6-6h45.1c3.3,0,6,2.7,6,6v81.6C57.2,90.9,54.5,93.6,51.1,93.6
		z M6,2.4C4,2.4,2.4,4,2.4,6v81.6c0,2,1.6,3.6,3.6,3.6h45.1c2,0,3.6-1.6,3.6-3.6V6c0-2-1.6-3.6-3.6-3.6H6z"/>
	<path fill="#00728C" d="M51.4,79H5.8c-0.7,0-1.2-0.5-1.2-1.2V6.1c0-0.7,0.5-1.2,1.2-1.2h45.6c0.7,0,1.2,0.5,1.2,1.2v71.7
		C52.6,78.5,52,79,51.4,79z M7,76.6h43.1V7.3H7V76.6z"/>
	<circle fill="#00728C" cx="29.8" cy="84.5" r="3"/>
	
		<line fill="none" stroke="#00B5AF" stroke-width="3" stroke-linecap="round" stroke-miterlimit="10" x1="28.6" y1="63.5" x2="28.6" y2="22.5"/>
	
		<polyline fill="none" stroke="#00B5AF" stroke-width="3" stroke-linecap="round" stroke-linejoin="round" stroke-miterlimit="10" points="
		15.6,33.5 28.6,20.5 41.6,33.5 	"/>
</g>
</svg>
