<?xml version="1.0" encoding="utf-8"?>
<!-- Generator: Adobe Illustrator 22.1.0, SVG Export Plug-In . SVG Version: 6.00 Build 0)  -->
<svg version="1.1" id="wifi" xmlns="http://www.w3.org/2000/svg" xmlns:xlink="http://www.w3.org/1999/xlink" x="0px" y="0px"
	 width="42px" height="42px" viewBox="0 0 42 42" enable-background="new 0 0 42 42" xml:space="preserve">
<path id="signal-inner" fill="#00B5AF" d="M28.2,42C27,42,26,41,26,39.8l0,0C25.9,26.7,15.3,16,2.2,16C1,16,0,15,0,13.8
	s1-2.2,2.2-2.2c15.6,0,28.2,12.6,28.2,28.2C30.4,41,29.4,42,28.2,42L28.2,42z"/>
<path id="signal-outer" fill="#00B5AF" d="M39.7,42c-1.2,0-2.2-1-2.2-2.2l0,0c0-19.5-15.8-35.2-35.3-35.3C1,4.5,0,3.5,0,2.3
	C0,1,1,0,2.2,0C24.2,0,42,17.8,42,39.7C42,41,41,42,39.7,42L39.7,42z"/>
</svg>
