<?xml version="1.0" encoding="utf-8"?>
<!-- Generator: Adobe Illustrator 22.1.0, SVG Export Plug-In . SVG Version: 6.00 Build 0)  -->
<svg version="1.1" id="manage-your-bills" xmlns="http://www.w3.org/2000/svg" xmlns:xlink="http://www.w3.org/1999/xlink" x="0px"
	 y="0px" width="148px" height="106px" viewBox="0 0 148 106" enable-background="new 0 0 148 106" xml:space="preserve">
<path id="outline" fill="#FFFFFF" d="M144.6,0.3H3.4c-1.8,0-3.3,1.5-3.3,3.3v84.7c0,1.9,1.5,3.4,3.3,3.4h61V97H42
	c-1.5,0-2.7,1.2-2.7,2.7v3.4c0,1.5,1.2,2.7,2.7,2.7h61.8c1.5,0,2.7-1.2,2.7-2.7v-3.4c0-1.5-1.2-2.7-2.7-2.7H81.4l-0.1-5.3h63.2
	c1.8,0,3.3-1.5,3.3-3.4V3.5C147.9,1.8,146.3,0.3,144.6,0.3z"/>
<g id="screen">
	<g id="XMLID_1_">
		<g>
			<rect x="68.7" y="89.7" fill="#FFFFFF" width="8.6" height="9.3"/>
			<path fill="#FFFFFF" d="M143.3,4.9v82H4.9v-82C4.9,4.9,143.3,4.9,143.3,4.9z M139.1,82.3V9.6c0-0.7-0.6-1.3-1.3-1.3H10.3
				C9.5,8.3,8.9,8.9,9,9.6v72.8c0,0.7,0.6,1.3,1.3,1.3h127.6C138.5,83.7,139.1,83.1,139.1,82.3z"/>
			<path fill="#00728C" d="M79.5,98.9h24.4c0.4,0,0.7,0.3,0.7,0.7v3.4c0,0.4-0.3,0.7-0.7,0.7H42.1c-0.4,0-0.7-0.3-0.7-0.7v-3.4
				c0-0.4,0.3-0.7,0.7-0.7h24.4h2.2h8.6v-9.3h2.1L79.5,98.9z"/>
			<path fill="#00728C" d="M136.5,80.9v-70H11.6v70H136.5z M139.1,9.6v72.7c0,0.8-0.6,1.4-1.3,1.4H10.3c-0.7,0-1.3-0.6-1.3-1.3V9.6
				c-0.1-0.7,0.5-1.3,1.3-1.3h127.6C138.5,8.3,139.1,8.9,139.1,9.6z"/>
			<path fill="#00728C" d="M143.3,86.9v-82H4.9v82H143.3z M145.9,3.5v84.7c0,0.8-0.6,1.4-1.3,1.4H79.3h-2.1h-8.6V99h-2.2v-9.3h-63
				c-0.7,0-1.3-0.6-1.3-1.4V3.5c0-0.7,0.6-1.3,1.3-1.3h141.1C145.3,2.3,145.9,2.8,145.9,3.5z"/>
		</g>
	</g>
</g>
<g id="bulb">
	<path fill="#00B5AF" d="M46.8,60.8h-8.9c-0.6,0-1,0.4-1,1s0.4,1,1,1h8.9c0.6,0,1-0.4,1-1S47.4,60.8,46.8,60.8z"/>
	<path fill="#00B5AF" d="M46.8,63.8h-8.9c-0.6,0-1,0.4-1,1s0.4,1,1,1h8.9c0.6,0,1-0.4,1-1S47.4,63.8,46.8,63.8z"/>
	<path fill="#00B5AF" d="M44.8,66.8h-4.9c-0.6,0-1,0.4-1,1s0.4,1,1,1h4.9c0.5,0,1-0.4,1-1S45.4,66.8,44.8,66.8z"/>
	<path fill="#00B5AF" d="M45.8,38.7c-0.8,0-1.5,0.7-1.5,1.5v1.5h1.5c0.8,0,1.5-0.7,1.5-1.5C47.3,39.3,46.6,38.7,45.8,38.7z"/>
	<path fill="#00B5AF" d="M42.3,27.3c-7.5,0-13.6,6.1-13.6,13.6c0,4.6,4.5,11.6,7.3,15.8c0.7,1.1,1.3,1.9,1.5,2.4
		c0.1,0.2,0.3,0.3,0.4,0.3h8.7c0.2,0,0.4-0.1,0.5-0.3c0.2-0.5,0.9-1.5,1.7-2.9c2.6-4.1,7-11,7-15.3C55.9,33.3,49.8,27.3,42.3,27.3z
		 M45.8,42.5h-1.5v14.3c0,0.3-0.2,0.5-0.5,0.5s-0.5-0.2-0.5-0.5V42.5h-2v14.3c0,0.3-0.2,0.5-0.5,0.5s-0.5-0.2-0.5-0.5V42.5h-1.5
		c-1.4,0-2.5-1.1-2.5-2.5s1.1-2.5,2.5-2.5s2.5,1.1,2.5,2.5v1.5h2V40c0-1.4,1.1-2.5,2.5-2.5s2.5,1.1,2.5,2.5
		C48.2,41.5,47.1,42.5,45.8,42.5z"/>
	<path fill="#00B5AF" d="M38.9,38.7c-0.8,0-1.5,0.7-1.5,1.5s0.7,1.5,1.5,1.5h1.5v-1.5C40.4,39.3,39.7,38.7,38.9,38.7z"/>
</g>
<line id="line" fill="none" stroke="#00B5AF" stroke-miterlimit="10" x1="74.1" y1="75.6" x2="74.1" y2="18"/>
<g id="antenna">
	<path fill="#00B5AF" d="M114.6,41.3c2.3,0,4.2-1.9,4.2-4.2s-1.9-4.2-4.2-4.2c-2.3,0-4.2,1.9-4.2,4.2c0,0.8,0.2,1.5,0.6,2.2
		l-7.8,7.8L89.3,33.2c-0.3-0.3-1-0.2-1,0.3c-1.1,7.9,1.4,16.3,7.5,22.4s14.4,8.6,22.4,7.5c0.5-0.1,0.7-0.7,0.3-1l-13.9-13.9l7.8-7.8
		C113.1,41,113.8,41.3,114.6,41.3z M114.6,34.8c1.2,0,2.2,1,2.2,2.2s-1,2.2-2.2,2.2s-2.2-1-2.2-2.2
		C112.3,35.8,113.3,34.8,114.6,34.8z"/>
	<path fill="#00B5AF" d="M114.6,30.8c-0.3,0-0.5,0.2-0.5,0.5s0.2,0.5,0.5,0.5c2.9,0,5.3,2.4,5.3,5.3c0,0.3,0.2,0.5,0.5,0.5
		s0.5-0.2,0.5-0.5C120.8,33.5,118.1,30.8,114.6,30.8z"/>
	<path fill="#00B5AF" d="M114.6,28.3c-0.3,0-0.5,0.2-0.5,0.5s0.2,0.5,0.5,0.5c4.4,0,7.9,3.5,7.9,7.9c0,0.3,0.2,0.5,0.5,0.5
		s0.5-0.2,0.5-0.5C123.5,32.3,119.5,28.3,114.6,28.3z"/>
</g>
</svg>
