<?xml version="1.0" encoding="utf-8"?>
<!-- Generator: Adobe Illustrator 22.1.0, SVG Export Plug-In . SVG Version: 6.00 Build 0)  -->
<svg version="1.1" id="Isolation_Mode" xmlns="http://www.w3.org/2000/svg" xmlns:xlink="http://www.w3.org/1999/xlink" x="0px"
	 y="0px" width="23.6px" height="36.3px" viewBox="0 0 23.6 36.3" enable-background="new 0 0 23.6 36.3" xml:space="preserve">
<g>
	<path fill="#495965" d="M15.7,29.3H7.9c-0.5,0-0.9,0.4-0.9,0.9S7.5,31,7.9,31h7.8c0.5,0,0.9-0.4,0.9-0.9S16.2,29.3,15.7,29.3z"/>
	<path fill="#495965" d="M15.7,31.8H7.9c-0.5,0-0.9,0.4-0.9,0.9s0.4,0.9,0.9,0.9h7.8c0.5,0,0.9-0.4,0.9-0.9S16.2,31.8,15.7,31.8z"/>
	<path fill="#495965" d="M14,34.5H9.7c-0.5,0-0.9,0.4-0.9,0.9s0.4,0.9,0.9,0.9H14c0.5,0,0.9-0.4,0.9-0.9
		C14.8,34.9,14.4,34.5,14,34.5z"/>
	<path fill="#495965" d="M14.8,9.9c-0.7,0-1.3,0.6-1.3,1.3v1.3h1.3c0.7,0,1.3-0.6,1.3-1.3S15.5,9.9,14.8,9.9z"/>
	<path fill="#495965" d="M11.8,0C5.3,0,0,5.3,0,11.8c0,4,4,10.1,6.3,13.8c0.6,0.9,1.1,1.7,1.3,2.1c0.1,0.1,0.2,0.2,0.4,0.2h7.6
		c0.2,0,0.3-0.1,0.4-0.3c0.2-0.4,0.8-1.3,1.5-2.5c2.3-3.6,6.1-9.5,6.1-13.4C23.6,5.3,18.3,0,11.8,0z M14.8,13.3h-1.3v12.5
		c0,0.2-0.2,0.4-0.4,0.4s-0.4-0.2-0.4-0.4V13.3H11v12.5c0,0.2-0.2,0.4-0.4,0.4s-0.4-0.2-0.4-0.4V13.3H8.8c-1.2,0-2.1-1-2.1-2.1
		C6.7,10,7.6,9,8.8,9s2.2,1,2.2,2.2v1.3h1.7v-1.3c0-1.2,1-2.1,2.1-2.1s2.1,1,2.1,2.1C17,12.4,16,13.3,14.8,13.3z"/>
	<path fill="#495965" d="M8.8,9.9c-0.7,0-1.3,0.6-1.3,1.3s0.6,1.3,1.3,1.3h1.3v-1.3C10.1,10.5,9.5,9.9,8.8,9.9z"/>
</g>
</svg>
