<?xml version="1.0" encoding="utf-8"?>
<!-- Generator: Adobe Illustrator 22.1.0, SVG Export Plug-In . SVG Version: 6.00 Build 0)  -->
<svg version="1.1" id="stay-in-control" xmlns="http://www.w3.org/2000/svg" xmlns:xlink="http://www.w3.org/1999/xlink" x="0px"
	 y="0px" width="118px" height="130px" viewBox="0 0 118 130" enable-background="new 0 0 118 130" xml:space="preserve">
<path id="outline" fill="#FFFFFF" d="M109,19H58c-5,0-9,4-9,9v93c0,5,4,9,9,9h51c5,0,9-4,9-9V28C118,23,114,19,109,19z"/>
<g id="device">
	<g id="XMLID_1_">
		<g>
			<path fill="#FFFFFF" d="M85,114c-1.9,0-3.5,1.6-3.5,3.5c0,1.9,1.6,3.5,3.5,3.5s3.5-1.6,3.5-3.5C88.5,115.6,86.9,114,85,114z
				 M109.5,26.5H57.6c-0.8,0-1.4,0.6-1.4,1.4v81.9c0,0.8,0.6,1.4,1.4,1.4h51.9c0.8,0,1.4-0.6,1.4-1.4V27.9
				C110.8,27.1,110.3,26.5,109.5,26.5z M57.9,23.7h51.3c2.3,0,4.1,1.8,4.1,4.1V121c0,2.3-1.8,4.1-4.1,4.1H57.9
				c-2.3,0-4.1-1.8-4.1-4.1V27.8C53.8,25.5,55.6,23.7,57.9,23.7z"/>
			<ellipse fill="#00728C" cx="85" cy="117.5" rx="3.5" ry="3.5"/>
			<path fill="#00728C" d="M59,108.5h49.1V29.3H59V108.5z M109.5,111.3H57.6c-0.8,0-1.4-0.6-1.4-1.4V27.9c0-0.8,0.6-1.4,1.4-1.4
				h51.9c0.8,0,1.4,0.6,1.4,1.4v81.9C110.8,110.7,110.3,111.3,109.5,111.3z"/>
			<path fill="#00728C" d="M109.2,128H57.9c-3.8,0-6.9-3.1-6.9-6.9V27.8c0-3.8,3.1-6.9,6.9-6.9h51.3c3.8,0,6.9,3.1,6.9,6.9V121
				C116,124.9,112.9,128,109.2,128z M109.2,23.7H57.9c-2.3,0-4.1,1.8-4.1,4.1V121c0,2.3,1.8,4.1,4.1,4.1h51.3c2.3,0,4.1-1.8,4.1-4.1
				V27.8C113.2,25.5,111.4,23.7,109.2,23.7z"/>
		</g>
	</g>
</g>
<g id="bubble">
	<path fill="#FFFFFF" d="M93.3,89.5c-0.8,0-1.6-0.3-2.1-0.9L69.8,64.4H23.9c-9.9,0-18.4-6.1-22.1-14.7c2.4,9.9,11.4,17.4,22.1,17.4
		h46.5l21.8,24.6c1,1.1,2.8,0.4,2.8-1.1V89c-0.2,0.1-0.4,0.2-0.6,0.3C94,89.4,93.6,89.5,93.3,89.5z"/>
	<path fill="#FFFFFF" d="M89.9,2.6H6.1C4,2.6,2.3,4.3,2.3,6.4v34.1C2.4,52.3,12,61.9,23.8,61.9h47.2l22.2,25
		c0.1,0.1,0.2,0.1,0.4,0.1c0.1,0,0.2-0.1,0.2-0.4V6.3C93.8,4.3,92,2.6,89.9,2.6z"/>
	<path fill="#00B5AF" d="M89.9,0.1H6.1C2.8,0.1-0.1,3-0.1,6.4v34.1c0,3.2,0.7,6.3,1.9,9.1c3.6,8.7,12.1,14.8,22,14.8h45.9l21.4,24.2
		c0.6,0.6,1.3,0.9,2.1,0.9c0.3,0,0.7-0.1,1-0.2c0.2-0.1,0.4-0.2,0.6-0.3c0.8-0.5,1.3-1.4,1.3-2.4V6.3C96.3,2.9,93.3,0.1,89.9,0.1z
		 M93.8,86.6c0,0.2-0.1,0.3-0.2,0.4s-0.3,0-0.4-0.1l-22.2-25H23.9c-11.7,0-21.4-9.6-21.4-21.4V6.4c0-2.1,1.7-3.8,3.8-3.8h83.7
		c2.1,0,3.8,1.6,3.8,3.7V86.6z"/>
</g>
<path id="euro" fill="#00B5AF" d="M53.2,47c1.2-1,2-2.3,2.3-4c0.1-0.6,0.4-0.8,1-0.7l3.7,0.6c0.6,0.2,0.9,0.5,0.7,1
	c-0.5,2.9-1.9,5.2-4.1,6.8c-2.2,1.7-4.9,2.5-8.2,2.5c-2.5,0-4.6-0.5-6.5-1.5s-3.3-2.4-4.4-4.2c-1-1.8-1.6-3.9-1.6-6.4v-3.4
	c0-0.2-0.1-0.3-0.3-0.3h-3.6c-0.3,0-0.5-0.1-0.6-0.2c-0.2-0.2-0.2-0.4-0.2-0.6v-1.4c0-0.3,0.1-0.5,0.2-0.6c0.2-0.2,0.4-0.2,0.6-0.2
	h3.6c0.2,0,0.3-0.1,0.3-0.3v-2.9c0-0.2-0.1-0.3-0.3-0.3h-3.6c-0.3,0-0.5-0.1-0.6-0.2c-0.2-0.2-0.2-0.4-0.2-0.6v-1.4
	c0-0.3,0.1-0.5,0.2-0.6c0.2-0.2,0.4-0.2,0.6-0.2h3.6c0.2,0,0.3-0.1,0.3-0.3v-3.5c0-2.4,0.5-4.5,1.6-6.3c1-1.8,2.5-3.2,4.4-4.2
	s4-1.5,6.5-1.5c3.4,0,6.2,0.9,8.4,2.6c2.2,1.7,3.5,4,3.9,7v0.2c0,0.4-0.3,0.7-0.7,0.7l-3.8,0.5h-0.2c-0.4,0-0.7-0.2-0.8-0.7
	c-0.3-1.7-1-3-2.2-4s-2.7-1.5-4.6-1.5c-2.1,0-3.7,0.6-5,1.9s-1.9,3-1.9,5.1v3.7c0,0.2,0.1,0.3,0.3,0.3h12.7c0.3,0,0.5,0.1,0.6,0.3
	c0.1,0.2,0.1,0.4,0.1,0.7L55,30.3c-0.2,0.5-0.5,0.7-1,0.7H42c-0.2,0-0.3,0.1-0.3,0.3v2.9c0,0.2,0.1,0.3,0.3,0.3h10.8
	c0.3,0,0.5,0.1,0.6,0.3s0.1,0.4,0.1,0.7L53,36.9c-0.2,0.5-0.5,0.7-1,0.7H42c-0.2,0-0.3,0.1-0.3,0.3v3.6c0,2.1,0.6,3.8,1.9,5.1
	c1.3,1.3,2.9,1.9,5,1.9C50.5,48.5,52,48,53.2,47z"/>
</svg>
