<?xml version="1.0" encoding="utf-8"?>
<!-- Generator: Adobe Illustrator 22.1.0, SVG Export Plug-In . SVG Version: 6.00 Build 0)  -->
<svg version="1.1" id="save-as-you-go" xmlns="http://www.w3.org/2000/svg" xmlns:xlink="http://www.w3.org/1999/xlink" x="0px"
	 y="0px" width="124px" height="126px" viewBox="0 0 124 126" enable-background="new 0 0 124 126" xml:space="preserve">
<path id="outline" fill="#FFFFFF" d="M71.2,58.5c-5.8-4.1-12.6-6.3-19.8-6.3c-7.1,0-13.9,2.2-19.8,6.2C16,60,3.8,73.3,3.8,89v0.4
	c0,19,13.8,34.5,30.7,34.5c1.7,0,3.5-0.2,5.2-0.5c3.8,1.5,7.7,2.3,11.7,2.3c4,0,7.9-0.8,11.7-2.3c1.7,0.3,3.5,0.5,5.2,0.5
	c7.5,0,14.8-3.1,20.4-8.8c6.5-6.6,10.2-15.9,10.2-25.7V89C98.9,73.3,86.8,60,71.2,58.5z"/>
<g id="umbrella">
	<g id="XMLID_1_">
		<g>
			<path fill="#FFFFFF" d="M104.9,28.5c8.9,9.6,14.5,20.9,15.5,32.6l-23.7-9c1.2-10.3,0-19.8-3.1-27.6v-0.1
				c-0.2-0.6-0.5-1.1-0.7-1.7c-0.3-0.5-0.5-1.1-0.8-1.6C91.6,20,91,19,90.4,18c-0.6-1-1.3-2-2-2.9C94.6,19,100.2,23.5,104.9,28.5z"
				/>
			<path fill="#FFFFFF" d="M76.1,9.3c2.8,1.3,5.3,3,7.5,5.2c0.3,0.3,0.6,0.6,0.8,0.9c0.8,0.9,1.6,1.8,2.3,2.8
				c0.2,0.2,0.3,0.5,0.5,0.7c0.1,0.2,0.2,0.3,0.3,0.5c0.8,1.3,1.6,2.6,2.3,4c0.1,0.1,0.1,0.2,0.1,0.3c3.5,7.5,4.9,17,3.8,27.4
				L64.6,40L76.1,9.3L76.1,9.3z"/>
			<path fill="#FFFFFF" d="M32.3,27.9c11.4-16.1,27.4-23.8,41-19.7v0.1L61.7,39L32.3,27.9z"/>
			<path fill="#FFFFFF" d="M5.6,17.8C18.5,5.4,39,0.8,60.1,4.6c-8.7,1.6-17.3,6.7-24.7,14.8c-2.1,2.3-4,4.7-5.9,7.4L5.6,17.8z"/>
			<path fill="#00728C" d="M93.6,24.5c3.1,7.8,4.3,17.3,3.1,27.6l23.7,9l0,0l-23.8-9c0-0.3,0.1-0.5,0.1-0.8
				C97.8,41.3,96.6,32.2,93.6,24.5z"/>
			<path fill="#00728C" d="M93.6,24.5c-0.2-0.6-0.5-1.1-0.7-1.7C93.1,23.4,93.3,23.9,93.6,24.5z"/>
			<path fill="#00728C" d="M89.9,23.5c3.5,7.5,5,17,3.9,27.5h-0.1C94.9,40.7,93.4,31,89.9,23.5z"/>
			<path fill="#00728C" d="M90.3,18c0.6,1,1.2,2,1.7,3.1C91.5,20,90.9,19,90.3,18z"/>
			<path fill="#00728C" d="M87.5,19.3c0.8,1.3,1.6,2.6,2.3,4C89.1,21.9,88.4,20.5,87.5,19.3z"/>
			<path fill="#00728C" d="M87.2,18.9c-0.2-0.2-0.3-0.5-0.5-0.7C86.9,18.4,87.1,18.5,87.2,18.9z"/>
			<path fill="#00728C" d="M84.5,15.4c-0.3-0.3-0.5-0.6-0.8-0.9C83.9,14.8,84.2,15.1,84.5,15.4z"/>
			<path fill="#00728C" d="M77.1,6.3c26.3,10.4,44.5,31.9,46.3,54.6l-2.9,0.2c-1-11.7-6.6-23.1-15.6-32.6c-4.7-5-10.3-9.5-16.6-13.4
				c0.7,0.9,1.4,1.9,2,2.9c0.6,1,1.2,2,1.7,3.1c0.3,0.5,0.5,1.1,0.8,1.6c0.3,0.6,0.5,1.1,0.7,1.7v0.1c3,7.6,4.2,16.8,3.1,26.8
				L93.7,51c1.1-10.4-0.3-20-3.9-27.5c0-0.1-0.1-0.2-0.1-0.3c-0.7-1.4-1.4-2.8-2.3-4c-0.1-0.1-0.2-0.3-0.3-0.5
				c-0.2-0.2-0.3-0.5-0.5-0.7c-0.7-1-1.5-1.9-2.3-2.8c-0.3-0.3-0.5-0.6-0.8-0.9c-2.2-2.2-4.7-4-7.5-5.2v0.1L64.5,40L61.8,39
				L73.3,8.3V8.1l1-2.8l0,0L75,3.6c0.3-0.8,1.1-1.2,1.9-0.9s1.2,1.1,0.9,1.9L77.1,6.3z"/>
			<polygon fill="#00728C" points="32.3,27.9 61.7,39 61.7,39 			"/>
			<path fill="#00728C" d="M35.4,19.4c7.4-8.1,16-13.2,24.7-14.8C51.4,6.2,42.8,11.4,35.4,19.4z"/>
			<path fill="#00728C" d="M73.3,8.1c-13.6-4.1-29.6,3.6-41,19.7L61.7,39l0,0h0.1l2.7,1.1l29.2,11l0,0h0.1l2.9,0.3
				c0,0.3,0,0.5-0.1,0.8l23.8,9l0,0h0.1l2.9-0.2c0.1,0.8,0.1,1.6,0.1,2.4l0.1,2.2L96.2,55.2L63.6,42.8l-6.8,18.3
				c-0.2,0.6-0.8,1-1.4,1c-0.2,0-0.3,0-0.5-0.1c-0.8-0.3-1.2-1.1-0.9-1.9l6.8-18.3l-33-12.4v-0.1L0.3,19l1.5-1.6
				C17.9,0.3,46.9-4.4,74.3,5.3L73.3,8.1z M29.5,26.8c1.8-2.7,3.8-5.2,5.9-7.4c7.4-8,16.1-13.1,24.7-14.8C39,0.8,18.5,5.4,5.6,17.8
				L29.5,26.8z"/>
		</g>
	</g>
</g>
<g id="coin-right">
	<path fill="#FFFFFF" d="M83,113.7c-4.3,2.6-9.4,4.1-14.8,4.1c-5.1,0-9.9-1.3-14-3.7c4.1,3.1,8.9,4.9,14.1,4.9
		C73.8,118.9,78.8,116.9,83,113.7z"/>
	<path fill="#00B5AF" d="M96.9,89.4c0-0.1,0-0.3,0-0.4c0-15.8-12.9-28.7-28.7-28.7S39.5,73.3,39.5,89.1c0,1.3,0.1,2.5,0.2,3.7
		c1.5,16.4,13.7,29.2,28.6,29.2C84.1,121.9,97,107.3,96.9,89.4L96.9,89.4z M93.9,89.1c0,14.2-11.5,25.7-25.7,25.7
		s-25.7-11.5-25.7-25.7S54,63.4,68.2,63.4C82.4,63.4,93.9,74.8,93.9,89.1z M68.2,117.8c5.4,0,10.5-1.5,14.8-4.1
		c-4.2,3.3-9.2,5.3-14.7,5.3c-5.2,0-10.1-1.8-14.1-4.9C58.3,116.4,63.1,117.8,68.2,117.8z"/>
	<path fill="#FFFFFF" d="M42.5,89.1c0,14.2,11.5,25.7,25.7,25.7c14.2,0,25.7-11.5,25.7-25.7S82.4,63.3,68.2,63.3
		S42.5,74.8,42.5,89.1z"/>
</g>
<g id="coin-left">
	<path fill="#FFFFFF" d="M48.9,113.8c-4.2,2.5-9.2,3.9-14.4,3.9s-10.2-1.4-14.4-3.9c4.1,3.2,9.1,5.1,14.4,5.1S44.8,117.1,48.9,113.8
		z"/>
	<path fill="#FFFFFF" d="M34.5,114.8c14.2,0,25.7-11.5,25.7-25.7S48.7,63.3,34.5,63.3S8.8,74.8,8.8,89.1S20.3,114.8,34.5,114.8z"/>
	<path fill="#00B5AF" d="M63.2,89.1c0-15.8-12.9-28.7-28.7-28.7S5.8,73.3,5.8,89.1c0,0.1,0,0.3,0,0.4l0,0
		c0,17.9,12.9,32.5,28.7,32.5s28.7-14.6,28.7-32.5l0,0C63.2,89.3,63.2,89.2,63.2,89.1z M8.8,89.1c0-14.2,11.5-25.7,25.7-25.7
		s25.7,11.5,25.7,25.7s-11.5,25.7-25.7,25.7S8.8,103.3,8.8,89.1z M34.5,117.8c5.3,0,10.2-1.4,14.4-3.9c-4.1,3.2-9.1,5.1-14.4,5.1
		s-10.3-1.9-14.4-5.1C24.3,116.3,29.2,117.8,34.5,117.8z"/>
</g>
<g id="coin-euro">
	<path fill="#FFFFFF" d="M69.8,113.3c-5.2,3.6-11.6,5.8-18.4,5.8c-6.9,0-13.2-2.1-18.4-5.8c5,4.7,11.5,7.5,18.4,7.5
		C58.4,120.8,64.8,117.9,69.8,113.3z"/>
	<path fill="#FFFFFF" d="M22,86.7c0,16.2,13.2,29.4,29.4,29.4s29.4-13.2,29.4-29.4S67.6,57.3,51.4,57.3S22,70.4,22,86.7z M35.3,82.3
		c0-0.3,0.1-0.4,0.2-0.6c0.1-0.1,0.3-0.2,0.6-0.2h3.4c0.2,0,0.3-0.1,0.3-0.3v-3.3c0-2.2,0.5-4.2,1.5-5.9s2.3-3,4.1-3.9
		s3.8-1.4,6.1-1.4c3.2,0,5.8,0.8,7.9,2.4c2.1,1.6,3.3,3.8,3.7,6.6v0.2c0,0.4-0.2,0.6-0.7,0.7l-3.6,0.4h-0.2c-0.4,0-0.6-0.2-0.8-0.7
		c-0.3-1.6-0.9-2.8-2.1-3.8c-1.1-0.9-2.6-1.4-4.3-1.4c-1.9,0-3.5,0.6-4.7,1.8c-1.2,1.2-1.8,2.8-1.8,4.8v3.5c0,0.2,0.1,0.3,0.3,0.3
		h12.1c0.3,0,0.5,0.1,0.6,0.2C58,81.8,58,82,58,82.3l-0.4,1.3c-0.1,0.4-0.4,0.6-0.9,0.6H45.3c-0.2,0-0.3,0.1-0.3,0.3v2.8
		c0,0.2,0.1,0.3,0.3,0.3h10.1c0.3,0,0.5,0.1,0.6,0.2c0.1,0.2,0.1,0.4,0.1,0.7l-0.4,1.3c-0.1,0.4-0.5,0.6-0.9,0.6h-9.5
		c-0.2,0-0.3,0.1-0.3,0.3v3.5c0,2,0.6,3.6,1.8,4.8s2.8,1.8,4.7,1.8c1.8,0,3.2-0.5,4.3-1.4s1.8-2.2,2.1-3.8c0.1-0.5,0.4-0.8,0.9-0.6
		l3.5,0.6c0.6,0.1,0.8,0.5,0.7,1c-0.5,2.7-1.8,4.8-3.8,6.4c-2.1,1.6-4.6,2.4-7.7,2.4c-2.3,0-4.3-0.5-6.1-1.4s-3.1-2.3-4.1-4
		s-1.5-3.7-1.5-6v-3.2c0-0.2-0.1-0.3-0.3-0.3h-3.4c-0.3,0-0.5-0.1-0.6-0.2c-0.1-0.1-0.2-0.3-0.2-0.6v-1.3c0-0.3,0.1-0.4,0.2-0.6
		c0.1-0.1,0.3-0.2,0.6-0.2h3.4c0.2,0,0.3-0.1,0.3-0.3v-2.8c0-0.2-0.1-0.3-0.3-0.3h-3.4c-0.3,0-0.5-0.1-0.6-0.2s-0.2-0.3-0.2-0.6
		V82.3z"/>
	<path fill="#00B5AF" d="M83.8,86.7c0-17.9-14.5-32.4-32.4-32.4S19,68.8,19,86.7c0,0.1,0,0.3,0,0.4l0,0c0,20.2,14.5,36.7,32.4,36.7
		s32.4-16.5,32.4-36.7l0,0C83.8,86.9,83.8,86.8,83.8,86.7z M80.8,86.7c0,16.2-13.2,29.4-29.4,29.4S22,102.9,22,86.7
		c0-16.2,13.2-29.4,29.4-29.4S80.8,70.4,80.8,86.7z M51.4,119.1c6.9,0,13.2-2.1,18.4-5.8c-5,4.7-11.5,7.5-18.4,7.5
		c-7,0-13.4-2.8-18.4-7.5C38.2,116.9,44.5,119.1,51.4,119.1z"/>
	<path fill="#00B5AF" d="M36.1,84.3h3.4c0.2,0,0.3,0.1,0.3,0.3v2.8c0,0.2-0.1,0.3-0.3,0.3h-3.4c-0.3,0-0.5,0.1-0.6,0.2
		c-0.1,0.2-0.2,0.3-0.2,0.6v1.3c0,0.3,0.1,0.5,0.2,0.6c0.1,0.1,0.3,0.2,0.6,0.2h3.4c0.2,0,0.3,0.1,0.3,0.3v3.2c0,2.3,0.5,4.3,1.5,6
		s2.3,3.1,4.1,4s3.8,1.4,6.1,1.4c3.1,0,5.6-0.8,7.7-2.4c2-1.6,3.3-3.7,3.8-6.4c0.1-0.5-0.1-0.9-0.7-1l-3.5-0.6
		c-0.5-0.2-0.8,0.1-0.9,0.6c-0.3,1.6-1,2.9-2.1,3.8s-2.5,1.4-4.3,1.4c-1.9,0-3.5-0.6-4.7-1.8S45,96.3,45,94.3v-3.5
		c0-0.2,0.1-0.3,0.3-0.3h9.5c0.4,0,0.8-0.2,0.9-0.6l0.4-1.3c0-0.3,0-0.5-0.1-0.7c-0.1-0.1-0.3-0.2-0.6-0.2H45.3
		c-0.2,0-0.3-0.1-0.3-0.3v-2.8c0-0.2,0.1-0.3,0.3-0.3h11.4c0.5,0,0.8-0.2,0.9-0.6l0.4-1.3c0-0.3,0-0.5-0.1-0.7
		c-0.1-0.1-0.3-0.2-0.6-0.2H45.2c-0.2,0-0.3-0.1-0.3-0.3v-3.5c0-2,0.6-3.6,1.8-4.8c1.2-1.2,2.8-1.8,4.7-1.8c1.7,0,3.2,0.5,4.3,1.4
		c1.2,1,1.8,2.2,2.1,3.8c0.2,0.5,0.4,0.7,0.8,0.7h0.2l3.6-0.4c0.5-0.1,0.7-0.3,0.7-0.7v-0.2c-0.4-2.8-1.6-5-3.7-6.6
		c-2.1-1.6-4.7-2.4-7.9-2.4c-2.3,0-4.3,0.5-6.1,1.4s-3.1,2.2-4.1,3.9s-1.5,3.7-1.5,5.9v3.3c0,0.2-0.1,0.3-0.3,0.3h-3.4
		c-0.3,0-0.5,0.1-0.6,0.2c-0.1,0.2-0.2,0.3-0.2,0.6v1.2c0,0.3,0.1,0.5,0.2,0.6C35.6,84.2,35.8,84.3,36.1,84.3z"/>
</g>
<path fill="#00B5AF" d="M47.7,192.9C47.7,192.9,47.7,192.9,47.7,192.9L47.7,192.9C47.7,192.9,47.7,192.9,47.7,192.9L47.7,192.9z"/>
</svg>
