<?xml version="1.0" encoding="utf-8"?>
<!-- Generator: Adobe Illustrator 22.1.0, SVG Export Plug-In . SVG Version: 6.00 Build 0)  -->
<svg version="1.1" id="Layer_1" xmlns="http://www.w3.org/2000/svg" xmlns:xlink="http://www.w3.org/1999/xlink" x="0px" y="0px"
	 width="179px" height="49.8px" viewBox="0 0 179 49.8" style="enable-background:new 0 0 179 49.8;" xml:space="preserve">
<style type="text/css">
	.st0{fill:#E54096;}
	.st1{fill:#FFFFFF;}
	.st2{fill:#00728E;}
</style>
<path class="st0" d="M173.5,0H5.5C2.4,0,0,2.4,0,5.5v19.4c0,13.8,11.2,25,25,25h148.6c3,0,5.5-2.4,5.5-5.5V5.5
	C179,2.4,176.6,0,173.5,0z"/>
<circle class="st1" cx="24.6" cy="24.9" r="16.9"/>
<g>
	<path class="st2" d="M24.6,9.3C16,9.3,9,16.3,9,24.9c0,8.6,7,15.7,15.7,15.7c8.6,0,15.7-7,15.7-15.7C40.3,16.3,33.3,9.3,24.6,9.3z"
		/>
</g>
<path class="st1" d="M33.8,24.5v-2.9c0-3.7-3-6.7-6.7-6.7h-2.9c-3.7,0-6.7,3-6.7,6.7V26h-2.5v2.8c0,1.4,1.1,2.5,2.5,2.5H21
	c0.1,0,0.1,0.1,0,0.2l-1.9,0.4c-1,0.2-1.7,1.1-1.7,2.1v2.7h2.8c1.6,0,2.8-1.3,2.8-2.8v-2.5h4C30.8,31.2,33.8,28.2,33.8,24.5z
	 M26.4,26h-2h-1.3v-3.7c0-1,0.8-1.8,1.8-1.8h1.5c1,0,1.8,0.8,1.8,1.8v1.8C28.2,25.2,27.4,26,26.4,26z"/>
<g>
	<g>
		<path class="st1" d="M129.5,37.1c-0.9,0-1.8,0.2-2.2,0.4v8.3h1.5v-2.5c0.2,0.1,0.6,0.1,0.9,0.1c1.9,0,2.9-1.3,2.9-3.2
			C132.6,38.3,131.5,37.1,129.5,37.1z M129.6,42.3c-0.3,0-0.6-0.1-0.7-0.1v-3.7c0.1-0.1,0.4-0.1,0.7-0.1c1,0,1.5,0.7,1.5,2
			C131,41.4,130.5,42.3,129.6,42.3z"/>
		<path class="st1" d="M136.1,37.1c-0.9,0-1.7,0.2-2.3,0.4l0.2,0.6c0.1,0.2,0.3,0.4,0.6,0.3c0.4-0.1,0.9-0.2,1.3-0.2
			c0.7,0,1.1,0.2,1.1,0.9v0.3c-1.9,0.1-3.6,0.4-3.6,2.1c0,1.2,0.9,2,2.8,2c0.9,0,1.8-0.2,2.3-0.4v-3.5
			C138.5,38.2,138.3,37.1,136.1,37.1z M137.1,42.3c-0.2,0.1-0.5,0.1-0.9,0.1c-0.8,0-1.3-0.3-1.3-0.9c0-0.9,1-1,2.1-1.1V42.3z"/>
		<path class="st1" d="M142.2,42.6l-1.2-4.7c-0.1-0.4-0.5-0.7-0.9-0.7h-1l1.7,5.5c0.1,0.4,0.5,0.6,0.8,0.6h0.2l-0.9,2.4h1.5l2.9-8.6
			h-1.7L142.2,42.6z"/>
		<path class="st1" d="M146.3,37.3l-0.4,1.2h2.6l-2.8,4.9h4.9v-0.8c0-0.2-0.2-0.4-0.4-0.4h-2.3l2.8-4.9H146.3z"/>
		<path class="st1" d="M153.8,37.1c-1.8,0-2.8,1.4-2.8,3.2c0,1.8,1,3.2,2.8,3.2c1.8,0,2.8-1.4,2.8-3.2
			C156.6,38.5,155.6,37.1,153.8,37.1z M153.8,42.3c-0.8,0-1.2-0.7-1.2-2c0-1.2,0.4-2,1.2-2c0.8,0,1.2,0.7,1.2,2
			C155,41.5,154.6,42.3,153.8,42.3z"/>
		<path class="st1" d="M160,37.1c-0.9,0-1.5,0.1-2.1,0.3c-0.2,0.1-0.3,0.2-0.3,0.4v5.5h1.5v-4.9c0.2-0.1,0.6-0.1,0.9-0.1
			c0.7,0,1.1,0.4,1.1,1v4h1.6v-4.2C162.6,37.9,161.8,37.1,160,37.1z"/>
		<path class="st1" d="M169.1,40.2c0-1.7-0.8-3.1-2.6-3.1c-1.8,0-2.8,1.3-2.8,3.2c0,1.9,1.1,3.2,3.1,3.2c0.9,0,1.6-0.1,2.1-0.4
			l-0.3-0.7c-0.1-0.2-0.3-0.4-0.6-0.3c-0.3,0.1-0.7,0.2-1.2,0.2c-0.9,0-1.6-0.5-1.7-1.4l3.9,0C169.1,40.7,169.1,40.4,169.1,40.2z
			 M165,40c0-1.1,0.6-1.7,1.4-1.7c0.9,0,1.3,0.8,1.3,1.7L165,40z"/>
	</g>
	<g>
		<path class="st1" d="M117,43.4c-0.6,0-1.1-0.1-1.5-0.3v-5.8h1v2c0.2-0.1,0.5-0.1,0.7-0.1c1.1,0,1.8,0.7,1.8,2
			C119.1,42.7,118.3,43.4,117,43.4z M117.1,40c-0.2,0-0.4,0-0.5,0.1v2.5c0.1,0,0.3,0.1,0.5,0.1c0.6,0,1-0.4,1-1.4
			C118,40.4,117.7,40,117.1,40z"/>
		<path class="st1" d="M121.5,45h-1.1l0.6-1.6l-1.5-4.1h1.2l0.8,2.6c0.1,0.3,0.1,0.6,0.1,0.6h0c0,0,0-0.3,0.1-0.6l0.8-2.6h1.2
			L121.5,45z"/>
	</g>
</g>
<g>
	<path class="st1" d="M62.8,28.4v-8.5c0-1.4-1-2.3-2.4-2.3c-1,0-1.8,0.3-2.3,0.8v10h-2.6v-8.8c0-1.3-1-2-2.6-2
		c-0.9,0-1.6,0.1-2.1,0.4v10.4h-2.5v-12c1.2-0.5,2.8-0.9,4.5-0.9c2,0,3.3,0.6,4,1.4c0.8-0.7,2.3-1.4,4.2-1.4c2.7,0,4.4,1.6,4.4,4.1
		v8.8H62.8z"/>
	<path class="st1" d="M72.8,33.5h-2.7l1.9-5l-4.7-12.6h2.8l2.7,8.5c0.3,0.9,0.4,1.9,0.4,1.9h0c0,0,0.1-1,0.4-1.9l2.8-8.5h2.8
		L72.8,33.5z"/>
	<path class="st1" d="M92.4,22.6l-7.8,1c0.3,1.4,1.5,2.1,3.1,2.1c1.3,0,2.6-0.3,3.6-0.8l1.1,2.8c-1.1,0.5-3,0.9-4.9,0.9
		c-4.4,0-6.5-2.8-6.5-6.6c0-3.9,2.2-6.6,6-6.6c3.7,0,5.6,2.5,5.6,5.9C92.4,21.9,92.4,22.2,92.4,22.6z M86.7,18.3
		c-1.4,0-2.4,0.9-2.4,3l4.4-0.6C88.7,19.1,87.9,18.3,86.7,18.3z"/>
	<path class="st1" d="M99.8,28.7c-4,0-5.9-1.5-5.9-4.2c0-3.3,3.4-4.1,7.2-4.3v-0.5c0-1-0.7-1.5-2-1.5c-1.2,0-2.7,0.4-3.6,0.8
		l-0.9-2.6c1.1-0.4,3-0.9,5-0.9c3.4,0,5.2,1.3,5.2,4.6v7.6C103.7,28.3,101.8,28.7,99.8,28.7z M101.1,22.6c-2.1,0.1-3.6,0.3-3.6,1.8
		c0,1,0.9,1.6,2.2,1.6c0.5,0,1.1-0.1,1.4-0.2V22.6z"/>
	<path class="st1" d="M110.8,28.7c-1.7,0-3.3-0.4-4.3-0.9l1.2-2.9c0.6,0.4,2.1,0.8,2.9,0.8c0.9,0,1.4-0.4,1.4-1.1
		c0-0.7-0.7-1-1.6-1.4c-1.5-0.5-3.7-1.3-3.7-3.9c0-2.4,1.8-3.9,4.9-3.9c1.7,0,3.1,0.4,4.1,0.9l-1.1,2.6c-0.5-0.3-1.6-0.7-2.4-0.7
		c-0.9,0-1.4,0.4-1.4,1c0,0.8,0.7,1.1,1.6,1.4c1.5,0.5,3.7,1.2,3.7,3.9C116.1,27.1,114.4,28.7,110.8,28.7z"/>
	<path class="st1" d="M123.9,33.5h-4l1.9-5L117,15.8h4.3l2,7.2c0.3,1,0.4,2.1,0.4,2.1h0c0,0,0.2-1.1,0.4-2.1l2-7.2h4.3L123.9,33.5z"
		/>
	<path class="st1" d="M137.3,28.5c-0.6,0-1.2-0.1-1.6-0.2v5.1h-3.9v-17c1-0.5,2.9-0.9,4.9-0.9c4.2,0,6.4,2.3,6.4,6.5
		C143.3,26,141.2,28.5,137.3,28.5z M136.9,18.5c-0.4,0-0.9,0.1-1.1,0.2v6.8c0.2,0.1,0.7,0.2,1.1,0.2c1.6,0,2.5-1.4,2.5-3.6
		C139.4,19.7,138.5,18.5,136.9,18.5z"/>
	<path class="st1" d="M150.8,28.7c-4,0-5.9-1.5-5.9-4.2c0-3.3,3.4-4.1,7.2-4.3v-0.5c0-1-0.7-1.5-2-1.5c-1.2,0-2.7,0.4-3.6,0.8
		l-0.9-2.6c1.1-0.4,3-0.9,5-0.9c3.4,0,5.2,1.3,5.2,4.6v7.6C154.7,28.3,152.8,28.7,150.8,28.7z M152,22.6c-2.1,0.1-3.6,0.3-3.6,1.8
		c0,1,0.9,1.6,2.2,1.6c0.5,0,1.1-0.1,1.4-0.2V22.6z"/>
	<path class="st1" d="M163.7,33.5h-4l1.9-5l-4.7-12.6h4.3l2,7.2c0.3,1,0.4,2.1,0.4,2.1h0c0,0,0.2-1.1,0.4-2.1l2-7.2h4.3L163.7,33.5z
		"/>
</g>
</svg>
