<?xml version="1.0" encoding="utf-8"?>
<!-- Generator: Adobe Illustrator 22.1.0, SVG Export Plug-In . SVG Version: 6.00 Build 0)  -->
<svg version="1.1" id="Layer_1" xmlns="http://www.w3.org/2000/svg" xmlns:xlink="http://www.w3.org/1999/xlink" x="0px" y="0px"
	 width="56px" height="37.6px" viewBox="0 0 56 37.6" enable-background="new 0 0 56 37.6" xml:space="preserve">
<g>
	<g id="XMLID_1_">
		<g>
			<path fill="#FFFFFF" d="M23.5,3.7C30.9,1.5,38.4,2.2,44,4.1c5,1.7,8.6,4.5,9.4,7.2c1.7,5.7-6.9,18.4-21,22.6
				c-7.4,2.2-14.9,1.5-20.5-0.4c-5-1.7-8.6-4.5-9.4-7.2C0.8,20.6,9.4,7.8,23.5,3.7z"/>
			<path fill="#FFFFFF" d="M32.4,33.9c14.1-4.2,22.7-16.9,21-22.6C52.6,8.6,49,5.8,44,4.1c-5.6-1.9-13.1-2.6-20.5-0.4
				C9.4,7.8,0.8,20.6,2.5,26.3c0.8,2.7,4.4,5.5,9.4,7.2C17.5,35.4,25,36.1,32.4,33.9z M33.1,36.1c-7,2.1-15,2-21.9-0.4
				c-5.8-2-9.9-5.2-10.9-8.7c-1.1-3.7,0.8-9,5.1-14.1C9.9,7.5,16.1,3.4,22.9,1.4C26.2,0.5,29.7,0,33.2,0c4,0,8,0.6,11.6,1.9
				c5.8,2,9.9,5.3,10.9,8.8c1.1,3.7-0.8,8.9-5.1,13.9C46.1,30,39.9,34.1,33.1,36.1z"/>
		</g>
	</g>
	<g id="XMLID_3291_">
		<g id="XMLID_3292_">
			<g id="XMLID_3293_">
				<g id="XMLID_3332_">
					<path id="XMLID_945_" fill="#00728C" d="M44,4.1L44,4.1L44,4.1z"/>
					<path id="XMLID_944_" fill="#00728C" d="M55.7,10.7c-1-3.5-5.1-6.8-10.9-8.8L44,4.1c5,1.7,8.6,4.5,9.4,7.2
						c1.7,5.7-6.9,18.4-21,22.6c-7.4,2.2-14.9,1.5-20.5-0.4c-5-1.7-8.6-4.5-9.4-7.2c-1.7-5.7,6.9-18.5,21-22.6
						C30.9,1.5,38.4,2.2,44,4.1l0,0l0.8-2.2l0,0C37.9-0.5,30-0.6,22.9,1.4c-6.8,2-13,6.1-17.5,11.5C1.1,18-0.8,23.3,0.3,27
						c1,3.5,5.1,6.7,10.9,8.7c6.9,2.4,14.9,2.5,21.9,0.4c6.8-2,13-6.1,17.5-11.5C54.9,19.6,56.8,14.4,55.7,10.7z"/>
				</g>
				<g id="XMLID_3327_">
					<g id="XMLID_3328_">
						<path id="XMLID_3329_" fill="#00728C" d="M31,29.1c-5.6,1.7-12.4,2.3-18.5,1.6c-5.7-0.6-9.6-2.1-10.1-4
							c-0.6-1.9,1.8-5.3,6.2-8.8c4.7-3.8,10.8-7,16.6-8.7C34.7,6.4,42,5.5,47.1,6.6c4.8,1,6.3,3.6,6.7,5c0.6,2.1-1.1,5.3-4.6,8.3
							C46.2,22.6,40.7,26.3,31,29.1z M25.3,9.7c-5.8,1.7-11.7,4.8-16.4,8.6c-4.1,3.4-6.5,6.6-6,8.3c1,3.4,15.5,5.7,28,2.1
							c9.6-2.8,15.1-6.5,18-9.1c3.3-2.9,5-5.9,4.4-7.8C52.9,10.4,51.6,8,47,7.1C42,6,34.7,6.9,25.3,9.7z"/>
					</g>
				</g>
				<g id="XMLID_3322_">
					<g id="XMLID_3323_">
						<path id="XMLID_3324_" fill="#00B5AF" d="M35,8.3L35,8.3c-2.9,0.4-5.6,1.1-8.3,1.9C24,11,21.3,12,18.8,13.1
							c-0.6,0.2-1.2,0-1.5-0.5c-0.1-0.3-0.1-0.6,0-0.8c0.1-0.3,0.3-0.5,0.6-0.6c2.7-1.2,5.4-2.2,8.2-3s5.6-1.5,8.5-1.9
							c0.3,0,0.6,0,0.8,0.2s0.4,0.4,0.4,0.7C35.9,7.6,35.5,8.1,35,8.3z"/>
					</g>
				</g>
				<g id="XMLID_3319_">
					<g id="XMLID_3320_">
						<path id="XMLID_939_" fill="#00B5AF" d="M19.8,13.8c-0.1,0-0.1,0-0.2,0c-0.2,0-0.4-0.1-0.5-0.3c0-0.2,0.1-0.4,0.3-0.5
							c0.1,0,0.2,0,0.2-0.1c0.1-0.1-0.1-0.8-0.3-1.3c-0.1-0.2-0.1-0.4-0.2-0.6c-0.1-0.4-0.3-0.7-0.5-0.7c-0.2-0.1-0.3,0-0.3,0
							c-0.2,0.1-0.4,0-0.5-0.1c-0.1-0.2,0-0.4,0.1-0.5c0,0,0.5-0.3,1-0.1c0.4,0.2,0.8,0.6,1,1.3c0.1,0.2,0.1,0.4,0.2,0.6
							c0.3,0.9,0.5,1.5,0.2,1.9C20.2,13.6,20,13.7,19.8,13.8z"/>
					</g>
				</g>
				<g id="XMLID_3316_">
					<g id="XMLID_3317_">
						<path id="XMLID_938_" fill="#00B5AF" d="M21.9,13.1c-0.1,0-0.1,0-0.2,0c-0.2,0-0.4-0.1-0.5-0.3c0-0.2,0.1-0.4,0.3-0.5
							c0.1,0,0.2,0,0.2-0.1c0.1-0.1-0.1-0.8-0.3-1.3c-0.1-0.2-0.1-0.4-0.2-0.6c-0.1-0.4-0.3-0.7-0.5-0.7c-0.2-0.1-0.3,0-0.3,0
							c-0.2,0.1-0.4,0-0.5-0.1c-0.1-0.2,0-0.4,0.1-0.5c0,0,0.5-0.3,1-0.1c0.4,0.2,0.8,0.6,1,1.3c0.1,0.2,0.1,0.4,0.2,0.6
							c0.3,0.9,0.5,1.5,0.2,1.9C22.3,12.9,22.1,13,21.9,13.1z"/>
					</g>
				</g>
				<g id="XMLID_3313_">
					<g id="XMLID_3314_">
						<path id="XMLID_937_" fill="#00B5AF" d="M24,12.2c-0.1,0-0.1,0-0.2,0c-0.2,0-0.4-0.1-0.5-0.3c0-0.2,0.1-0.4,0.3-0.5
							c0.1,0,0.2,0,0.2-0.1c0.1-0.1-0.1-0.8-0.3-1.3c-0.1-0.2-0.1-0.4-0.2-0.6C23.2,9,23,8.7,22.8,8.7c-0.2-0.1-0.3,0-0.3,0
							c-0.2,0.1-0.4,0-0.5-0.1c-0.1-0.2,0-0.4,0.1-0.5c0,0,0.5-0.3,1-0.1c0.4,0.2,0.8,0.6,1,1.3c0.1,0.2,0.1,0.4,0.2,0.6
							c0.3,0.9,0.5,1.5,0.2,1.9C24.5,12,24.3,12.1,24,12.2z"/>
					</g>
				</g>
				<g id="XMLID_3310_">
					<g id="XMLID_3311_">
						<path id="XMLID_936_" fill="#00B5AF" d="M26.3,11.5c-0.1,0-0.1,0-0.2,0c-0.2,0-0.4-0.1-0.5-0.3c0-0.2,0.1-0.4,0.3-0.5
							c0.1,0,0.2,0,0.2-0.1c0.1-0.1-0.1-0.8-0.3-1.3c-0.1-0.2-0.1-0.4-0.2-0.6C25.5,8.3,25.3,8,25.1,8c-0.2-0.1-0.3,0-0.3,0
							c-0.2,0.1-0.4,0-0.5-0.1c-0.1-0.2,0-0.4,0.1-0.5c0,0,0.5-0.3,1-0.1c0.4,0.2,0.8,0.6,1,1.3c0.1,0.2,0.1,0.4,0.2,0.6
							c0.3,0.9,0.5,1.5,0.2,1.9C26.7,11.3,26.6,11.4,26.3,11.5z"/>
					</g>
				</g>
				<g id="XMLID_3307_">
					<g id="XMLID_3308_">
						<path id="XMLID_935_" fill="#00B5AF" d="M28.5,10.6c-0.1,0-0.1,0-0.2,0c-0.2,0-0.4-0.1-0.5-0.3c0-0.2,0.1-0.4,0.3-0.5
							c0.1,0,0.2,0,0.2-0.1c0.1-0.1-0.1-0.8-0.3-1.3c-0.1-0.2-0.1-0.4-0.2-0.6c-0.1-0.4-0.3-0.7-0.5-0.7c-0.2-0.1-0.3,0-0.3,0
							c-0.2,0.1-0.4,0-0.5-0.1c-0.1-0.2,0-0.4,0.1-0.5c0,0,0.5-0.3,1-0.1c0.4,0.2,0.8,0.6,1,1.3c0.1,0.2,0.1,0.4,0.2,0.6
							c0.3,0.9,0.5,1.5,0.2,1.9C29,10.4,28.8,10.5,28.5,10.6z"/>
					</g>
				</g>
				<g id="XMLID_3304_">
					<g id="XMLID_3305_">
						<path id="XMLID_934_" fill="#00B5AF" d="M30.9,10.1c-0.1,0-0.1,0-0.2,0c-0.2,0-0.4-0.1-0.5-0.3c0-0.2,0.1-0.4,0.3-0.5
							c0.1,0,0.2,0,0.2-0.1c0.1-0.1-0.1-0.8-0.3-1.3c-0.1-0.2-0.1-0.4-0.2-0.6c-0.1-0.4-0.3-0.7-0.5-0.7c-0.2-0.1-0.3,0-0.3,0
							c-0.2,0.1-0.4,0-0.5-0.1c-0.1-0.2,0-0.4,0.1-0.5c0,0,0.5-0.3,1-0.1c0.4,0.2,0.8,0.6,1,1.3c0.1,0.2,0.1,0.4,0.2,0.6
							c0.3,0.9,0.5,1.5,0.2,1.9C31.3,9.9,31.1,10.1,30.9,10.1z"/>
					</g>
				</g>
				<g id="XMLID_3301_">
					<g id="XMLID_3302_">
						<path id="XMLID_933_" fill="#00B5AF" d="M33.4,9.7c-0.1,0-0.1,0-0.2,0c-0.2,0-0.4-0.1-0.5-0.3c0-0.2,0.1-0.4,0.3-0.5
							c0.1,0,0.2,0,0.2-0.1c0.1-0.1-0.1-0.8-0.3-1.3c-0.1-0.2-0.1-0.4-0.2-0.6c-0.1-0.4-0.3-0.7-0.5-0.7c-0.2-0.1-0.3,0-0.3,0
							c-0.2,0.1-0.4,0-0.5-0.1c-0.1-0.2,0-0.4,0.1-0.5c0,0,0.5-0.3,1-0.1c0.4,0.2,0.8,0.6,1,1.3c0.1,0.2,0.1,0.4,0.2,0.6
							c0.3,0.9,0.5,1.5,0.2,1.9C33.8,9.5,33.6,9.6,33.4,9.7z"/>
					</g>
				</g>
				<g id="XMLID_3297_">
					<path id="XMLID_3298_" fill="#00728C" d="M12.4,9.4c1.8,2.3,5.1,7.3,6.6,14.4c1.2,5.8,1.1,9.4,0.8,11.3
						c-2.2-0.2-4.3-0.6-6.2-1.1c0.2-1.9,0.4-5.8-0.9-10.7c-1.9-7.1-4.9-9.6-4.9-9.6l0,0C9.1,12.2,10.6,10.8,12.4,9.4 M12.5,8.5
						L12,8.9c-1.7,1.3-3.3,2.8-4.7,4.4l-0.5,0.5l0.5,0.4c0,0,2.9,2.5,4.7,9.2c1.3,4.8,1.1,8.6,0.9,10.4l-0.1,0.6l0.6,0.2
						c2,0.6,4.2,1,6.4,1.2l0.6,0.1l0.1-0.6c0.3-2,0.4-5.7-0.8-11.6C18.2,16.5,14.9,11.4,13,9L12.5,8.5L12.5,8.5z"/>
				</g>
				<path id="XMLID_3294_" fill="#00728C" d="M49,12.6c-1.2-3.5-3.2-6.8-4.7-8.9l-0.1-0.2L44,3.4c-2-0.7-4.1-1.1-6.3-1.4l-1.6-0.2
					l1,1.3c0,0,3.7,5,5.3,11.5c1.6,6.4,1.9,9.9,1.3,13l-0.4,1.8l1.5-1.2c2-1.6,3.8-3.4,5.3-5.4l0.1-0.1v-0.2
					C50.2,22.3,50.9,18.3,49,12.6z M49.5,22.4c-1.4,1.8-3.2,3.6-5.2,5.3c0.6-3.1,0.4-6.5-1.3-13.3S37.6,2.7,37.6,2.7
					c2.2,0.3,4.3,0.8,6.1,1.4c1.3,1.9,3.4,5.2,4.6,8.8C50.2,18.4,49.5,22.4,49.5,22.4z"/>
			</g>
		</g>
	</g>
</g>
</svg>
