<?xml version="1.0" encoding="utf-8"?>
<!-- Generator: Adobe Illustrator 22.1.0, SVG Export Plug-In . SVG Version: 6.00 Build 0)  -->
<svg version="1.1" id="sailboat" xmlns="http://www.w3.org/2000/svg" xmlns:xlink="http://www.w3.org/1999/xlink" x="0px" y="0px"
	 width="53.8px" height="76px" viewBox="0 0 53.8 76" enable-background="new 0 0 53.8 76" xml:space="preserve">
<polygon id="flag" fill="#FFFFFF" stroke="#00B5AF" stroke-linecap="round" stroke-linejoin="round" stroke-miterlimit="10" points="
	22.7,0.5 22.7,5.9 12.7,2.8 "/>
<g id="boat">
	
		<polyline fill="#FFFFFF" stroke="#00728C" stroke-width="2" stroke-linecap="round" stroke-linejoin="round" stroke-miterlimit="10" points="
		30.6,63.5 25,58.8 5.6,58.8 5.6,63.5 	"/>
	
		<path fill="#FFFFFF" stroke="#00728C" stroke-width="2" stroke-linecap="round" stroke-linejoin="round" stroke-miterlimit="10" d="
		M23,16.9C34.1,26,39.1,45.7,37.6,55.3c-4.9-1.7-10.3-0.9-14.2,0C26.7,43,23,16.9,23,16.9z"/>
	<path fill="none" stroke="#00728C" stroke-miterlimit="10" d="M21.5,53.3l-0.1-0.1C21.4,53.3,21.4,53.3,21.5,53.3z"/>
	
		<path fill="#FFFFFF" stroke="#00728C" stroke-width="2" stroke-linecap="round" stroke-linejoin="round" stroke-miterlimit="10" d="
		M22,8.6c0,0-2.6,29.6,0.1,48.9c0,0-0.7-4.3-0.8-4.3c-3.3-1.1-10.9-1.9-14.1,0.1C5.7,42.1,10.3,21.8,22,8.6z"/>
	
		<polyline fill="#FFFFFF" stroke="#00728C" stroke-width="2" stroke-linecap="round" stroke-linejoin="round" stroke-miterlimit="10" points="
		12.1,63.5 44.7,63.5 37.7,70.5 4.7,70.5 2.8,63.5 5.6,63.5 	"/>
	<path fill="none" stroke="#00B5AF" stroke-linecap="round" stroke-linejoin="round" stroke-miterlimit="10" d="M14.6,27.1
		c0,0-2.7,5-4.2,19.6"/>
	<path fill="none" stroke="#00B5AF" stroke-linecap="round" stroke-linejoin="round" stroke-miterlimit="10" d="M33.1,37.8
		c0,0,2.3,6.9,2.3,13.1"/>
</g>
<path id="wave-left" fill="none" stroke="#00B5AF" stroke-linecap="round" stroke-linejoin="round" stroke-miterlimit="10" d="
	M53.3,71.8c-1.4,0-2.6-0.7-3.3-1.7c-0.7,1.3-2.1,2.1-3.6,2.1c-1.4,0-2.6-0.7-3.3-1.7c-0.7,1.3-2.1,2.1-3.6,2.1"/>
<path id="wave-right" fill="none" stroke="#00B5AF" stroke-linecap="round" stroke-linejoin="round" stroke-miterlimit="10" d="
	M14.4,74.6c-1.4,0-2.6-0.7-3.3-1.7C10.4,74.2,9,75,7.4,75c-1.4,0-2.6-0.7-3.3-1.7c-0.7,1.3-2.1,2.1-3.6,2.1"/>
</svg>
