<?xml version="1.0" encoding="utf-8"?>
<!-- Generator: Adobe Illustrator 22.1.0, SVG Export Plug-In . SVG Version: 6.00 Build 0)  -->
<svg version="1.1" id="Layer_1" xmlns="http://www.w3.org/2000/svg" xmlns:xlink="http://www.w3.org/1999/xlink" x="0px" y="0px"
	 width="581px" height="581px" viewBox="0 0 581 581" enable-background="new 0 0 581 581" xml:space="preserve">
<path fill="none" stroke="#00B5AF" stroke-width="2" stroke-linecap="round" stroke-miterlimit="10" stroke-dasharray="0,5" d="
	M101.2,79.3c43.5-41.9,101.8-68.7,166.9-71.6"/>
<path fill="none" stroke="#00B5AF" stroke-width="2" stroke-miterlimit="10" d="M143.9,85.1C262,6.4,421.5,38.2,500.3,156.3"/>
<path fill="none" stroke="#00B5AF" stroke-width="2" stroke-miterlimit="10" d="M431.6,518.3C313.6,597,154,565.2,75.2,447.1"/>
<path fill="none" stroke="#00B5AF" stroke-width="2" stroke-linecap="round" stroke-miterlimit="10" stroke-dasharray="0,5" d="
	M440.1,67.4c50.6,33,89.8,83.8,107.2,146.4"/>
<g>
	<path fill="#CDD9D5" d="M295.7,9.1c-2.5,1.6-5.9,1-7.6-1.5c-1.6-2.5-1-5.9,1.5-7.6c2.5-1.6,5.9-1,7.6,1.5
		C298.9,4,298.2,7.4,295.7,9.1z M290.7,1.7c-1.6,1-2,3.3-1,4.9c1,1.6,3.3,2,4.9,1c1.6-1,2-3.3,1-4.9C294.5,1,292.3,0.6,290.7,1.7z"
		/>
</g>
<g>
	<path fill="#00B5AF" d="M499.5,191.8c-2.5,1.6-5.9,1-7.6-1.5c-1.6-2.5-1-5.9,1.5-7.6c2.5-1.6,5.9-1,7.6,1.5
		C502.6,186.7,501.9,190.2,499.5,191.8z M494.5,184.3c-1.6,1-2,3.3-1,4.9c1,1.6,3.3,2,4.9,1c1.6-1,2-3.3,1-4.9
		C498.3,183.8,496,183.3,494.5,184.3z"/>
</g>
<g>
	<path fill="#00B5AF" d="M67.6,436.7c-2.5,1.6-5.9,1-7.6-1.5c-1.6-2.5-1-5.9,1.5-7.6s5.9-1,7.6,1.5C70.9,431.6,70.2,435,67.6,436.7z
		 M62.7,429.2c-1.6,1-2,3.3-1,4.9c1,1.6,3.3,2,4.9,1s2-3.3,1-4.9C66.4,428.5,64.3,428.1,62.7,429.2z"/>
</g>
<g>
	<path fill="#CDD9D5" d="M54.3,416.7c-2.5,1.6-5.9,1-7.6-1.5c-1.6-2.5-1-5.9,1.5-7.6c2.5-1.6,5.9-1,7.6,1.5S56.8,415,54.3,416.7z
		 M49.3,409.2c-1.6,1-2,3.3-1,4.9s3.3,2,4.9,1s2-3.3,1-4.9C53.1,408.5,50.9,408.2,49.3,409.2z"/>
</g>
<g>
	<path fill="#CDD9D5" d="M519.9,269.5c-2.5,1.6-5.9,1-7.6-1.5c-1.6-2.5-1-5.9,1.5-7.6c2.5-1.6,5.9-1,7.6,1.5
		C523.1,264.4,522.4,267.8,519.9,269.5z M514.9,262.1c-1.6,1-2,3.3-1,4.9c1,1.6,3.3,2,4.9,1c1.6-1,2-3.3,1-4.9
		S516.5,261,514.9,262.1z"/>
</g>
</svg>
