<?xml version="1.0" encoding="utf-8"?>
<!-- Generator: Adobe Illustrator 22.1.0, SVG Export Plug-In . SVG Version: 6.00 Build 0)  -->
<svg version="1.1" id="Layer_1" xmlns="http://www.w3.org/2000/svg" xmlns:xlink="http://www.w3.org/1999/xlink" x="0px" y="0px"
	 width="581px" height="581px" viewBox="0 0 581 581" style="enable-background:new 0 0 581 581;" xml:space="preserve">
<style type="text/css">
	.st0{fill:none;stroke:#00B5AF;stroke-width:2;stroke-miterlimit:10;}
	.st1{fill:none;stroke:#00B5AF;stroke-width:2;stroke-linecap:round;stroke-miterlimit:10;stroke-dasharray:0,5;}
	.st2{fill:#CDD9D5;}
	.st3{fill:#00B5AF;}
</style>
<path class="st0" d="M464.8,486.2c-104.5,96-267.1,89.2-363.1-15.3"/>
<path class="st1" d="M184.1,514.2C130,487.3,85.3,441.4,60.8,381"/>
<path class="st1" d="M345.5,39.3c58.5,15,112,50.4,148.6,104.2"/>
<g>
	<path class="st2" d="M90.4,459.4c-2.2,2-5.7,1.9-7.8-0.3c-2-2.2-1.9-5.7,0.3-7.8s5.7-1.9,7.8,0.3C92.8,453.9,92.6,457.4,90.4,459.4
		z M84.4,452.8c-1.4,1.3-1.5,3.5-0.2,4.9c1.3,1.4,3.5,1.5,4.9,0.2s1.5-3.5,0.2-4.9C88,451.6,85.7,451.5,84.4,452.8z"/>
</g>
<g>
	<path class="st2" d="M289.1,28.3c-2.2,2-5.7,1.9-7.8-0.3c-2-2.2-1.9-5.7,0.3-7.8s5.7-1.9,7.8,0.3C291.5,22.7,291.3,26.3,289.1,28.3
		z M283,21.7c-1.4,1.3-1.5,3.5-0.2,4.9c1.3,1.4,3.5,1.5,4.9,0.2c1.4-1.3,1.5-3.5,0.2-4.9C286.7,20.5,284.4,20.4,283,21.7z"/>
</g>
<g>
	<path class="st3" d="M328,29.2c-2.2,2-5.7,1.9-7.8-0.3s-1.9-5.7,0.3-7.8c2.2-2,5.7-1.9,7.8,0.3S330.2,27.2,328,29.2z M321.9,22.6
		c-1.4,1.3-1.5,3.5-0.2,4.9c1.3,1.4,3.5,1.5,4.9,0.2c1.4-1.3,1.5-3.5,0.2-4.9C325.6,21.4,323.3,21.3,321.9,22.6z"/>
</g>
<g>
	<path class="st3" d="M483.9,476.7c-2.2,2-5.7,1.9-7.8-0.3c-2-2.2-1.9-5.7,0.3-7.8s5.7-1.9,7.8,0.3
		C486.3,471.2,486.1,474.7,483.9,476.7z M477.8,470.1c-1.4,1.3-1.5,3.5-0.2,4.9c1.3,1.4,3.5,1.5,4.9,0.2c1.4-1.3,1.5-3.5,0.2-4.9
		C481.5,468.9,479.2,468.8,477.8,470.1z"/>
</g>
</svg>
