<?xml version="1.0" encoding="utf-8"?>
<!-- Generator: Adobe Illustrator 22.1.0, SVG Export Plug-In . SVG Version: 6.00 Build 0)  -->
<svg version="1.1" id="Layer_1" xmlns="http://www.w3.org/2000/svg" xmlns:xlink="http://www.w3.org/1999/xlink" x="0px" y="0px"
	 width="581px" height="581px" viewBox="0 0 581 581" enable-background="new 0 0 581 581" xml:space="preserve">
<path fill="none" stroke="#00B5AF" stroke-width="2" stroke-miterlimit="10" d="M291.6,29c141.9,0,257,115.1,257,257"/>
<path fill="none" stroke="#00B5AF" stroke-width="2" stroke-miterlimit="10" d="M292.6,548c-141.9,0-257-115.1-257-257"/>
<path fill="none" stroke="#00B5AF" stroke-width="2" stroke-linecap="round" stroke-miterlimit="10" stroke-dasharray="0,5" d="
	M515.7,188.2c23.8,55.5,28.2,119.5,7.9,181.3"/>
<g>
	<path fill="#00B5AF" d="M270.1,35c-3,0-5.5-2.5-5.5-5.5s2.4-5.5,5.5-5.5s5.5,2.5,5.5,5.5S273.1,35,270.1,35z M270.1,26
		c-1.9,0-3.5,1.6-3.5,3.5s1.6,3.5,3.5,3.5s3.5-1.6,3.5-3.5S272,26,270.1,26z"/>
</g>
<g>
	<path fill="#00B5AF" d="M516.1,393c-3,0-5.5-2.5-5.5-5.5s2.5-5.5,5.5-5.5s5.5,2.5,5.5,5.5S519.1,393,516.1,393z M516.1,384
		c-1.9,0-3.5,1.6-3.5,3.5s1.6,3.5,3.5,3.5c1.9,0,3.5-1.6,3.5-3.5S518,384,516.1,384z"/>
</g>
<g>
	<path fill="#CDD9D5" d="M495.1,435c-3,0-5.5-2.5-5.5-5.5s2.5-5.5,5.5-5.5s5.5,2.5,5.5,5.5S498.1,435,495.1,435z M495.1,426
		c-1.9,0-3.5,1.6-3.5,3.5s1.6,3.5,3.5,3.5s3.5-1.6,3.5-3.5S497,426,495.1,426z"/>
</g>
<g>
	<path fill="#FFFFFF" d="M46.1,288c-3,0-5.5-2.5-5.5-5.5s2.5-5.5,5.5-5.5s5.5,2.5,5.5,5.5S49.1,288,46.1,288z M46.1,279
		c-1.9,0-3.5,1.6-3.5,3.5s1.6,3.5,3.5,3.5c1.9,0,3.5-1.6,3.5-3.5S48,279,46.1,279z"/>
</g>
</svg>
