<?xml version="1.0" encoding="utf-8"?>
<!-- Generator: Adobe Illustrator 22.1.0, SVG Export Plug-In . SVG Version: 6.00 Build 0)  -->
<svg version="1.1" id="spinner-make-payment" xmlns="http://www.w3.org/2000/svg" xmlns:xlink="http://www.w3.org/1999/xlink"
	 x="0px" y="0px" width="385px" height="385px" viewBox="0 0 385 385" enable-background="new 0 0 385 385" xml:space="preserve">
<g id="bg-spinner">
	<g>
		<path fill="none" stroke="#E34094" stroke-width="2" stroke-linecap="round" stroke-miterlimit="10" d="M50.2,220.9
			c-1.7-8.6-2.5-17.4-2.5-26.5c0-34.1,12.3-65.3,32.7-89.4"/>
		<path fill="none" stroke="#E34094" stroke-width="2" stroke-linecap="round" stroke-miterlimit="10" d="M175.5,332.5
			C130.4,329,91.3,304,68.6,267.6"/>
		<path fill="none" stroke="#00B5AF" stroke-width="2" stroke-linecap="round" stroke-miterlimit="10" stroke-dasharray="0,5" d="
			M308.1,286.1c-27.8,37-72.1,60.9-121.9,60.9c-11.9,0-23.4-1.4-34.5-3.9"/>
		<path fill="none" stroke="#00B5AF" stroke-width="2" stroke-linecap="round" stroke-miterlimit="10" stroke-dasharray="0,5" d="
			M315.7,113.9c14.6,23.4,23,51,23,80.6c0,22.3-4.8,43.6-13.4,62.7"/>
		<path fill="none" stroke="#00B5AF" stroke-width="2" stroke-linecap="round" stroke-miterlimit="10" stroke-dasharray="0,5" d="
			M33.7,194.4c0-84.2,68.3-152.5,152.5-152.5"/>
		<g>
			<path fill="none" stroke="#E34094" stroke-width="2" stroke-linecap="round" stroke-miterlimit="10" stroke-dasharray="0,5" d="
				M321.7,333.1c-7.3,7-15,13.4-23.1,19"/>
			<path fill="none" stroke="#E34094" stroke-width="2" stroke-linecap="round" stroke-miterlimit="10" stroke-dasharray="0,5" d="
				M380.4,156.3c6.4,33,4,67.5-7.5,99.7"/>
			<path fill="none" stroke="#E34094" stroke-width="2" stroke-linecap="round" stroke-miterlimit="10" stroke-dasharray="0,5" d="
				M114,367.1C41,334.7-1.5,261.9,1.2,186.7"/>
		</g>
		<path fill="none" stroke="#FFFFFF" stroke-width="2" stroke-linecap="round" stroke-miterlimit="10" d="M166,318.3
			c-8.2-1.7-16.1-4.1-23.6-7.3"/>
		<path fill="none" stroke="#FFFFFF" stroke-width="2" stroke-linecap="round" stroke-miterlimit="10" d="M165.1,64.8
			c8.7-1.9,17.8-2.8,27.1-2.8c17.1,0,33.5,3.3,48.4,9.4c23.8,9.6,44,26,58.4,46.9"/>
		<path fill="none" stroke="#FFFFFF" stroke-width="2" stroke-linecap="round" stroke-miterlimit="10" d="M65.9,220
			c-2.1-9.2-3.2-18.7-3.2-28.5c0-47.9,26-89.8,64.7-112.2"/>
		<path fill="none" stroke="#FFFFFF" stroke-width="2" stroke-linecap="round" stroke-miterlimit="10" d="M329.1,307.9
			c-32.7,39.1-81.9,64-136.9,64c-69.2,0-129.2-39.4-158.8-97"/>
		<path fill="none" stroke="#FFFFFF" stroke-width="2" stroke-linecap="round" stroke-miterlimit="10" d="M324.3,71.4
			c28.8,31.7,46.4,73.8,46.4,120c0,24.5-4.9,47.9-13.9,69.1"/>
		<path fill="none" stroke="#FFFFFF" stroke-width="2" stroke-linecap="round" stroke-miterlimit="10" d="M16,222
			c-1.5-9.3-2.3-18.8-2.3-28.5c0-55,24.9-104.1,63.9-136.9"/>
		<path fill="none" stroke="#C6CDD1" stroke-width="2" stroke-linecap="round" stroke-miterlimit="10" d="M269.8,335.4
			c-23.1,12.5-49.5,19.6-77.6,19.6c-31.5,0-61-8.9-86-24.4c-21.2-13.2-39.2-31-52.5-52.2"/>
		<path fill="none" stroke="#E34094" stroke-width="2" stroke-linecap="round" stroke-miterlimit="10" d="M335.4,112.4
			c13,23.4,20.3,50.4,20.3,79c0,18.6-3.1,36.4-8.8,53"/>
		<g>
			<path fill="#E34094" d="M23.7,100.4c-3.6,0-6.5-2.9-6.5-6.5s2.9-6.5,6.5-6.5s6.5,2.9,6.5,6.5S27.3,100.4,23.7,100.4z M23.7,88.4
				c-3,0-5.5,2.5-5.5,5.5s2.5,5.5,5.5,5.5s5.5-2.5,5.5-5.5S26.7,88.4,23.7,88.4z"/>
		</g>
		<g>
			<path fill="#FFFFFF" d="M257.7,312.4c-3.6,0-6.5-2.9-6.5-6.5s2.9-6.5,6.5-6.5s6.5,2.9,6.5,6.5S261.3,312.4,257.7,312.4z
				 M257.7,300.4c-3,0-5.5,2.5-5.5,5.5s2.5,5.5,5.5,5.5s5.5-2.5,5.5-5.5S260.7,300.4,257.7,300.4z"/>
		</g>
		<g>
			<path fill="#00B5AF" d="M369.7,105.4c-3.6,0-6.5-2.9-6.5-6.5s2.9-6.5,6.5-6.5s6.5,2.9,6.5,6.5S373.3,105.4,369.7,105.4z
				 M369.7,93.4c-3,0-5.5,2.5-5.5,5.5s2.5,5.5,5.5,5.5s5.5-2.5,5.5-5.5S372.7,93.4,369.7,93.4z"/>
		</g>
		<g>
			<path fill="#00B5AF" d="M88.7,279.4c-3.6,0-6.5-2.9-6.5-6.5s2.9-6.5,6.5-6.5s6.5,2.9,6.5,6.5S92.3,279.4,88.7,279.4z M88.7,267.4
				c-3,0-5.5,2.5-5.5,5.5s2.5,5.5,5.5,5.5s5.5-2.5,5.5-5.5S91.7,267.4,88.7,267.4z"/>
		</g>
		<g>
			<path fill="#E34094" d="M281.7,296.4c-3.6,0-6.5-2.9-6.5-6.5s2.9-6.5,6.5-6.5s6.5,2.9,6.5,6.5S285.3,296.4,281.7,296.4z
				 M281.7,284.4c-3,0-5.5,2.5-5.5,5.5s2.5,5.5,5.5,5.5s5.5-2.5,5.5-5.5S284.7,284.4,281.7,284.4z"/>
		</g>
		<g>
			<path fill="#E34094" d="M212.7,35.4c-3.6,0-6.5-2.9-6.5-6.5s2.9-6.5,6.5-6.5s6.5,2.9,6.5,6.5S216.3,35.4,212.7,35.4z M212.7,23.4
				c-3,0-5.5,2.5-5.5,5.5s2.5,5.5,5.5,5.5s5.5-2.5,5.5-5.5S215.7,23.4,212.7,23.4z"/>
		</g>
		<path fill="none" stroke="#C6CDD1" stroke-width="2" stroke-linecap="round" stroke-miterlimit="10" d="M199.4,13.1
			c10,0.4,19.9,1.6,29.4,3.6c7.5,1.6,14.7,3.6,21.8,6c15.2,5.3,29.5,12.5,42.5,21.5"/>
		<path fill="none" stroke="#C6CDD1" stroke-width="2" stroke-linecap="round" stroke-miterlimit="10" d="M99.1,39.1
			c8.9-5.5,18.4-10.2,28.3-14"/>
	</g>
	<path fill="#00B5AF" d="M98.4,54.6c-0.3-0.3-0.8-0.3-1.1,0l-12,12l-6-6.1c-0.1-0.1-0.3-0.2-0.5-0.2s-0.4,0.1-0.5,0.2
		c-0.3,0.3-0.3,0.8,0,1.1l7,7.2l13.1-13.1c0.1-0.1,0.2-0.3,0.2-0.5C98.7,54.9,98.6,54.7,98.4,54.6z"/>
	<path fill="#00B5AF" d="M291.4,339.6c-0.3-0.3-0.8-0.3-1.1,0l-12,12l-6-6.1c-0.1-0.1-0.3-0.2-0.5-0.2s-0.4,0.1-0.5,0.2
		c-0.3,0.3-0.3,0.8,0,1.1l7,7.2l13.1-13.1c0.1-0.1,0.2-0.3,0.2-0.5C291.7,339.9,291.6,339.7,291.4,339.6z"/>
</g>
<g id="bulb">
	<g>
		<path fill="#00B5AF" d="M302.9,99.7h9.2c0.4,0,0.7-0.3,0.7-0.7c0-0.4-0.3-0.7-0.7-0.7h-9.2c-0.4,0-0.7,0.3-0.7,0.7
			C302.2,99.4,302.5,99.7,302.9,99.7z"/>
		<path fill="#00B5AF" d="M312.1,101.2h-9.2c-0.4,0-0.7,0.3-0.7,0.7s0.3,0.7,0.7,0.7h9.2c0.4,0,0.7-0.3,0.7-0.7
			S312.5,101.2,312.1,101.2z"/>
		<path fill="#00B5AF" d="M310,104.4h-5c-0.4,0-0.7,0.3-0.7,0.7c0,0.4,0.3,0.7,0.7,0.7h5c0.4,0,0.7-0.3,0.7-0.7
			C310.8,104.7,310.4,104.4,310,104.4z"/>
	</g>
	<g>
		<path fill="#00728C" d="M307.7,62.9c-7.9,0-14.4,6.5-14.4,14.4c0,4.9,4.8,12.3,7.7,16.7c0.7,1.1,1.3,2,1.6,2.6
			c0.1,0.2,0.3,0.3,0.6,0.3h9.1c0.3,0,0.5-0.2,0.6-0.4c0.2-0.5,0.9-1.6,1.8-3c2.8-4.3,7.4-11.5,7.4-16.2
			C322.1,69.4,315.6,62.9,307.7,62.9z M320.8,77.3c0,4.3-4.5,11.3-7.2,15.5l0,0c-0.8,1.2-1.4,2.2-1.7,2.8h-8.4
			c-0.3-0.6-0.9-1.4-1.5-2.3c-2.6-4-7.4-11.5-7.4-16c0-7.2,5.9-13.1,13.1-13.1C314.9,64.2,320.8,70.1,320.8,77.3z"/>
		<path fill="#00728C" d="M307.7,66c-0.4,0-0.6,0.3-0.6,0.6c0,0.4,0.3,0.6,0.6,0.6c5.8,0,10.5,4.7,10.5,10.5c0,0.4,0.3,0.6,0.6,0.6
			s0.6-0.3,0.6-0.6C319.5,71.3,314.2,66,307.7,66z"/>
		<path fill="#00728C" d="M311.1,73.8c-1.5,0-2.7,1.2-2.7,2.7V78h-1.8v-1.4c0-1.5-1.2-2.7-2.7-2.7s-2.7,1.2-2.7,2.7s1.2,2.7,2.7,2.7
			h1.4v14.9c0,0.4,0.3,0.6,0.6,0.6c0.4,0,0.6-0.3,0.6-0.6v-15h1.8v14.9c0,0.4,0.3,0.6,0.6,0.6c0.4,0,0.6-0.3,0.6-0.6V79.2h1.4
			c1.5,0,2.7-1.2,2.7-2.7S312.6,73.8,311.1,73.8z M312.5,76.5c0,0.8-0.6,1.4-1.4,1.4h-1.4v-1.4c0-0.8,0.6-1.4,1.4-1.4
			S312.5,75.7,312.5,76.5z M305.3,76.5V78h-1.4c-0.8,0-1.4-0.6-1.4-1.4s0.6-1.4,1.4-1.4C304.6,75.1,305.3,75.7,305.3,76.5z"/>
	</g>
</g>
<g id="device-check">
	<g>
		<g>
			<path fill="#00728C" d="M158.3,103.5h-23.6c-1.7,0-3.2-1.4-3.2-3.2V57.6c0-1.7,1.4-3.2,3.2-3.2h23.6c1.7,0,3.2,1.4,3.2,3.2v42.7
				C161.5,102.1,160.1,103.5,158.3,103.5z M134.7,55.7c-1,0-1.9,0.8-1.9,1.9v42.7c0,1,0.8,1.9,1.9,1.9h23.6c1,0,1.9-0.8,1.9-1.9
				V57.6c0-1-0.8-1.9-1.9-1.9C158.3,55.7,134.7,55.7,134.7,55.7z"/>
		</g>
	</g>
	<g>
		<g>
			<path fill="#00728C" d="M158.4,95.8h-23.9c-0.4,0-0.6-0.3-0.6-0.6V57.6c0-0.4,0.3-0.6,0.6-0.6h23.9c0.4,0,0.6,0.3,0.6,0.6v37.6
				C159.1,95.5,158.8,95.8,158.4,95.8z M135.2,94.6h22.6V58.3h-22.6V94.6z"/>
		</g>
	</g>
	<g>
		<g>
			<circle fill="#00728C" cx="147.1" cy="98.7" r="1.6"/>
		</g>
	</g>
	<g>
		<g>
			<g>
				<path fill="#00B5AF" d="M145.7,66L145.7,66c0.1,0.1,0.2,0.1,0.3,0.1l0,0c0.1,0,0.2,0,0.3-0.1l5.3-5.3c0.3-0.3,0.3-0.7,0-1
					s-0.7-0.3-1,0l-4.7,4.7l-2.2-2.2c-0.1-0.1-0.3-0.2-0.5-0.2s-0.4,0.1-0.5,0.2c-0.3,0.3-0.3,0.7,0,1L145.7,66z"/>
			</g>
			<g>
				<path fill="#00B5AF" d="M150.7,73l-4.7,4.7l-2.2-2.2c-0.1-0.1-0.3-0.2-0.5-0.2s-0.4,0.1-0.5,0.2c-0.3,0.3-0.3,0.7,0,1l2.8,2.9
					c0.1,0.1,0.2,0.1,0.3,0.1s0.2,0,0.3-0.1l5.3-5.3c0.3-0.3,0.3-0.7,0-1C151.4,72.7,150.9,72.7,150.7,73z"/>
			</g>
			<g>
				<path fill="#00B5AF" d="M150.7,86.3L146,91l-2.2-2.2c-0.1-0.1-0.3-0.2-0.5-0.2s-0.4,0.1-0.5,0.2c-0.3,0.3-0.3,0.7,0,1l2.8,2.9
					c0.1,0.1,0.2,0.1,0.3,0.1s0.2,0,0.3-0.1l5.3-5.3c0.3-0.3,0.3-0.7,0-1C151.4,86,150.9,86,150.7,86.3z"/>
			</g>
		</g>
		<g>
			<path fill="#00B5AF" d="M138.9,69.6H154c0.1,0,0.2-0.1,0.2-0.2s-0.1-0.2-0.2-0.2h-15.1c-0.1,0-0.2,0.1-0.2,0.2
				S138.8,69.6,138.9,69.6z"/>
		</g>
		<g>
			<path fill="#00B5AF" d="M154.1,82.4H139c-0.1,0-0.2,0.1-0.2,0.2s0.1,0.2,0.2,0.2h15.1c0.1,0,0.2-0.1,0.2-0.2
				S154.2,82.4,154.1,82.4z"/>
		</g>
	</g>
</g>
<g id="display">
	<g>
		<g>
			<g>
				<g>
					<path fill="#00728C" d="M84.4,264.5H19.7c-0.3,0-0.6-0.3-0.6-0.6v-38.8c0-0.3,0.3-0.6,0.6-0.6h64.6c0.3,0,0.6,0.3,0.6,0.6v38.8
						C85,264.2,84.7,264.5,84.4,264.5z M20.3,263.3h63.4v-37.6H20.3V263.3z"/>
				</g>
			</g>
		</g>
		<g>
			<g>
				<g>
					<path fill="#00728C" d="M81.3,261.7H22.8c-0.3,0-0.6-0.3-0.6-0.6v-33.3c0-0.3,0.3-0.6,0.6-0.6h58.5c0.3,0,0.6,0.3,0.6,0.6v33.3
						C81.9,261.5,81.6,261.7,81.3,261.7z M23.4,260.5h57.2v-32.1H23.4V260.5z"/>
				</g>
			</g>
		</g>
		<g>
			<g>
				<rect x="37.4" y="269.1" fill="#00728C" width="28.3" height="1.5"/>
			</g>
			<g>
				<path fill="#00728C" d="M65.7,271H37.4c-0.2,0-0.3-0.1-0.3-0.3v-1.5c0-0.2,0.1-0.3,0.3-0.3h28.3c0.2,0,0.3,0.1,0.3,0.3v1.5
					C66,270.8,65.9,271,65.7,271z M37.7,270.3h27.7v-0.9H37.7V270.3z"/>
			</g>
		</g>
		<g>
			<g>
				<path fill="#00728C" d="M54.5,269.9h-5.9v-6.5h5.9V269.9z M49.6,268.9h3.9v-4.5h-3.9V268.9z"/>
			</g>
		</g>
	</g>
	<g>
		<g>
			<g>
				<path fill="#00B5AF" d="M39.5,252h-4.1c-0.1,0-0.2-0.1-0.2-0.2c0-0.1,0.1-0.2,0.2-0.2h4.1c0.1,0,0.2,0.1,0.2,0.2
					C39.8,251.9,39.7,252,39.5,252z"/>
				<path fill="#00B5AF" d="M39.5,252.2h-4.1c-0.3,0-0.5-0.2-0.5-0.5s0.2-0.5,0.5-0.5h4.1c0.3,0,0.5,0.2,0.5,0.5
					S39.8,252.2,39.5,252.2z M39.5,251.8v0.2V251.8L39.5,251.8L39.5,251.8z"/>
			</g>
		</g>
		<g>
			<g>
				<path fill="#00B5AF" d="M39.5,253.3h-4.1c-0.1,0-0.2-0.1-0.2-0.2c0-0.1,0.1-0.2,0.2-0.2h4.1c0.1,0,0.2,0.1,0.2,0.2
					C39.8,253.2,39.7,253.3,39.5,253.3z"/>
				<path fill="#00B5AF" d="M39.5,253.6h-4.1c-0.3,0-0.5-0.2-0.5-0.5s0.2-0.5,0.5-0.5h4.1c0.3,0,0.5,0.2,0.5,0.5
					C40,253.4,39.8,253.6,39.5,253.6z M39.5,253.1v0.2V253.1L39.5,253.1L39.5,253.1z"/>
			</g>
		</g>
		<g>
			<g>
				<path fill="#00B5AF" d="M38.6,254.7h-2.2c-0.1,0-0.2-0.1-0.2-0.2c0-0.1,0.1-0.2,0.2-0.2h2.2c0.1,0,0.2,0.1,0.2,0.2
					C38.8,254.6,38.7,254.7,38.6,254.7z"/>
				<path fill="#00B5AF" d="M38.6,255h-2.2c-0.3,0-0.5-0.2-0.5-0.5s0.2-0.5,0.5-0.5h2.2c0.3,0,0.5,0.2,0.5,0.5S38.9,255,38.6,255z
					 M38.6,254.5v0.2V254.5L38.6,254.5L38.6,254.5z"/>
			</g>
		</g>
		<g>
			<g>
				<path fill="#00B5AF" d="M39.1,241.1c-0.4,0-0.7,0.3-0.7,0.7v0.7h0.7c0.4,0,0.7-0.3,0.7-0.7S39.4,241.1,39.1,241.1z"/>
			</g>
			<g>
				<path fill="#00B5AF" d="M37.5,235.9c-3.4,0-6.2,2.8-6.2,6.2c0,2.1,2.1,5.3,3.3,7.2c0.3,0.5,0.6,0.9,0.7,1.1
					c0,0.1,0.1,0.1,0.2,0.1h4c0.1,0,0.2-0.1,0.2-0.1c0.1-0.2,0.4-0.7,0.8-1.3c1.2-1.9,3.2-5,3.2-7C43.7,238.7,40.9,235.9,37.5,235.9
					z M39.1,242.9h-0.7v6.6c0,0.1-0.1,0.2-0.2,0.2c-0.1,0-0.2-0.1-0.2-0.2v-6.6h-1v6.6c0,0.1-0.1,0.2-0.2,0.2
					c-0.1,0-0.2-0.1-0.2-0.2v-6.6h-0.7c-0.6,0-1.1-0.5-1.1-1.1s0.5-1.1,1.1-1.1s1.1,0.5,1.1,1.1v0.7h0.9v-0.7c0-0.6,0.5-1.1,1.1-1.1
					s1.1,0.5,1.1,1.1C40.2,242.4,39.7,242.9,39.1,242.9z"/>
			</g>
			<g>
				<path fill="#00B5AF" d="M35.9,241.1c-0.4,0-0.7,0.3-0.7,0.7s0.3,0.7,0.7,0.7h0.7v-0.7C36.6,241.4,36.3,241.1,35.9,241.1z"/>
			</g>
		</g>
	</g>
	<g>
		<rect x="51.8" y="231.7" fill="#00B5AF" width="0.5" height="26.4"/>
	</g>
	<g>
		<g>
			
				<rect x="63.7" y="243.5" transform="matrix(0.7071 -0.7071 0.7071 0.7071 -152.8655 118.8696)" fill="#00B5AF" width="6.7" height="0.9"/>
		</g>
		<g>
			<path fill="#00B5AF" d="M70.6,242.3c-1.1,0-1.9-0.9-1.9-1.9c0-1.1,0.9-1.9,1.9-1.9c1.1,0,1.9,0.9,1.9,1.9
				C72.5,241.5,71.7,242.3,70.6,242.3z M70.6,239.4c-0.6,0-1,0.5-1,1s0.5,1,1,1s1-0.5,1-1S71.1,239.4,70.6,239.4z"/>
		</g>
		<g>
			<path fill="#00B5AF" d="M73.2,240.6c-0.1,0-0.2-0.1-0.2-0.2c0-1.3-1.1-2.4-2.4-2.4c-0.1,0-0.2-0.1-0.2-0.2s0.1-0.2,0.2-0.2
				c1.6,0,2.9,1.3,2.9,2.9C73.5,240.5,73.4,240.6,73.2,240.6z"/>
		</g>
		<g>
			<path fill="#00B5AF" d="M74.4,240.6c-0.1,0-0.2-0.1-0.2-0.2c0-2-1.6-3.6-3.6-3.6c-0.1,0-0.2-0.1-0.2-0.2s0.1-0.2,0.2-0.2
				c2.2,0,4.1,1.8,4.1,4.1C74.6,240.5,74.5,240.6,74.4,240.6z"/>
		</g>
		<g>
			<path fill="#00B5AF" d="M59,238.6c-0.2-0.2-0.4-0.1-0.5,0.2c-0.5,3.6,0.6,7.5,3.4,10.3s6.6,3.9,10.3,3.4c0.2,0,0.3-0.3,0.2-0.5
				L59,238.6z"/>
		</g>
	</g>
</g>
<g id="umbrella">
	<path fill="none" d="M212.4,288.5l-5.3,14.1l13.3,5C221.5,298.6,218.3,291.1,212.4,288.5z"/>
	<path fill="none" d="M186.3,324.1c0-0.1,0-0.1,0-0.2c0-4,1.6-7.6,4.2-10.3c-5.1,1.3-8.9,5.9-8.9,11.4c0,5.8,4.2,10.6,9.6,11.6
		C188.2,333.5,186.3,329.1,186.3,324.1L186.3,324.1z"/>
	<path fill="none" d="M216,324.1L216,324.1c0,4.9-1.9,9.4-4.9,12.5c5.4-1,9.6-5.8,9.6-11.6c0-5.5-3.8-10.1-8.8-11.4
		c2.6,2.7,4.2,6.3,4.2,10.3C216,324,216,324.1,216,324.1z"/>
	<path fill="none" d="M211.2,288c-6.2-1.9-13.6,1.6-18.7,9l13.5,5.1L211.2,288z"/>
	<path fill="none" d="M205.1,286.3c-9.7-1.8-19.1,0.4-25,6.1l10.9,4.1C195,290.8,200.1,287.2,205.1,286.3z"/>
	<path fill="none" d="M221.8,308.1l10.9,4.1c-0.7-8.2-6.3-16-14.8-21.1C221.2,295.2,222.7,301.3,221.8,308.1z"/>
	<path fill="none" d="M208.8,338.7c2.4,0,4.6-0.8,6.5-2.3c-1.8,1-3.9,1.6-6.1,1.7c-0.2,0.2-0.5,0.4-0.8,0.5
		C208.6,338.7,208.7,338.7,208.8,338.7z"/>
	<path fill="none" d="M186.8,336.4c1.9,1.4,4.1,2.3,6.5,2.3c0.1,0,0.2,0,0.3,0c-0.3-0.2-0.5-0.3-0.8-0.5
		C190.7,338.1,188.7,337.5,186.8,336.4z"/>
	<path fill="#00B5AF" d="M209.8,311.9c0.7,0.5,1.4,1.1,2,1.7c5.1,1.3,8.8,5.9,8.8,11.4c0,5.7-4.1,10.5-9.6,11.6
		c-0.6,0.6-1.1,1.1-1.8,1.6c2.2-0.1,4.3-0.7,6.1-1.7c3.2-2.4,5.3-6.6,5.3-11.2h1.4c0-0.1,0-0.1,0-0.2
		C222,318.1,216.6,312.4,209.8,311.9z"/>
	<path fill="#00B5AF" d="M215.4,336.4c-1.9,1.4-4.1,2.3-6.5,2.3c-0.1,0-0.2,0-0.3,0c-0.7,0.4-1.4,0.8-2.1,1.1
		c0.8,0.2,1.6,0.3,2.4,0.3c7.3,0,13.2-6.7,13.2-14.9l0,0C221.9,330,219.3,334.2,215.4,336.4z"/>
	<path fill="#00B5AF" d="M215.4,336.4c3.9-2.2,6.6-6.4,6.6-11.2h-1.4C220.6,329.9,218.5,334,215.4,336.4z"/>
	<path fill="#00B5AF" d="M186.8,336.4c1.8,1,3.9,1.7,6.1,1.7c-0.6-0.5-1.2-1-1.8-1.6c-5.5-1-9.6-5.8-9.6-11.6
		c0-5.5,3.8-10.1,8.9-11.4c0.6-0.6,1.3-1.2,2-1.7c-6.8,0.5-12.2,6.2-12.2,13.1c0,0.1,0,0.1,0,0.2h1.4
		C181.6,329.9,183.7,334,186.8,336.4z"/>
	<path fill="#00B5AF" d="M193.4,338.7c-2.4,0-4.6-0.8-6.5-2.3c-3.9-2.2-6.6-6.4-6.6-11.2l0,0c0,8.2,5.9,14.9,13.2,14.9
		c0.8,0,1.7-0.1,2.4-0.3c-0.7-0.3-1.4-0.7-2.1-1.1C193.6,338.7,193.5,338.7,193.4,338.7z"/>
	<path fill="#00B5AF" d="M186.8,336.4c-3.2-2.4-5.3-6.6-5.3-11.2h-1.4C180.3,330,182.9,334.2,186.8,336.4z"/>
	<polygon fill="#00728C" points="192.4,297 192.4,297 205.9,302.1 205.9,302.1 	"/>
	<path fill="#00728C" d="M218,291.2c8.4,5.1,14.1,12.9,14.8,21.1l-10.9-4.1c0,0.2,0,0.4-0.1,0.6l-0.1,0.9l12.6,4.7v-1
		c-0.4-10.8-8.9-21.2-21.3-26.1l0,0C214.9,288,216.6,289.4,218,291.2z"/>
	<polygon fill="#00728C" points="207.2,302.6 220.5,307.6 220.5,307.6 	"/>
	<path fill="#00728C" d="M191.1,296.5l-10.9-4.1c5.9-5.7,15.3-7.8,25-6.1c2.2-0.4,4.4-0.3,6.5,0.4l0,0c-12.6-4.5-25.9-2.3-33.2,5.5
		l-0.7,0.8l12.6,4.7l0.5-0.7C190.9,296.8,191,296.7,191.1,296.5z"/>
	<path fill="#00728C" d="M211.2,288L211.2,288c-2-0.7-4-1.3-6-1.7c-5.1,0.9-10.2,4.5-14,10.2l1.3,0.5C197.6,289.6,205,286,211.2,288
		z"/>
	<polygon fill="#00728C" points="206.7,303.9 221.7,309.5 221.7,309.5 	"/>
	<path fill="#00728C" d="M212.4,288.5c5.9,2.7,9.1,10.2,8.1,19.2l1.3,0.5c0.8-6.8-0.6-12.9-3.8-16.9
		C216.3,290.1,214.4,289.2,212.4,288.5L212.4,288.5z"/>
	<polygon fill="#00728C" points="190.3,297.7 190.3,297.7 205.4,303.4 205.4,303.4 	"/>
	<path fill="#00728C" d="M211.6,286.7c-2.1-0.7-4.3-0.8-6.5-0.4c2,0.4,4,0.9,6,1.6L211.6,286.7z"/>
	<path fill="#00728C" d="M218,291.2c-1.4-1.8-3.1-3.1-5.1-4l-0.5,1.3C214.4,289.2,216.3,290.1,218,291.2z"/>
	<path fill="#00728C" d="M205.9,302.1l-13.5-5.1l0,0l-1.3-0.5c-0.1,0.2-0.2,0.3-0.3,0.5l-0.5,0.7l15.1,5.7L205.9,302.1z"/>
	<path fill="#00728C" d="M221.8,308.1l-1.3-0.5l0,0l-13.3-5l-0.5,1.3l15,5.6l0.1-0.9C221.8,308.5,221.8,308.3,221.8,308.1z"/>
	<path fill="#00728C" d="M206.7,303.9l-1.3-0.5l-2.2,5.8c0.5,0.1,0.9,0.2,1.4,0.3L206.7,303.9z"/>
	<path fill="#00728C" d="M212.9,287.1l0.3-0.8c0.1-0.4,0-0.8-0.4-0.9s-0.8,0-0.9,0.4l-0.3,0.8c0.2,0.1,0.4,0.1,0.6,0.2
		C212.5,287,212.7,287.1,212.9,287.1z"/>
	<path fill="#00728C" d="M211.8,288.2c-0.2-0.1-0.4-0.1-0.6-0.2l-5.3,14.1l1.3,0.5l5.3-14.1C212.2,288.4,212,288.3,211.8,288.2z"/>
	<path fill="#00728C" d="M212.3,286.9c-0.2-0.1-0.4-0.1-0.6-0.2l0,0C211.9,286.7,212.1,286.8,212.3,286.9z"/>
	<polygon fill="#00728C" points="207.2,302.6 205.9,302.1 205.9,302.1 	"/>
	<path fill="#00728C" d="M212.9,287.2L212.9,287.2c-0.2-0.1-0.4-0.2-0.6-0.3C212.5,287,212.7,287.1,212.9,287.2z"/>
	<polygon fill="#00728C" points="206.7,303.9 205.4,303.4 205.4,303.4 	"/>
	<path fill="#00728C" d="M212.4,288.4c-0.2-0.1-0.4-0.2-0.6-0.3C212,288.3,212.2,288.4,212.4,288.4L212.4,288.4z"/>
	<path fill="#00728C" d="M211.2,287.9L211.2,287.9c0.2,0.1,0.4,0.1,0.6,0.2C211.6,288.1,211.4,288,211.2,287.9z"/>
	<path fill="#00728C" d="M211.8,288.2c0.2,0.1,0.4,0.2,0.6,0.3l0.5-1.3c-0.2-0.1-0.4-0.2-0.6-0.3c-0.2-0.1-0.4-0.1-0.7-0.2l-0.5,1.3
		C211.4,288,211.6,288.1,211.8,288.2z"/>
	<polygon fill="#00728C" points="205.9,302.1 205.4,303.4 206.7,303.9 207.2,302.6 	"/>
	<path fill="#00B5AF" d="M189.1,332.6c-1.7-2.4-2.8-5.3-2.8-8.4l0,0c0,4.9,1.9,9.4,4.9,12.5c0.4,0.1,0.8,0.1,1.1,0.2
		C191,335.6,189.9,334.2,189.1,332.6z"/>
	<path fill="#00B5AF" d="M201.1,340.2c-1.5,0-2.9-0.3-4.2-0.7c-0.4,0.1-0.7,0.2-1.1,0.3c1.7,0.7,3.4,1.1,5.3,1.1
		c1.9,0,3.6-0.4,5.3-1.1c-0.4-0.1-0.7-0.2-1.1-0.3C204,340,202.6,340.2,201.1,340.2z"/>
	<path fill="#00B5AF" d="M208.1,338.1c-0.2,0.2-0.5,0.3-0.7,0.4c0.4,0.1,0.8,0.1,1.2,0.1c0.3-0.2,0.5-0.3,0.8-0.5
		c-0.2,0-0.3,0-0.4,0C208.6,338.2,208.3,338.2,208.1,338.1z"/>
	<path fill="#00B5AF" d="M216,324.1c0,3.2-1.1,6.1-2.8,8.4c-0.9,1.6-2,3-3.3,4.2c0.4,0,0.8-0.1,1.1-0.2
		C214.1,333.5,216,329.1,216,324.1L216,324.1z"/>
	<path fill="#00B5AF" d="M193.4,338.2c-0.1,0-0.3,0-0.4,0c0.2,0.2,0.5,0.4,0.8,0.5c0.4,0,0.8,0,1.2-0.1c-0.2-0.1-0.5-0.3-0.7-0.4
		C193.9,338.2,193.6,338.2,193.4,338.2z"/>
	<path fill="#00B5AF" d="M208.1,338.1c0.2,0,0.5,0,0.7,0s0.3,0,0.4,0c0.6-0.5,1.2-1,1.8-1.6c-0.4,0.1-0.8,0.1-1.1,0.2
		C209.3,337.3,208.7,337.7,208.1,338.1z"/>
	<path fill="#00B5AF" d="M207.4,338.6c-0.7,0.4-1.3,0.7-2,0.9c0.4,0.1,0.7,0.2,1.1,0.3c0.7-0.3,1.4-0.7,2.1-1.1
		C208.1,338.7,207.7,338.6,207.4,338.6z"/>
	<path fill="#00B5AF" d="M194.1,338.1c-0.6-0.4-1.2-0.9-1.8-1.4c-0.4,0-0.8-0.1-1.1-0.2c0.6,0.6,1.1,1.1,1.8,1.6c0.1,0,0.3,0,0.4,0
		C193.6,338.2,193.9,338.2,194.1,338.1z"/>
	<path fill="#00B5AF" d="M194.9,338.6c-0.4,0.1-0.8,0.1-1.2,0.1c0.7,0.4,1.4,0.8,2.1,1.1c0.4-0.1,0.7-0.2,1.1-0.3
		C196.2,339.3,195.5,338.9,194.9,338.6z"/>
	<path fill="#00B5AF" d="M201.1,339.6c-1.1,0-2.1-0.2-3.1-0.4c-0.4,0.1-0.7,0.3-1.1,0.4c1.3,0.5,2.8,0.7,4.2,0.7
		c1.5,0,2.9-0.3,4.2-0.7c-0.4-0.1-0.7-0.2-1.1-0.4C203.2,339.4,202.2,339.6,201.1,339.6z"/>
	<path fill="#00B5AF" d="M206.9,338c-0.2,0.1-0.4,0.2-0.6,0.3c0.4,0.1,0.7,0.2,1.1,0.2c0.3-0.1,0.5-0.3,0.7-0.4
		C207.7,338.1,207.3,338.1,206.9,338z"/>
	<path fill="#00B5AF" d="M195.3,338c-0.4,0.1-0.8,0.1-1.2,0.1c0.2,0.2,0.5,0.3,0.7,0.4c0.4-0.1,0.7-0.1,1.1-0.2
		C195.7,338.3,195.5,338.1,195.3,338z"/>
	<path fill="#00B5AF" d="M193.4,336.8c-0.3-0.2-0.6-0.5-0.8-0.7c-1.4-1-2.6-2.2-3.6-3.5c0.9,1.6,2,3,3.3,4.2
		C192.7,336.8,193,336.8,193.4,336.8L193.4,336.8z"/>
	<path fill="#00B5AF" d="M209.6,336.1c-0.3,0.2-0.5,0.5-0.8,0.7l0,0c0.4,0,0.7,0,1.1-0.1c1.3-1.2,2.4-2.6,3.3-4.2
		C212.2,333.9,211,335.1,209.6,336.1z"/>
	<path fill="#00B5AF" d="M208.8,336.8c-0.6,0.5-1.2,0.9-1.9,1.2c0.4,0.1,0.8,0.1,1.2,0.1c0.6-0.4,1.2-0.9,1.8-1.4
		C209.6,336.8,209.2,336.8,208.8,336.8L208.8,336.8z"/>
	<path fill="#00B5AF" d="M204.2,339.1c0.4,0.1,0.7,0.3,1.1,0.4c0.7-0.2,1.4-0.6,2-0.9c-0.4-0.1-0.7-0.1-1.1-0.2
		C205.6,338.7,204.9,338.9,204.2,339.1z"/>
	<path fill="#00B5AF" d="M193.4,336.8c-0.4,0-0.7,0-1-0.1c0.6,0.5,1.2,1,1.8,1.4c0.4,0,0.8-0.1,1.2-0.1
		C194.6,337.7,194,337.3,193.4,336.8L193.4,336.8z"/>
	<path fill="#00B5AF" d="M195.9,338.4c-0.3,0.1-0.7,0.2-1.1,0.2c0.7,0.4,1.3,0.7,2,0.9c0.4-0.1,0.7-0.2,1.1-0.4
		C197.3,338.9,196.6,338.7,195.9,338.4z"/>
	<path fill="#00B5AF" d="M208.6,311.9c0.1,0,0.2,0,0.3,0c0.3,0,0.7,0,1,0.1c-1.5-1.1-3.3-1.9-5.2-2.4l-0.2,0.6
		C205.9,310.5,207.3,311.1,208.6,311.9z"/>
	<path fill="#00B5AF" d="M193.7,311.9c2.2-1.3,4.7-2.1,7.4-2.1c0.6,0,1.3,0.1,1.9,0.1l0.2-0.7c-0.7-0.1-1.4-0.2-2.1-0.2
		c-3.3,0-6.3,1.1-8.7,2.8c0.3,0,0.6,0,1,0C193.5,311.8,193.6,311.9,193.7,311.9z"/>
	<path fill="#00B5AF" d="M186.3,324.1h0.7l0,0l0,0c0-0.1,0-0.1,0-0.2c0-4.2,1.8-8,4.7-10.6c-0.4,0.1-0.8,0.1-1.2,0.2
		c-2.6,2.7-4.2,6.3-4.2,10.3C186.3,324,186.3,324.1,186.3,324.1z"/>
	<path fill="#00B5AF" d="M215.3,323.9c0,0.1,0,0.1,0,0.2l0,0l0,0h0.7c0-0.1,0-0.1,0-0.2c0-4-1.6-7.6-4.2-10.3
		c-0.4-0.1-0.8-0.2-1.3-0.3C213.5,316,215.3,319.7,215.3,323.9z"/>
	<path fill="#00B5AF" d="M208.6,311.9c0.7,0.4,1.4,0.9,2,1.5c0.4,0.1,0.8,0.1,1.3,0.3c-0.6-0.6-1.3-1.2-2-1.7c-0.3,0-0.7-0.1-1-0.1
		C208.7,311.8,208.6,311.9,208.6,311.9z"/>
	<path fill="#00B5AF" d="M190.4,313.6c0.4-0.1,0.8-0.2,1.2-0.2c0.6-0.6,1.3-1.1,2-1.5c-0.1,0-0.2,0-0.3,0c-0.3,0-0.6,0-1,0
		C191.7,312.4,191,313,190.4,313.6z"/>
	<path fill="#00B5AF" d="M204.4,310.1l0.2-0.6c-0.4-0.1-0.9-0.2-1.4-0.3l-0.2,0.7C203.5,309.9,203.9,310,204.4,310.1z"/>
	<path fill="#00B5AF" d="M189.7,332.3c0.8,1.5,1.8,2.8,2.9,3.8c0.4,0.2,0.7,0.5,1.1,0.7c0.4,0,0.8,0,1.3-0.1
		C192.9,335.7,191.1,334.1,189.7,332.3z"/>
	<path fill="#00B5AF" d="M201.1,338.1c-0.4,0-0.8,0-1.1-0.1c-0.3,0.2-0.6,0.4-1,0.6c0.7,0.1,1.4,0.2,2.1,0.2c0.7,0,1.4-0.1,2.1-0.2
		c-0.3-0.2-0.7-0.4-1-0.6C201.9,338.1,201.5,338.1,201.1,338.1z"/>
	<path fill="#00B5AF" d="M204.4,337.7c0.3,0.2,0.7,0.3,1.1,0.4c0.2-0.1,0.4-0.2,0.7-0.2c-0.4-0.1-0.8-0.2-1.2-0.3
		C204.7,337.6,204.6,337.7,204.4,337.7z"/>
	<path fill="#00B5AF" d="M197.3,337.6c-0.4,0.1-0.8,0.2-1.2,0.3c0.2,0.1,0.4,0.2,0.7,0.2c0.4-0.1,0.7-0.3,1.1-0.4
		C197.7,337.7,197.5,337.6,197.3,337.6z"/>
	<path fill="#00B5AF" d="M215.3,324.1L215.3,324.1L215.3,324.1z"/>
	<path fill="#00B5AF" d="M209.6,336.1c1.2-1.1,2.1-2.4,2.9-3.8c-1.4,1.9-3.2,3.4-5.3,4.4c0.4,0.1,0.8,0.1,1.3,0.1
		C208.9,336.6,209.3,336.3,209.6,336.1z"/>
	<polygon fill="#00B5AF" points="187,324.1 186.9,324.1 186.9,324.1 	"/>
	<path fill="#00B5AF" d="M206.1,337.9c0.8-0.3,1.6-0.7,2.4-1.1c-0.4,0-0.9,0-1.3-0.1c-0.8,0.4-1.5,0.7-2.4,0.9
		C205.3,337.7,205.7,337.8,206.1,337.9z"/>
	<path fill="#00B5AF" d="M202.2,338c0.3,0.2,0.6,0.4,1,0.6c0.8-0.1,1.5-0.3,2.3-0.5c-0.4-0.1-0.7-0.3-1.1-0.4
		C203.7,337.9,203,338,202.2,338z"/>
	<path fill="#00B5AF" d="M195,336.7c-0.4,0.1-0.8,0.1-1.3,0.1c0.8,0.4,1.6,0.8,2.4,1.1c0.4-0.1,0.8-0.2,1.2-0.3
		C196.5,337.3,195.7,337,195,336.7z"/>
	<path fill="#00B5AF" d="M197.8,337.7c-0.3,0.2-0.7,0.3-1.1,0.4c0.7,0.2,1.5,0.4,2.3,0.5c0.3-0.2,0.7-0.4,1-0.6
		C199.2,338,198.5,337.9,197.8,337.7z"/>
	<path fill="#00B5AF" d="M186.3,324.1c0,3.2,1.1,6.1,2.8,8.4c-1.3-2.5-2.1-5.3-2.1-8.4H186.3z"/>
	<path fill="#00B5AF" d="M216,324.1h-0.7c0,3.1-0.8,6-2.1,8.4C214.9,330.2,215.9,327.3,216,324.1z"/>
	<path fill="#00B5AF" d="M192.6,336.1c-1.2-1.1-2.1-2.4-2.9-3.8c-1.7-2.3-2.7-5.1-2.7-8.1l0,0c0,3.1,0.8,6,2.1,8.4
		C190,333.9,191.2,335.1,192.6,336.1z"/>
	<path fill="#00B5AF" d="M212.6,332.3c-0.8,1.5-1.8,2.8-2.9,3.8c1.4-1,2.6-2.2,3.6-3.5c1.3-2.5,2.1-5.3,2.1-8.4l0,0
		C215.2,327.2,214.2,330,212.6,332.3z"/>
	<path fill="#00B5AF" d="M201.1,310.4c0.6,0,1.1,0,1.6,0.1l0.2-0.7c-0.6-0.1-1.2-0.1-1.9-0.1c-2.7,0-5.3,0.8-7.4,2.1
		c0.4,0,0.8,0,1.2,0.1C196.8,311,198.9,310.4,201.1,310.4z"/>
	<path fill="#00B5AF" d="M214.6,323.9c0,0.1,0,0.1,0,0.2h0.7c0-0.1,0-0.1,0-0.2c0-4.2-1.8-8-4.7-10.6c-0.4-0.1-0.8-0.1-1.2-0.1
		C212.5,315.7,214.6,319.6,214.6,323.9z"/>
	<path fill="#00B5AF" d="M186.9,323.9c0,0.1,0,0.1,0,0.2h0.7c0-0.1,0-0.1,0-0.2c0-4.3,2.1-8.2,5.3-10.7c-0.4,0-0.8,0.1-1.2,0.1
		C188.8,315.9,186.9,319.7,186.9,323.9z"/>
	<path fill="#00B5AF" d="M207.3,311.9c0.4,0,0.8-0.1,1.2-0.1c-1.3-0.8-2.7-1.4-4.2-1.7l-0.2,0.6C205.3,311,206.3,311.4,207.3,311.9z
		"/>
	<path fill="#00B5AF" d="M209.3,313.2c0.4,0,0.8,0.1,1.2,0.1c-0.6-0.6-1.3-1.1-2-1.5c-0.4,0-0.8,0-1.2,0.1
		C208,312.3,208.7,312.7,209.3,313.2z"/>
	<path fill="#00B5AF" d="M194.9,311.9c-0.4,0-0.8-0.1-1.2-0.1c-0.7,0.4-1.4,0.9-2,1.5c0.4-0.1,0.8-0.1,1.2-0.1
		C193.5,312.7,194.2,312.3,194.9,311.9z"/>
	<path fill="#00B5AF" d="M204.1,310.8l0.2-0.6c-0.5-0.1-0.9-0.2-1.4-0.3l-0.2,0.7C203.2,310.6,203.7,310.7,204.1,310.8z"/>
	<path fill="#00B5AF" d="M204.4,337.7c0.2,0,0.3-0.1,0.5-0.1c-0.4-0.1-0.8-0.3-1.2-0.4c-0.1,0-0.2,0-0.3,0
		C203.8,337.4,204.1,337.5,204.4,337.7z"/>
	<path fill="#00B5AF" d="M201.1,337.4c-0.1,0-0.2,0-0.2,0c-0.3,0.2-0.6,0.4-0.9,0.6c0.4,0,0.8,0.1,1.1,0.1c0.4,0,0.7,0,1.1-0.1
		c-0.3-0.2-0.6-0.4-0.9-0.6C201.3,337.4,201.2,337.4,201.1,337.4z"/>
	<path fill="#00B5AF" d="M198.5,337.1c-0.4,0.2-0.8,0.3-1.2,0.4c0.2,0,0.3,0.1,0.5,0.1c0.3-0.2,0.6-0.3,0.9-0.5
		C198.7,337.2,198.6,337.2,198.5,337.1z"/>
	<path fill="#00B5AF" d="M206.1,336.5c0.4,0.1,0.8,0.2,1.2,0.2c2.1-1,3.9-2.5,5.3-4.4c1.3-2.4,2.1-5.1,2.1-8.1h0.7l0,0h-0.7
		C214.5,329.7,211,334.5,206.1,336.5z"/>
	<path fill="#00B5AF" d="M187.6,324.1c0,3,0.8,5.8,2.1,8.1c1.4,1.9,3.2,3.4,5.3,4.4c0.4-0.1,0.8-0.1,1.2-0.2
		C191.2,334.5,187.7,329.7,187.6,324.1H187l0,0H187.6z"/>
	<path fill="#00B5AF" d="M204.9,337.6c0.8-0.2,1.6-0.5,2.4-0.9c-0.4-0.1-0.8-0.1-1.2-0.2c-0.7,0.3-1.5,0.5-2.3,0.7
		C204.1,337.3,204.5,337.4,204.9,337.6z"/>
	<path fill="#00B5AF" d="M201.3,337.4c0.3,0.2,0.6,0.4,0.9,0.6c0.7-0.1,1.5-0.2,2.2-0.3c-0.3-0.2-0.6-0.3-1-0.5
		C202.8,337.3,202,337.4,201.3,337.4z"/>
	<path fill="#00B5AF" d="M198.5,337.1c-0.8-0.2-1.6-0.4-2.3-0.7c-0.4,0.1-0.8,0.2-1.2,0.2c0.8,0.4,1.5,0.7,2.4,0.9
		C197.7,337.4,198.1,337.3,198.5,337.1z"/>
	<path fill="#00B5AF" d="M198.8,337.2c-0.3,0.2-0.6,0.4-0.9,0.5c0.7,0.2,1.4,0.3,2.2,0.3c0.3-0.2,0.6-0.4,0.9-0.6
		C200.2,337.4,199.5,337.3,198.8,337.2z"/>
	<path fill="#00B5AF" d="M214.6,324.1c0,3-0.8,5.8-2.1,8.1c1.7-2.3,2.7-5.1,2.7-8.1H214.6z"/>
	<path fill="#00B5AF" d="M187,324.1c0,3,1.1,5.8,2.7,8.1c-1.3-2.4-2.1-5.1-2.1-8.1H187z"/>
	<path fill="#00B5AF" d="M205.3,319.4l0.9-0.1c0.2,0,0.3-0.1,0.3-0.3v-0.1c-0.2-1.3-0.7-2.3-1.7-3c-0.6-0.5-1.3-0.8-2.1-0.9
		c-0.2,0.1-0.4,0.2-0.5,0.3C203.5,316.4,204.5,317.8,205.3,319.4z"/>
	<path fill="#00B5AF" d="M200,315.3c-0.2-0.1-0.3-0.2-0.5-0.3c-0.4,0.1-0.8,0.2-1.1,0.4c-0.8,0.4-1.4,1-1.9,1.8
		c-0.4,0.8-0.7,1.7-0.7,2.7v1.5c0,0.1,0,0.1-0.1,0.1h-1.6c-0.1,0-0.2,0-0.3,0.1s-0.1,0.2-0.1,0.3v0.6c0,0.1,0,0.2,0.1,0.3
		c0.1,0.1,0.2,0.1,0.3,0.1h1.6c0.1,0,0.1,0,0.1,0.1C196.3,319.9,197.8,317.2,200,315.3z"/>
	<path fill="#00B5AF" d="M201.9,316.9c-0.3-0.3-0.5-0.5-0.8-0.8c-0.3,0.3-0.6,0.5-0.9,0.8c0.3-0.1,0.6-0.1,0.9-0.1
		C201.4,316.8,201.7,316.8,201.9,316.9z"/>
	<path fill="#00B5AF" d="M198.2,323c0-0.1,0-0.1,0.1-0.1h5.1c0.2,0,0.4-0.1,0.4-0.3l0.2-0.6c0-0.1,0-0.2,0-0.3s-0.1-0.1-0.3-0.1
		h-5.5c-0.1,0-0.1,0-0.1-0.1V320c-0.6,1.3-1,2.7-1.1,4.2h1.1V323H198.2z"/>
	<path fill="#00B5AF" d="M195.8,324.1h1.2c0.1-1.5,0.5-2.9,1.1-4.2v-0.1c0-0.9,0.3-1.6,0.8-2.2c0.3-0.3,0.7-0.6,1.2-0.7
		c0.3-0.3,0.6-0.6,0.9-0.8c-0.3-0.3-0.7-0.6-1.1-0.9c-2.2,2-3.7,4.7-4.2,7.7l0,0v1.2H195.8z"/>
	<path fill="#00B5AF" d="M202.7,314.9c-0.3-0.1-0.7-0.1-1.1-0.1c0.2,0.1,0.4,0.3,0.5,0.5C202.4,315.2,202.5,315,202.7,314.9z"/>
	<path fill="#00B5AF" d="M202.2,315.3c-0.4,0.3-0.7,0.6-1.1,0.9c0.3,0.2,0.5,0.5,0.8,0.8c0.5,0.1,0.9,0.3,1.3,0.6
		c0.5,0.4,0.8,1,1,1.7c0,0.2,0.2,0.3,0.3,0.3h0.1l0.7-0.1C204.5,317.8,203.5,316.4,202.2,315.3z"/>
	<path fill="#00B5AF" d="M200.5,314.8c-0.3,0-0.7,0.1-1,0.2c0.2,0.1,0.3,0.2,0.5,0.3C200.2,315.1,200.3,314.9,200.5,314.8z"/>
	<path fill="#00B5AF" d="M201.1,316.1c0.3-0.3,0.7-0.6,1.1-0.9c-0.2-0.2-0.3-0.3-0.5-0.5c-0.2,0-0.3,0-0.5,0s-0.4,0-0.7,0
		c-0.2,0.1-0.4,0.3-0.5,0.5C200.4,315.5,200.7,315.8,201.1,316.1z"/>
	<path fill="#00B5AF" d="M202.6,332.3c1.1-1.3,1.8-2.9,2.2-4.6h-0.3c-0.2,0-0.4,0-0.4,0.3c-0.1,0.7-0.5,1.3-1,1.7
		c-0.5,0.4-1.2,0.6-2,0.6c-0.9,0-1.6-0.3-2.2-0.8c-0.5-0.6-0.8-1.3-0.8-2.2v-1.6c0-0.1,0-0.1,0.1-0.1h4.3c0.2,0,0.4-0.1,0.4-0.3
		l0.2-0.6c0-0.1,0-0.2,0-0.3c0-0.1-0.1-0.1-0.3-0.1h-4.6c-0.1,0-0.1,0-0.1-0.1v-0.1H197c0,0.3,0,0.6,0,0.9c0,2.8,1,5.3,2.5,7.3
		c0.5,0.1,1,0.2,1.6,0.2C201.7,332.5,202.1,332.4,202.6,332.3z"/>
	<path fill="#00B5AF" d="M195.7,325.2c0-0.1,0-0.1,0-0.2c0-0.2,0-0.4,0-0.6h-1.5c-0.1,0-0.2,0-0.3,0.1s-0.1,0.2-0.1,0.3v0.6
		c0,0.1,0,0.2,0.1,0.3c0.1,0.1,0.2,0.1,0.3,0.1h1.5C195.7,325.5,195.7,325.4,195.7,325.2L195.7,325.2z"/>
	<path fill="#00B5AF" d="M196.2,329.3c-0.1-0.5-0.2-1-0.3-1.6C195.9,328.3,196,328.8,196.2,329.3z"/>
	<path fill="#00B5AF" d="M206.5,328.5c0-0.2,0-0.3-0.2-0.4c-0.1,0.8-0.3,1.5-0.6,2.3C206.1,329.8,206.3,329.2,206.5,328.5z"/>
	<path fill="#00B5AF" d="M195.7,325.2h1.4c0,2.5,0.6,4.8,1.6,6.8c0.3,0.1,0.6,0.3,0.9,0.3c-1.6-2-2.5-4.5-2.5-7.3c0-0.3,0-0.6,0-0.9
		h-1.2v0.1c0,0.1,0,0.1-0.1,0.1l0,0c0,0.2,0,0.4,0,0.6C195.7,325.1,195.7,325.1,195.7,325.2z"/>
	<path fill="#00B5AF" d="M197,330.7c-0.5-1.1-0.9-2.3-1.1-3.6v0.2c0,0.2,0,0.3,0,0.4c0.1,0.5,0.2,1.1,0.3,1.6
		c0.1,0.3,0.2,0.5,0.3,0.7C196.6,330.3,196.8,330.5,197,330.7z"/>
	<path fill="#00B5AF" d="M195.7,325.2L195.7,325.2c0,0.2,0,0.3,0,0.5l0,0C195.7,325.5,195.7,325.4,195.7,325.2z"/>
	<path fill="#00B5AF" d="M198.4,331.9c0.1,0,0.2,0.1,0.2,0.1c-1-2-1.6-4.3-1.6-6.8h-1.4c0,0.2,0,0.3,0,0.5l0,0c0.1,0,0.1,0,0.1,0.1
		v1.3c0.2,1.3,0.6,2.5,1.1,3.6C197.4,331.2,197.8,331.6,198.4,331.9z"/>
	<path fill="#00B5AF" d="M203.5,332.1c0.7-1.3,1.2-2.7,1.4-4.3h-0.1c-0.4,1.7-1.2,3.2-2.2,4.6C202.9,332.3,203.2,332.2,203.5,332.1z
		"/>
	<path fill="#00B5AF" d="M205,331.1c0.3-0.2,0.5-0.5,0.7-0.8c0.2-0.7,0.4-1.5,0.6-2.3h-0.1C205.9,329.1,205.5,330.2,205,331.1z"/>
	<path fill="#00B5AF" d="M204.7,331.4c0.1-0.1,0.2-0.2,0.3-0.3c0.5-1,0.9-2,1.2-3.1l0,0l-1.2-0.2c-0.3,1.5-0.8,3-1.4,4.3
		C203.9,331.9,204.4,331.7,204.7,331.4z"/>
</g>
<g id="device-euro">
	<path fill="none" d="M313,265.3h38.4c0.7,0,1.3,0.3,1.7,0.8v-0.3c0-0.9-0.8-1.7-1.7-1.7H313c-0.9,0-1.7,0.8-1.7,1.7v0.3
		C311.7,265.6,312.3,265.3,313,265.3z"/>
	<path fill="none" d="M360.3,275c0.4,0,0.6,0.3,0.6,0.6v37.6c0,0.4-0.3,0.6-0.6,0.6h-23.9c-0.4,0-0.6-0.3-0.6-0.6v-19.6h-1.1v24.7
		c0,1,0.8,1.9,1.9,1.9h23.6c1,0,1.9-0.8,1.9-1.9v-42.7c0-1-0.8-1.9-1.9-1.9h-6v1.3H360.3z M349,318.3c-0.9,0-1.6-0.7-1.6-1.6
		s0.7-1.6,1.6-1.6s1.6,0.7,1.6,1.6C350.6,317.6,349.9,318.3,349,318.3z"/>
	<path fill="none" d="M353.7,303.6v0.8c0,0.7-0.8,1-1.3,0.5l-10-11.3h-5.3v18.9h22.6v-36.3h-5.5v26.3
		C354.2,303,354,303.4,353.7,303.6z"/>
	<path fill="#00728C" d="M360.2,272.4h-6v1.3h6c1,0,1.9,0.8,1.9,1.9v42.7c0,1-0.8,1.9-1.9,1.9h-23.6c-1,0-1.9-0.8-1.9-1.9v-24.7
		h-1.3v24.7c0,1.7,1.4,3.2,3.2,3.2h23.6c1.7,0,3.2-1.4,3.2-3.2v-42.7C363.4,273.9,361.9,272.4,360.2,272.4z"/>
	<path fill="#00728C" d="M359.7,276.3v36.3h-22.6v-18.9h-1.3v19.6c0,0.4,0.3,0.6,0.6,0.6h23.9c0.4,0,0.6-0.3,0.6-0.6v-37.6
		c0-0.4-0.3-0.6-0.6-0.6h-6.1v1.3L359.7,276.3L359.7,276.3z"/>
	<circle fill="#00728C" cx="349" cy="316.7" r="1.6"/>
	<path fill="#00B5AF" d="M310.7,267.6c0-0.6,0.2-1.1,0.6-1.5v-0.3c0-0.9,0.8-1.7,1.7-1.7h38.4c0.9,0,1.7,0.8,1.7,1.7v0.3
		c0.4,0.4,0.6,0.9,0.6,1.5v4.8h0.6v-6.7c0-1.6-1.3-2.8-2.8-2.8H313c-1.6,0-2.8,1.3-2.8,2.8v15.6c0,1.5,0.3,3,0.9,4.3
		c-0.2-0.8-0.3-1.6-0.3-2.5v-15.5L310.7,267.6L310.7,267.6z"/>
	<path fill="#00B5AF" d="M353.7,291.3v12.3c0.4-0.2,0.6-0.6,0.6-1.1v-26.3h-0.6v14V291.3z"/>
	<rect x="353.7" y="273.7" fill="#00B5AF" width="0.6" height="1.3"/>
	<rect x="353.7" y="272.4" fill="#00B5AF" width="0.6" height="1.3"/>
	<rect x="353.7" y="275" fill="#00B5AF" width="0.6" height="1.3"/>
	<rect x="334.7" y="291.2" fill="#00B5AF" width="1.1" height="1.1"/>
	<path fill="#00B5AF" d="M321.1,292.4h12.3v-1.1h-12.3c-5.4,0-9.8-4.4-9.8-9.8v-15.3c-0.4,0.4-0.6,0.9-0.6,1.5v15.6
		c0,0.8,0.1,1.7,0.3,2.5C312.7,289.6,316.6,292.4,321.1,292.4z"/>
	<path fill="#00B5AF" d="M353.7,272.4v-4.8c0-0.6-0.2-1.1-0.6-1.5v6.3H353.7z"/>
	<path fill="#00B5AF" d="M353,302.7c0,0-0.1,0-0.2,0l-10.1-11.5h-5.6v1.1h5l9.8,11.1c0.3,0.3,0.6,0.4,1,0.4c0.2,0,0.3,0,0.5-0.1
		c0.1,0,0.2-0.1,0.3-0.2v-12.3v-1v-14h-0.6v26.3C353.1,302.7,353,302.7,353,302.7z"/>
	<rect x="353.1" y="273.7" fill="#00B5AF" width="0.6" height="1.3"/>
	<rect x="353.1" y="272.4" fill="#00B5AF" width="0.6" height="1.3"/>
	<rect x="333.4" y="291.2" fill="#00B5AF" width="1.3" height="1.1"/>
	<rect x="353.1" y="275" fill="#00B5AF" width="0.6" height="1.3"/>
	<rect x="335.8" y="291.2" fill="#00B5AF" width="1.3" height="1.1"/>
	<path fill="#00B5AF" d="M332.4,285.1c-0.9,0-1.7-0.3-2.3-0.9s-0.9-1.4-0.9-2.3v-1.7c0-0.1,0-0.1,0.1-0.1h4v-1.4h-4
		c-0.1,0-0.1,0-0.1-0.1v-1.3c0-0.1,0-0.1,0.1-0.1h4v-1.4h-4c-0.1,0-0.1,0-0.1-0.1V274c0-1,0.3-1.7,0.9-2.3c0.6-0.6,1.3-0.9,2.3-0.9
		c0.8,0,1.5,0.2,2.1,0.7c0.4,0.4,0.7,0.8,0.9,1.4c0.4-0.1,0.7-0.2,1.2-0.2h1.4c-0.2-1.2-0.8-2.1-1.7-2.9c-1-0.8-2.3-1.2-3.8-1.2
		c-1.1,0-2.1,0.2-3,0.7c-0.9,0.4-1.5,1.1-2,1.9s-0.7,1.8-0.7,2.9v1.6c0,0.1,0,0.1-0.1,0.1H325c-0.1,0-0.2,0-0.3,0.1
		c-0.1,0.1-0.1,0.2-0.1,0.3v0.6c0,0.1,0,0.2,0.1,0.3c0.1,0.1,0.2,0.1,0.3,0.1h1.7c0.1,0,0.1,0,0.1,0.1v1.3c0,0.1,0,0.1-0.1,0.1H325
		c-0.1,0-0.2,0-0.3,0.1c-0.1,0.1-0.1,0.2-0.1,0.3v0.6c0,0.1,0,0.2,0.1,0.3c0.1,0.1,0.2,0.1,0.3,0.1h1.7c0.1,0,0.1,0,0.1,0.1v1.6
		c0,1.1,0.2,2.1,0.7,2.9s1.1,1.5,2,1.9c0.9,0.5,1.9,0.7,3,0.7c0.3,0,0.7,0,1-0.1V285C333.1,285.1,332.8,285.1,332.4,285.1z"/>
	<path fill="#00B5AF" d="M337.7,282.5l-0.6-0.1v2.8c0.5-0.6,0.8-1.4,1-2.2C338.1,282.8,338,282.6,337.7,282.5z"/>
	<path fill="#00B5AF" d="M335.8,282.3c-0.1,0-0.2,0.1-0.3,0.3c-0.1,0.7-0.4,1.2-0.9,1.7v2.7c0.4-0.1,0.8-0.3,1.1-0.6L335.8,282.3
		L335.8,282.3z"/>
	<path fill="#00B5AF" d="M334.9,277.1c0.2,0,0.4-0.1,0.4-0.3l0.2-0.7c0-0.1,0-0.3,0-0.3c-0.1-0.1-0.1-0.1-0.3-0.1h-0.5v1.4H334.9z"
		/>
	<path fill="#00B5AF" d="M335.4,272.7c0,0.1,0.1,0.3,0.1,0.4c0.1,0.2,0.2,0.3,0.4,0.3h0.1l1.7-0.2c0.2,0,0.3-0.1,0.3-0.3v-0.1
		c0-0.1-0.1-0.2-0.1-0.4h-1.4C336.2,272.4,335.8,272.5,335.4,272.7z"/>
	<path fill="#00B5AF" d="M334.5,284.4c-0.3,0.3-0.7,0.4-1.1,0.6v2.3c0.5-0.1,0.9-0.2,1.3-0.3v-2.7
		C334.6,284.3,334.6,284.4,334.5,284.4z"/>
	<path fill="#00B5AF" d="M334.4,279.8l0.2-0.7c0-0.1,0-0.3,0-0.3c-0.1-0.1-0.1-0.1-0.3-0.1h-0.9v1.4h0.6
		C334.2,280.1,334.4,280,334.4,279.8z"/>
	<rect x="333.4" y="275.6" fill="#00B5AF" width="1.3" height="1.4"/>
	<path fill="#00B5AF" d="M336,282.3c-0.1,0-0.1,0-0.2,0v4.1c0.1-0.1,0.3-0.1,0.4-0.2c0.4-0.3,0.6-0.6,0.9-0.9v-2.8L336,282.3z"/>
</g>
</svg>
