<?xml version="1.0" encoding="utf-8"?>
<!-- Generator: Adobe Illustrator 22.1.0, SVG Export Plug-In . SVG Version: 6.00 Build 0)  -->
<svg version="1.1" id="Layer_1" xmlns="http://www.w3.org/2000/svg" xmlns:xlink="http://www.w3.org/1999/xlink" x="0px" y="0px"
	 width="130px" height="130px" viewBox="0 0 130 130" enable-background="new 0 0 130 130" xml:space="preserve">
<g>
	<path fill="none" stroke="#00B5AF" stroke-width="2" stroke-linecap="round" stroke-miterlimit="10" d="M13,74.5
		c-0.6-3.1-0.9-6.3-0.9-9.5c0-12.3,4.4-23.5,11.8-32.2"/>
	<path fill="none" stroke="#00B5AF" stroke-width="2" stroke-linecap="round" stroke-miterlimit="10" d="M58.1,114.7
		c-16.3-1.2-30.3-10.3-38.5-23.4"/>
	<path fill="none" stroke="#00B5AF" stroke-width="2" stroke-linecap="round" stroke-miterlimit="10" stroke-dasharray="0,5" d="
		M95.1,108.8c-9.2,7-20.7,11.1-33.2,11.1c-4.3,0-8.4-0.5-12.4-1.4"/>
	<path fill="none" stroke="#00B5AF" stroke-width="2" stroke-linecap="round" stroke-miterlimit="10" stroke-dasharray="0,5" d="
		M108.6,36c5.3,8.4,8.3,18.4,8.3,29"/>
	<path fill="none" stroke="#00B5AF" stroke-width="2" stroke-linecap="round" stroke-miterlimit="10" stroke-dasharray="0,5" d="
		M7,65c0-30.3,24.6-54.9,54.9-54.9"/>
	<path fill="none" stroke="#00B5AF" stroke-width="2" stroke-linecap="round" stroke-miterlimit="10" d="M115.7,35.4
		c4.7,8.4,7.3,18.1,7.3,28.5c0,1.7-0.1,3.3-0.2,5"/>
</g>
</svg>
