<?xml version="1.0" encoding="utf-8"?>
<!-- Generator: Adobe Illustrator 22.1.0, SVG Export Plug-In . SVG Version: 6.00 Build 0)  -->
<svg version="1.1" id="Layer_1" xmlns="http://www.w3.org/2000/svg" xmlns:xlink="http://www.w3.org/1999/xlink" x="0px" y="0px"
	 width="581px" height="581px" viewBox="0 0 581 581" enable-background="new 0 0 581 581" xml:space="preserve">
<path fill="none" stroke="#00B5AF" stroke-width="2" stroke-miterlimit="10" d="M274.4,572.5c-141.9,0-257-115.1-257-257"/>
<path fill="none" stroke="#00B5AF" stroke-width="2" stroke-linecap="round" stroke-miterlimit="10" stroke-dasharray="0,5" d="
	M54.8,379.2c-21.6-56.4-23.5-120.5-0.7-181.5"/>
<path fill="none" stroke="#00B5AF" stroke-width="2" stroke-linecap="round" stroke-miterlimit="10" stroke-dasharray="0,5" d="
	M504,139.8c32.9,50.6,48.3,112.9,38.9,177.3"/>
<g>
	<path fill="#CDD9D5" d="M16.9,299.5c-3,0-5.5-2.5-5.5-5.5s2.5-5.5,5.5-5.5s5.5,2.5,5.5,5.5S19.9,299.5,16.9,299.5z M16.9,290.5
		c-1.9,0-3.5,1.6-3.5,3.5s1.6,3.5,3.5,3.5s3.5-1.6,3.5-3.5S18.8,290.5,16.9,290.5z"/>
</g>
<g>
	<path fill="#CDD9D5" d="M469.9,93.5c-3,0-5.5-2.5-5.5-5.5s2.5-5.5,5.5-5.5s5.5,2.5,5.5,5.5S472.9,93.5,469.9,93.5z M469.9,84.5
		c-1.9,0-3.5,1.6-3.5,3.5s1.6,3.5,3.5,3.5s3.5-1.6,3.5-3.5S471.8,84.5,469.9,84.5z"/>
</g>
<g>
	<path fill="#00B5AF" d="M497.9,120.5c-3,0-5.5-2.5-5.5-5.5s2.5-5.5,5.5-5.5s5.5,2.5,5.5,5.5S500.9,120.5,497.9,120.5z M497.9,111.5
		c-1.9,0-3.5,1.6-3.5,3.5s1.6,3.5,3.5,3.5s3.5-1.6,3.5-3.5S499.8,111.5,497.9,111.5z"/>
</g>
<g>
	<path fill="#00B5AF" d="M297.9,575.5c-3,0-5.5-2.5-5.5-5.5s2.5-5.5,5.5-5.5s5.5,2.5,5.5,5.5S300.9,575.5,297.9,575.5z M297.9,566.5
		c-1.9,0-3.5,1.6-3.5,3.5s1.6,3.5,3.5,3.5s3.5-1.6,3.5-3.5S299.8,566.5,297.9,566.5z"/>
</g>
</svg>
