<?xml version="1.0" encoding="utf-8"?>
<!-- Generator: Adobe Illustrator 22.1.0, SVG Export Plug-In . SVG Version: 6.00 Build 0)  -->
<svg version="1.1" id="Layer_1" xmlns="http://www.w3.org/2000/svg" xmlns:xlink="http://www.w3.org/1999/xlink" x="0px" y="0px"
	 width="41px" height="92px" viewBox="0 0 41 92" enable-background="new 0 0 41 92" xml:space="preserve">
<g id="XMLID_1_">
	<g>
		<path fill="#FFFFFF" d="M20.6,68.8l0.7,6.1l-0.9-19.7L6.8,61.1L20.6,68.8z M23.5,86.6l1.6,1.3h-4.6l1.4-1.2l-0.5-11.4
			c-0.1,0.4-0.6,0.5-0.9,0.1L17.8,70L2.9,63.7c-1.6-0.7-2-2.9-0.7-4.1l13.5-12.5v-6.3L8.8,18.3L20.4,4.9l11.9,13.2L28,30.8l-3.1,7.7
			c-0.4,1.1-0.7,2.3-0.7,3.4l0,2.5c0,1.5,0.3,3,0.9,4.3c0.8,1.6,1,3.3,0.9,5.1L23.5,86.6z"/>
	</g>
	<g>
		<path fill="none" stroke="#00728C" stroke-width="2" stroke-linecap="round" stroke-linejoin="round" stroke-miterlimit="10" d="
			M24.9,38.6l3.1-7.7l4.4-12.8L20.4,4.9L8.8,18.3l6.8,22.5v6.3L2.2,59.6c-1.3,1.2-0.9,3.4,0.7,4.1L17.8,70l2.7,5.5
			c0.2,0.4,0.8,0.3,0.9-0.1l0.5,11.4l-1.4,1.2H25l-1.6-1.3l2.4-32.7c0.2-1.7-0.1-3.5-0.9-5.1c-0.6-1.4-0.9-2.8-0.9-4.3l0-2.5
			C24.2,40.8,24.4,39.7,24.9,38.6z"/>
		
			<polygon fill="none" stroke="#00728C" stroke-width="2" stroke-linecap="round" stroke-linejoin="round" stroke-miterlimit="10" points="
			20.6,68.8 6.8,61.1 20.4,55.2 21.3,74.9 		"/>
	</g>
</g>
<polyline fill="none" stroke="#00728C" stroke-linecap="round" stroke-linejoin="round" stroke-miterlimit="10" points="18.2,29.1 
	16.6,30.3 11.2,18.7 20.4,6.6 29.2,18.9 24.8,30.3 22.8,29.3 "/>
<path fill="none" stroke="#00728C" stroke-width="2" stroke-linecap="round" stroke-linejoin="round" stroke-miterlimit="10" d="
	M23,18.5c0.1-0.3,0.1-0.6,0.1-0.9c0-2-1.3-3.6-2.8-3.6s-2.8,1.6-2.8,3.6c0,0.3,0,0.6,0.1,0.9c-0.9,1-1.4,2.4-1.4,4
	c0,2.9,1.9,5.3,4.1,5.3s4.1-2.4,4.1-5.3C24.4,20.8,23.8,19.4,23,18.5z"/>
<line fill="none" stroke="#00728C" stroke-width="2" stroke-linecap="round" stroke-linejoin="round" stroke-miterlimit="10" x1="20.2" y1="1.2" x2="20.2" y2="5.9"/>
<line fill="none" stroke="#00B5AF" stroke-linecap="round" stroke-linejoin="round" stroke-miterlimit="10" x1="5.2" y1="91.3" x2="40.1" y2="91.3"/>
<line fill="none" stroke="#00B5AF" stroke-linecap="round" stroke-linejoin="round" stroke-miterlimit="10" x1="26.2" y1="84.6" x2="36.2" y2="84.6"/>
<line fill="none" stroke="#00B5AF" stroke-linecap="round" stroke-linejoin="round" stroke-miterlimit="10" x1="9.1" y1="84.6" x2="19" y2="84.6"/>
</svg>
